<?xml version="1.0" encoding="utf-8"?>
<!-- Generator: Adobe Illustrator 27.7.0, SVG Export Plug-In . SVG Version: 6.00 Build 0)  -->
<svg version="1.1" id="Layer_1" xmlns="http://www.w3.org/2000/svg" xmlns:xlink="http://www.w3.org/1999/xlink" x="0px" y="0px"
	 viewBox="0 0 1200 800" style="enable-background:new 0 0 1200 800;" xml:space="preserve">
<style type="text/css">
	.st0{fill:#343E44;}
	.st1{fill:#DEE9F7;}
	.st2{fill:#CCCFD0;}
	.st3{fill:#B8BBBE;}
	.st4{fill:#9A9EA2;}
	.st5{fill:#F7F8FC;}
	.st6{fill:#58ABDF;}
	.st7{fill:#E1E2E3;}
	.st8{fill:#F9C647;}
	.st9{fill:#FFFFFF;}
	.st10{opacity:0.3;}
	.st11{fill:#EAECD5;}
	.st12{fill-rule:evenodd;clip-rule:evenodd;fill:#343E44;}
	.st13{opacity:0.15;enable-background:new    ;}
	.st14{opacity:0.15;}
</style>
<g>
	<g>
		<g>
			<path class="st0" d="M1126.2,762.6H259.4V197.4c0-8,6.5-14.4,14.4-14.4h837.9c8,0,14.4,6.5,14.4,14.4L1126.2,762.6L1126.2,762.6z
				"/>
			<rect x="300.8" y="230.2" class="st1" width="783.9" height="497.2"/>
		</g>
		<g>
			<path class="st2" d="M1198.4,745.5L1198.4,745.5H207.9l0,0c0,14.8,6.4,28.2,16.7,38h957.2
				C1192.1,773.7,1198.4,760.3,1198.4,745.5z"/>
			<path class="st3" d="M362.6,783.5h-138c10.7,10.2,25.6,16.5,42.1,16.5h873c16.5,0,31.4-6.3,42.1-16.5H362.6"/>
			<path class="st4" d="M782.5,765.9H623.9c-2.9,0-5.3-2.4-5.3-5.3v-15.1h169.3v15.1C787.8,763.5,785.5,765.9,782.5,765.9z"/>
		</g>
	</g>
</g>
<g>
	<rect x="393.6" class="st5" width="619.2" height="726.3"/>
	<g>
		<rect x="478.6" y="198.4" class="st6" width="447.3" height="23.6"/>
		<rect x="478.6" y="80.4" class="st7" width="174.5" height="9.2"/>
		<rect x="478.6" y="97.4" class="st7" width="174.5" height="9.2"/>
		<rect x="478.6" y="113.1" class="st7" width="174.5" height="9.2"/>
		<rect x="478.6" y="131.1" class="st7" width="174.5" height="9.2"/>
		<rect x="478.6" y="387.6" class="st7" width="447.3" height="9.2"/>
		<rect x="478.6" y="404.6" class="st7" width="447.3" height="9.2"/>
		<rect x="814.3" y="490.2" class="st7" width="111.7" height="9.2"/>
		<rect x="814.3" y="507.2" class="st7" width="111.7" height="9.2"/>
		<rect x="478.6" y="490.2" class="st7" width="111.7" height="9.2"/>
		<rect x="478.6" y="507.2" class="st7" width="111.7" height="9.2"/>
		<rect x="478.6" y="420.3" class="st7" width="447.3" height="9.2"/>
		<rect x="478.6" y="222.1" class="st7" width="447.3" height="135"/>
		<rect x="498.8" y="240.3" class="st6" width="143.2" height="9.2"/>
		<rect x="498.8" y="272.3" class="st6" width="143.2" height="9.2"/>
		<rect x="498.8" y="256" class="st6" width="143.2" height="9.2"/>
		<path class="st8" d="M927.7,610.6c0,19.5-15.8,35.3-35.3,35.3H736.1c-19.5,0-35.3-15.8-35.3-35.3l0,0c0-19.5,15.8-35.3,35.3-35.3
			h156.4C911.9,575.4,927.7,591.1,927.7,610.6L927.7,610.6z"/>
		<g>
			<path class="st9" d="M771.5,630.5H764l7.7-36.6h14.9c2.6,0,4.7,0.3,6.3,0.9c1.5,0.6,2.8,1.7,3.7,3.1c0.9,1.4,1.3,3.2,1.3,5.2
				c0,1.8-0.4,3.6-1.1,5.4c-0.7,1.7-1.6,3.1-2.6,4.2c-1,1-2.2,1.8-3.4,2.4c-1.2,0.5-2.8,1-4.8,1.2c-1.2,0.2-3.4,0.3-6.6,0.3h-4.8
				L771.5,630.5z M775.7,610.5h2.3c4,0,6.6-0.2,8-0.7s2.4-1.3,3.1-2.4c0.8-1.1,1.1-2.3,1.1-3.6c0-0.9-0.2-1.6-0.6-2.2
				c-0.4-0.6-0.9-1-1.6-1.2c-0.7-0.3-2.3-0.4-4.7-0.4h-5.4L775.7,610.5z"/>
			<path class="st9" d="M818.3,622.4h-14.5l-4.4,8.1h-7.7l20.7-36.6h8.4l5.9,36.6h-7.1L818.3,622.4z M817.4,616.3l-2.1-14.7
				l-8.8,14.7H817.4z"/>
			<path class="st9" d="M845.9,630.5h-7.5l3-14.3l-10.1-22.3h8l4.5,10.3c1.1,2.5,1.8,4.3,2.2,5.4c0.6-1.1,1.3-2.2,2.1-3.4l3.5-4.8
				l5.2-7.4h8.7l-16.8,23L845.9,630.5z"/>
		</g>
	</g>
</g>
<g>
	<g class="st10">
		<path d="M338.6,571.5c-0.1-75.8-0.3-201-0.5-327c-51.5,16.3-106.3,25.1-163.2,25.2c-56.9,0.1-111.7-8.6-163.3-24.7
			C11.7,371,12,496.2,12.1,572c0,12,9.8,21.8,21.8,21.8l283-0.5C328.9,593.3,338.6,583.5,338.6,571.5z"/>
		<path d="M174.8,269.7c56.9-0.1,111.7-9,163.2-25.2c-0.1-42.8-0.2-80.8-0.2-108.4c0-12-9.8-21.8-21.8-21.8l-283,0.6
			c-12,0-21.8,9.8-21.8,21.8c0.1,27.6,0.1,65.6,0.2,108.4C63.1,261.1,118,269.8,174.8,269.7z"/>
	</g>
	<path class="st7" d="M0.2,235.1C0.4,361,0.7,486.2,0.8,562c0,12,9.8,21.8,21.8,21.8l283-0.5c12,0,21.8-9.8,21.8-21.8
		c-0.1-75.8-0.3-201-0.5-327c-51.5,16.3-106.3,25.1-163.2,25.2C106.6,259.8,51.8,251.2,0.2,235.1z"/>
	<path class="st0" d="M304.7,104.3l-283,0.6c-12,0-21.8,9.8-21.8,21.8c0.1,27.6,0.1,65.6,0.2,108.4c51.5,16.1,106.4,24.7,163.3,24.6
		s111.7-9,163.2-25.2c-0.1-42.8-0.2-80.8-0.2-108.4C326.5,114,316.7,104.3,304.7,104.3z"/>
	<path class="st11" d="M290.8,213.2l-260.3,0.5c-6.3,0-11.3-5.1-11.3-11.3L19.1,138c0-6.3,5.1-11.3,11.3-11.3l260.3-0.5
		c6.3,0,11.3,5.1,11.3,11.3l0.1,64.4C302.2,208.1,297.1,213.2,290.8,213.2z"/>
	<g>
		<g>
			<polygon class="st12" points="279.6,164.3 270.1,164.3 267.4,161.5 270.1,158.8 279.7,158.8 282.4,161.5 			"/>
			<polygon class="st12" points="279.7,180.6 270.2,180.6 267.4,177.9 270.1,175.1 279.6,175.1 282.4,177.8 			"/>
			<polygon class="st12" points="279.7,196.9 270.2,196.9 267.4,194.2 270.2,191.5 279.7,191.5 282.4,194.1 			"/>
			<polygon class="st12" points="269.5,164.9 269.5,174.5 266.8,177.2 264,174.5 264,165 266.7,162.2 			"/>
			<polygon class="st12" points="285.8,164.9 285.8,174.4 283.1,177.2 280.3,174.4 280.4,164.9 283,162.2 			"/>
			<polygon class="st12" points="269.5,181.2 269.5,190.8 266.8,193.5 264,190.8 264,181.3 266.7,178.5 			"/>
			<polygon class="st12" points="285.8,181.2 285.8,190.7 283.1,193.5 280.4,190.7 280.3,181.3 283,178.5 			"/>
		</g>
		<g>
			<polygon class="st12" points="252.4,164.3 242.9,164.3 240.2,161.6 242.9,158.9 252.5,158.9 255.1,161.6 			"/>
			<polygon class="st12" points="252.5,196.9 243,196.9 240.3,194.2 243,191.5 252.5,191.5 255.2,194.2 			"/>
			<polygon class="st12" points="242.2,165 242.3,174.5 239.5,177.2 236.8,174.5 236.8,165 239.6,162.3 			"/>
			<polygon class="st12" points="258.5,164.9 258.6,174.5 255.8,177.2 253.2,174.5 253.1,164.9 255.9,162.3 			"/>
			<polygon class="st12" points="242.3,181.4 242.3,190.8 239.5,193.5 236.9,190.9 236.8,181.3 239.6,178.6 			"/>
			<polygon class="st12" points="258.6,181.3 258.6,190.8 255.9,193.5 253.2,190.8 253.2,181.3 255.9,178.6 			"/>
		</g>
		
			<rect x="230.1" y="192.3" transform="matrix(0.7058 -0.7084 0.7084 0.7058 -69.305 221.5512)" class="st12" width="3.9" height="3.9"/>
		<g>
			<polygon class="st12" points="221.2,164.9 211.6,164.9 208.9,162.1 211.6,159.4 221.1,159.4 223.9,162.1 			"/>
			<polygon class="st12" points="221.2,197.5 211.7,197.5 209,194.8 211.7,192.1 221.2,192.1 224,194.7 			"/>
			<polygon class="st12" points="211,165.5 210.9,175 208.3,177.8 205.5,175.1 205.5,165.6 208.2,162.8 			"/>
			<polygon class="st12" points="227.3,165.5 227.2,175 224.6,177.8 221.8,175 221.8,165.5 224.5,162.8 			"/>
			<polygon class="st12" points="211,181.8 211,191.4 208.3,194.1 205.5,191.4 205.5,181.9 208.3,179.1 			"/>
			<polygon class="st12" points="227.3,181.8 227.3,191.4 224.6,194.1 221.9,191.4 221.8,181.9 224.6,179.1 			"/>
		</g>
		<g>
			<polygon class="st12" points="193.1,164.8 183.6,164.8 180.9,162.1 183.6,159.3 193.1,159.4 195.9,162 			"/>
			<polygon class="st12" points="193.2,181.1 183.7,181.1 180.9,178.4 183.6,175.6 193.1,175.7 195.9,178.3 			"/>
			<polygon class="st12" points="193.2,197.4 183.7,197.4 180.9,194.7 183.7,192 193.1,192 195.9,194.6 			"/>
			<polygon class="st12" points="199.3,165.4 199.3,175 196.6,177.7 193.8,174.9 193.8,165.5 196.5,162.7 			"/>
			<polygon class="st12" points="199.3,181.7 199.3,191.3 196.6,194 193.8,191.3 193.8,181.8 196.5,179 			"/>
		</g>
		<g>
			<polygon class="st12" points="168.4,165.2 158.8,165.2 156.1,162.5 158.9,159.8 168.3,159.8 171.1,162.5 			"/>
			<polygon class="st12" points="168.4,197.8 158.9,197.9 156.2,195.1 158.9,192.4 168.4,192.4 171.1,195.2 			"/>
			<polygon class="st12" points="158.1,165.9 158.1,175.4 155.5,178.1 152.7,175.4 152.7,165.9 155.4,163.2 			"/>
			<polygon class="st12" points="174.5,165.8 174.5,175.4 171.8,178.1 169.1,175.4 169,165.9 171.8,163.2 			"/>
			<polygon class="st12" points="158.1,182.2 158.2,191.8 155.5,194.4 152.8,191.8 152.7,182.2 155.5,179.5 			"/>
			<polygon class="st12" points="174.5,182.2 174.5,191.7 171.8,194.4 169.1,191.7 169.1,182.2 171.8,179.5 			"/>
		</g>
		<g>
			<polygon class="st12" points="141.2,165.3 131.7,165.2 128.9,162.6 131.6,159.8 141.1,159.8 143.9,162.5 			"/>
			<polygon class="st12" points="141.2,181.6 131.7,181.6 128.9,178.9 131.6,176.1 141.1,176.1 143.9,178.8 			"/>
			<polygon class="st12" points="141.2,197.9 131.7,197.9 128.9,195.2 131.7,192.5 141.2,192.4 143.9,195.2 			"/>
			<polygon class="st12" points="147.3,165.9 147.3,175.4 144.6,178.2 141.8,175.5 141.8,165.9 144.5,163.2 			"/>
			<polygon class="st12" points="131,182.3 131,191.8 128.3,194.6 125.5,191.8 125.5,182.3 128.2,179.6 			"/>
		</g>
	</g>
	<path class="st13" d="M24.6,208.2l-0.1-65.3c0-6,4.8-10.9,10.8-10.9l261.2-0.5c1.6,0,3.1,0.3,4.4,1c-1.7-3.8-5.5-6.4-9.9-6.4
		l-261.2,0.5c-6,0-10.9,4.9-10.8,10.9l0.1,65.3c0,4.4,2.6,8.2,6.5,9.9C25,211.3,24.6,209.8,24.6,208.2z"/>
	<g class="st14">
		<path d="M302.6,321.2c-14.3,4.7-29.6,4.7-43.8,0.1c-2.9-1-5.3-4.4-5.3-7.4c0-9-0.1-18.1,0-27.2c0-3,2.4-5.4,5.5-5.5
			c14.6,0,29-0.1,43.6,0c3,0.1,5.5,2.5,5.5,5.5c0,9,0.1,18.1,0,27.2C307.8,316.8,305.5,320.3,302.6,321.2z"/>
		<path d="M226.3,321.4c-14.3,4.7-29.6,4.7-43.8,0.1c-2.9-1-5.3-4.4-5.3-7.4c0-9-0.1-18.1,0-27.2c0-3,2.4-5.4,5.5-5.5
			c14.6,0,29-0.1,43.6,0c3,0.1,5.5,2.5,5.5,5.5c0,9,0.1,18.1,0,27.2C231.6,316.9,229.3,320.4,226.3,321.4z"/>
		<path d="M150.1,321.5c-14.3,4.7-29.6,4.7-43.8,0.1c-2.9-1-5.3-4.4-5.3-7.4c0-9-0.1-18.1,0-27.2c0-3,2.4-5.4,5.5-5.5
			c14.6,0,29-0.1,43.6,0c3,0.1,5.5,2.5,5.5,5.5c0,9,0.1,18.1,0,27.2C155.4,317.1,153.1,320.5,150.1,321.5z"/>
		<path d="M74,321.6c-14.3,4.7-29.6,4.7-43.8,0.1c-2.9-1-5.3-4.4-5.3-7.4c0-9-0.1-18.1,0-27.2c0-3,2.4-5.4,5.5-5.5
			c14.6,0,29-0.1,43.6,0c3,0.1,5.5,2.5,5.5,5.5c0,9,0.1,18.1,0,27.2C79.3,317.2,76.9,320.7,74,321.6z"/>
		<path d="M302.6,381.1c-14.3,4.7-29.6,4.7-43.8,0.1c-2.9-1-5.3-4.4-5.3-7.4c0-9-0.1-18.1,0-27.2c0-3,2.4-5.4,5.5-5.5
			c14.6,0,29-0.1,43.6,0c3,0.1,5.5,2.5,5.5,5.5c0,9,0.1,18.1,0,27.2C307.9,376.7,305.6,380.1,302.6,381.1z"/>
		<path d="M226.4,381.2c-14.3,4.7-29.6,4.7-43.8,0.1c-2.9-1-5.3-4.4-5.3-7.4c0-9-0.1-18.1,0-27.2c0-3,2.4-5.4,5.5-5.5
			c14.6,0,29-0.1,43.6,0c3,0.1,5.5,2.5,5.5,5.5c0,9,0.1,18.1,0,27.2C231.7,376.8,229.4,380.3,226.4,381.2z"/>
		<path d="M150.3,381.4c-14.3,4.7-29.6,4.7-43.8,0.1c-2.9-1-5.3-4.4-5.3-7.4c0-9-0.1-18.1,0-27.2c0-3,2.4-5.4,5.5-5.5
			c14.6,0,29-0.1,43.6,0c3,0.1,5.5,2.5,5.5,5.5c0,9,0.1,18.1,0,27.2C155.6,376.9,153.2,380.4,150.3,381.4z"/>
		<path d="M74.1,381.5c-14.3,4.7-29.6,4.7-43.8,0.1c-2.9-1-5.3-4.4-5.3-7.4c0-9-0.1-18.1,0-27.2c0-3,2.4-5.4,5.5-5.5
			c14.6,0,29-0.1,43.6,0c3,0.1,5.5,2.5,5.5,5.5c0,9,0.1,18.1,0,27.2C79.4,377.1,77,380.6,74.1,381.5z"/>
		<path d="M302.8,441c-14.3,4.7-29.6,4.7-43.8,0.1c-2.9-1-5.3-4.4-5.3-7.4c0-9-0.1-18.1,0-27.2c0-3,2.4-5.4,5.5-5.5
			c14.6,0,29-0.1,43.6,0c3,0.1,5.5,2.5,5.5,5.5c0,9,0.1,18.1,0,27.2C308.1,436.5,305.7,440,302.8,441z"/>
		<path d="M226.6,441.1c-14.3,4.7-29.6,4.7-43.8,0.1c-2.9-1-5.3-4.4-5.3-7.4c0-9-0.1-18.1,0-27.2c0-3,2.4-5.4,5.5-5.5
			c14.6,0,29-0.1,43.6,0c3,0.1,5.5,2.5,5.5,5.5c0,9,0.1,18.1,0,27.2C231.9,436.7,229.5,440.1,226.6,441.1z"/>
		<path d="M150.4,441.2c-14.3,4.7-29.6,4.7-43.8,0.1c-2.9-1-5.3-4.4-5.3-7.4c0-9-0.1-18.1,0-27.2c0-3,2.4-5.4,5.5-5.5
			c14.6,0,29-0.1,43.6,0c3,0.1,5.5,2.5,5.5,5.5c0,9,0.1,18.1,0,27.2C155.6,436.8,153.3,440.3,150.4,441.2z"/>
		<path d="M74.2,441.4c-14.3,4.7-29.6,4.7-43.8,0.1c-2.9-1-5.3-4.4-5.3-7.4c0-9-0.1-18.1,0-27.2c0-3,2.4-5.4,5.5-5.5
			c14.6,0,29-0.1,43.6,0c3,0.1,5.5,2.5,5.5,5.5c0,9,0.1,18.1,0,27.2C79.4,436.9,77.1,440.4,74.2,441.4z"/>
		<path d="M302.9,560.7c-14.3,4.7-29.6,4.7-43.8,0.1c-2.9-1-5.3-4.4-5.3-7.4c0-9-0.1-78-0.2-87.1c0-3,2.4-5.4,5.5-5.5
			c14.6,0,29-0.1,43.6,0c3,0.1,5.5,2.5,5.5,5.5c0,9,0.1,78,0.2,87.1C308.2,556.3,305.9,559.7,302.9,560.7z"/>
		<path d="M226.7,501c-14.3,4.7-29.6,4.7-43.8,0.1c-2.9-1-5.3-4.4-5.3-7.4c0-9-0.1-18.1,0-27.2c0-3,2.4-5.4,5.5-5.5
			c14.6,0,29-0.1,43.6,0c3,0.1,5.5,2.5,5.5,5.5c0,9,0.1,18.1,0,27.2C231.9,496.5,229.6,499.9,226.7,501z"/>
		<path d="M150.4,501.1c-14.3,4.7-29.6,4.7-43.8,0.1c-2.9-1-5.3-4.4-5.3-7.4c0-9-0.1-18.1,0-27.2c0-3,2.4-5.4,5.5-5.5
			c14.6,0,29-0.1,43.6,0c3,0.1,5.5,2.5,5.5,5.5c0,9,0.1,18.1,0,27.2C155.7,496.7,153.4,500.1,150.4,501.1z"/>
		<path d="M74.3,501.3c-14.3,4.7-29.6,4.7-43.8,0.1c-2.9-1-5.3-4.4-5.3-7.4c0-9-0.1-18.1,0-27.2c0-3,2.4-5.4,5.5-5.5
			c14.6,0,29-0.1,43.6,0c3,0.1,5.5,2.5,5.5,5.5c0,9,0.1,18.1,0,27.2C79.6,496.8,77.3,500.2,74.3,501.3z"/>
		<path d="M226.8,560.8c-14.3,4.7-29.6,4.7-43.8,0.1c-2.9-1-5.3-4.4-5.3-7.4c0-9-0.1-18.1,0-27.2c0-3,2.4-5.4,5.5-5.5
			c14.6,0,29-0.1,43.6,0c3,0.1,5.5,2.5,5.5,5.5c0,9,0.1,18.1,0,27.2C232.1,556.4,229.8,559.8,226.8,560.8z"/>
		<path d="M150.6,561c-14.3,4.7-29.6,4.7-43.8,0.1c-2.9-1-5.3-4.4-5.3-7.4c0-9-0.1-18.1,0-27.2c0-3,2.4-5.4,5.5-5.5
			c14.6,0,29-0.1,43.6,0c3,0.1,5.5,2.5,5.5,5.5c0,9,0.1,18.1,0,27.2C155.9,556.6,153.6,560,150.6,561z"/>
		<path d="M74.4,561.1c-14.3,4.7-29.6,4.7-43.8,0.1c-2.9-1-5.3-4.4-5.3-7.4c0-9-0.1-18.1,0-27.2c0-3,2.4-5.4,5.5-5.5
			c14.6,0,29-0.1,43.6,0c3,0.1,5.5,2.5,5.5,5.5c0,9,0.1,18.1,0,27.2C79.7,556.7,77.3,560.1,74.4,561.1z"/>
	</g>
	<g>
		<path class="st0" d="M299.8,318.5c-14.3,4.7-29.6,4.7-43.8,0.1c-2.9-1-5.3-4.4-5.3-7.4c0-9-0.1-18.1,0-27.2c0-3,2.4-5.4,5.5-5.5
			c14.6,0,29-0.1,43.6,0c3,0.1,5.5,2.5,5.5,5.5c0,9,0.1,18.1,0,27.2C305.1,314.1,302.7,317.6,299.8,318.5z"/>
		<path class="st0" d="M223.6,318.7c-14.3,4.7-29.6,4.7-43.8,0.1c-2.9-1-5.3-4.4-5.3-7.4c0-9-0.1-18.1,0-27.2c0-3,2.4-5.4,5.5-5.5
			c14.6,0,29-0.1,43.6,0c3,0.1,5.5,2.5,5.5,5.5c0,9,0.1,18.1,0,27.2C228.9,314.2,226.6,317.7,223.6,318.7z"/>
		<path class="st6" d="M147.5,318.8c-14.3,4.7-29.6,4.7-43.8,0.1c-2.9-1-5.3-4.4-5.3-7.4c0-9-0.1-18.1,0-27.2c0-3,2.4-5.4,5.5-5.5
			c14.6,0,29-0.1,43.6,0c3,0.1,5.5,2.5,5.5,5.5c0,9,0.1,18.1,0,27.2C152.7,314.4,150.4,317.8,147.5,318.8z"/>
		<path class="st6" d="M71.3,319c-14.3,4.7-29.6,4.7-43.8,0.1c-2.9-1-5.3-4.4-5.3-7.4c0-9-0.1-18.1,0-27.2c0-3,2.4-5.4,5.5-5.5
			c14.6,0,29-0.1,43.6,0c3,0.1,5.5,2.5,5.5,5.5c0,9,0.1,18.1,0,27.2C76.5,314.5,74.2,317.9,71.3,319z"/>
		<path class="st0" d="M300,378.4c-14.3,4.7-29.6,4.7-43.8,0.1c-2.9-1-5.3-4.4-5.3-7.4c0-9-0.1-18.1,0-27.2c0-3,2.4-5.4,5.5-5.5
			c14.6,0,29-0.1,43.6,0c3,0.1,5.5,2.5,5.5,5.5c0,9,0.1,18.1,0,27.2C305.2,374,302.9,377.4,300,378.4z"/>
		<path class="st0" d="M223.7,378.5c-14.3,4.7-29.6,4.7-43.8,0.1c-2.9-1-5.3-4.4-5.3-7.4c0-9-0.1-18.1,0-27.2c0-3,2.4-5.4,5.5-5.5
			c14.6,0,29-0.1,43.6,0c3,0.1,5.5,2.5,5.5,5.5c0,9,0.1,18.1,0,27.2C229,374.1,226.7,377.5,223.7,378.5z"/>
		<path class="st0" d="M147.5,378.7c-14.3,4.7-29.6,4.7-43.8,0.1c-2.9-1-5.3-4.4-5.3-7.4c0-9-0.1-18.1,0-27.2c0-3,2.4-5.4,5.5-5.5
			c14.6,0,29-0.1,43.6,0c3,0.1,5.5,2.5,5.5,5.5c0,9,0.1,18.1,0,27.2C152.8,374.3,150.5,377.6,147.5,378.7z"/>
		<path class="st0" d="M71.3,378.8c-14.3,4.7-29.6,4.7-43.8,0.1c-2.9-1-5.3-4.4-5.3-7.4c0-9-0.1-18.1,0-27.2c0-3,2.4-5.4,5.5-5.5
			c14.6,0,29-0.1,43.6,0c3,0.1,5.5,2.5,5.5,5.5c0,9,0.1,18.1,0,27.2C76.6,374.4,74.3,377.8,71.3,378.8z"/>
		<path class="st0" d="M300,438.3c-14.3,4.7-29.6,4.7-43.8,0.1c-2.9-1-5.3-4.4-5.3-7.4c0-9-0.1-18.1,0-27.2c0-3,2.4-5.4,5.5-5.5
			c14.6,0,29-0.1,43.6,0c3,0.1,5.5,2.5,5.5,5.5c0,9,0.1,18.1,0,27.2C305.3,433.8,303,437.2,300,438.3z"/>
		<path class="st0" d="M223.8,438.4c-14.3,4.7-29.6,4.7-43.8,0.1c-2.9-1-5.3-4.4-5.3-7.4c0-9-0.1-18.1,0-27.2c0-3,2.4-5.4,5.5-5.5
			c14.6,0,29-0.1,43.6,0c3,0.1,5.5,2.5,5.5,5.5c0,9,0.1,18.1,0,27.2C229.1,434,226.8,437.4,223.8,438.4z"/>
		<path class="st0" d="M147.6,438.6c-14.3,4.7-29.6,4.7-43.8,0.1c-2.9-1-5.3-4.4-5.3-7.4c0-9-0.1-18.1,0-27.2c0-3,2.4-5.4,5.5-5.5
			c14.6,0,29-0.1,43.6,0c3,0.1,5.5,2.5,5.5,5.5c0,9,0.1,18.1,0,27.2C152.9,434.1,150.6,437.5,147.6,438.6z"/>
		<path class="st0" d="M71.5,438.7c-14.3,4.7-29.6,4.7-43.8,0.1c-2.9-1-5.3-4.4-5.3-7.4c0-9-0.1-18.1,0-27.2c0-3,2.4-5.4,5.5-5.5
			c14.6,0,29-0.1,43.6,0c3,0.1,5.5,2.5,5.5,5.5c0,9,0.1,18.1,0,27.2C76.8,434.3,74.4,437.7,71.5,438.7z"/>
		<path class="st0" d="M300.3,557.9c-14.3,4.7-29.6,4.7-43.8,0.1c-2.9-1-5.3-4.4-5.3-7.4c0-9-0.1-78-0.2-87.1c0-3,2.4-5.4,5.5-5.5
			c14.6,0,29-0.1,43.6,0c3,0.1,5.5,2.5,5.5,5.5c0,9,0.1,78,0.2,87.1C305.5,553.5,303.2,557,300.3,557.9z"/>
		<path class="st0" d="M224,498.3c-14.3,4.7-29.6,4.7-43.8,0.1c-2.9-1-5.3-4.4-5.3-7.4c0-9-0.1-18.1,0-27.2c0-3,2.4-5.4,5.5-5.5
			c14.6,0,29-0.1,43.6,0c3,0.1,5.5,2.5,5.5,5.5c0,9,0.1,18.1,0,27.2C229.3,493.9,226.9,497.3,224,498.3z"/>
		<path class="st0" d="M147.8,498.3c-14.3,4.7-29.6,4.7-43.8,0.1c-2.9-1-5.3-4.4-5.3-7.4c0-9-0.1-18.1,0-27.2c0-3,2.4-5.4,5.5-5.5
			c14.6,0,29-0.1,43.6,0c3,0.1,5.5,2.5,5.5,5.5c0,9,0.1,18.1,0,27.2C153,494,150.7,497.4,147.8,498.3z"/>
		<path class="st0" d="M71.6,498.5c-14.3,4.7-29.6,4.7-43.8,0.1c-2.9-1-5.3-4.4-5.3-7.4c0-9-0.1-18.1,0-27.2c0-3,2.4-5.4,5.5-5.5
			c14.6,0,29-0.1,43.6,0c3,0.1,5.5,2.5,5.5,5.5c0,9,0.1,18.1,0,27.2C76.8,494,74.5,497.5,71.6,498.5z"/>
		<path class="st0" d="M224.1,558.1c-14.3,4.7-29.6,4.7-43.8,0.1c-2.9-1-5.3-4.4-5.3-7.4c0-9-0.1-18.1,0-27.2c0-3,2.4-5.4,5.5-5.5
			c14.6,0,29-0.1,43.6,0c3,0.1,5.5,2.5,5.5,5.5c0,9,0.1,18.1,0,27.2C229.3,553.6,227,557.1,224.1,558.1z"/>
		<path class="st0" d="M147.8,558.2c-14.3,4.7-29.6,4.7-43.8,0.1c-2.9-1-5.3-4.4-5.3-7.4c0-9-0.1-18.1,0-27.2c0-3,2.4-5.4,5.5-5.5
			c14.6,0,29-0.1,43.6,0c3,0.1,5.5,2.5,5.5,5.5c0,9,0.1,18.1,0,27.2C153.1,553.8,150.8,557.3,147.8,558.2z"/>
		<path class="st0" d="M71.7,558.4c-14.3,4.7-29.6,4.7-43.8,0.1c-2.9-1-5.3-4.4-5.3-7.4c0-9-0.1-18.1,0-27.2c0-3,2.4-5.4,5.5-5.5
			c14.6,0,29-0.1,43.6,0c3,0.1,5.5,2.5,5.5,5.5c0,9,0.1,18.1,0,27.2C77,553.9,74.6,557.4,71.7,558.4z"/>
	</g>
	<g>
		<path class="st9" d="M195,539.1l0-2.6l14,0l0,2.6L195,539.1z M195.1,544.9l0-2.6l14,0l0,2.6L195.1,544.9z"/>
		<path class="st9" d="M123.7,549.5c0-0.7,0.2-1.2,0.6-1.7c0.4-0.4,0.9-0.6,1.6-0.6s1.2,0.2,1.7,0.6c0.4,0.4,0.5,0.9,0.6,1.6
			c0,0.7-0.2,1.2-0.6,1.7s-0.9,0.6-1.6,0.6s-1.2-0.2-1.6-0.6C123.9,550.8,123.8,550.2,123.7,549.5z"/>
		<path class="st9" d="M57,540.8c0,3.7-0.6,6.4-1.8,8.2s-3,2.7-5.4,2.7c-2.3,0-4.2-0.9-5.4-2.8c-1.2-1.9-1.9-4.6-1.9-8.2
			c0-3.8,0.6-6.5,1.7-8.3c1.2-1.8,3-2.7,5.4-2.7c2.4,0,4.2,0.9,5.4,2.8C56.4,534.4,57,537.1,57,540.8z M45.9,540.8
			c0,2.9,0.3,5,0.9,6.3c0.6,1.3,1.5,1.8,2.9,1.9c1.3,0,2.3-0.6,2.9-1.9c0.6-1.2,1-3.4,0.9-6.2c0-2.8-0.3-4.9-0.9-6.3
			c-0.6-1.3-1.5-1.9-2.9-1.9c-1.3,0-2.3,0.6-2.9,1.9C46.2,535.8,46,537.9,45.9,540.8z"/>
		<path class="st9" d="M276.9,509.2l-5.9,0l0-2.6l5.9,0l0-5.9l2.6,0l0,5.9l5.9,0l0,2.6l-5.9,0l0,5.9l-2.6,0L276.9,509.2z"/>
		<path class="st9" d="M208.4,474.9c0,1.3-0.4,2.4-1.2,3.4c-0.8,0.9-1.9,1.5-3.3,1.8l0,0.1c1.7,0.2,3,0.7,3.8,1.6
			c0.9,0.9,1.3,2,1.3,3.4c0,2.1-0.7,3.6-2.2,4.8c-1.4,1.1-3.5,1.7-6.2,1.7c-2.3,0-4.4-0.4-6-1.1l0-3.1c0.9,0.5,1.9,0.8,2.8,1
			c1,0.2,1.9,0.4,2.9,0.4c1.7,0,2.9-0.3,3.7-0.9c0.9-0.6,1.2-1.6,1.2-2.8c0-1.2-0.4-2-1.4-2.5c-0.9-0.6-2.3-0.8-4.3-0.8l-1.8,0
			l0-2.8l1.9,0c3.4,0,5.1-1.2,5.1-3.5c0-0.9-0.3-1.6-0.9-2.2c-0.6-0.5-1.5-0.7-2.6-0.8c-0.8,0-1.6,0.1-2.3,0.4
			c-0.8,0.2-1.6,0.7-2.6,1.3l-1.7-2.4c2-1.4,4.2-2.2,6.8-2.2c2.2,0,3.9,0.4,5,1.4C207.8,472,208.4,473.3,208.4,474.9z"/>
		<path class="st9" d="M133.1,491.4l-14.5,0l0-2.6l5.5-5.6c1.6-1.7,2.7-2.8,3.2-3.6c0.5-0.7,0.9-1.4,1.2-2c0.3-0.6,0.4-1.3,0.4-1.9
			c0-1-0.3-1.7-0.9-2.3s-1.4-0.8-2.4-0.8c-0.8,0-1.6,0.2-2.4,0.5s-1.6,0.8-2.7,1.7l-1.9-2.3c1.2-1,2.4-1.7,3.4-2.1
			c1.2-0.4,2.3-0.6,3.6-0.6c2,0,3.6,0.5,4.8,1.5s1.8,2.5,1.8,4.2c0,1-0.1,1.9-0.5,2.8c-0.3,0.9-0.9,1.8-1.6,2.7
			c-0.7,0.9-1.9,2.2-3.6,3.8l-3.7,3.6l0,0.2l10.1,0L133.1,491.4z"/>
		<path class="st9" d="M52.5,491.6l-3.4,0l0-13.8c0-1.7,0-2.9,0.1-3.9c-0.2,0.2-0.5,0.5-0.8,0.8c-0.3,0.3-1.4,1.2-3.3,2.7l-1.7-2.2
			l6.3-4.9l2.8,0L52.5,491.6z"/>
		<path class="st9" d="M274.3,422.1l0-2.9l7.5,0l0,2.9L274.3,422.1z"/>
		<path class="st9" d="M194.7,422.3c0-8.4,3.4-12.5,10.2-12.6c1.1,0,2,0.1,2.7,0.3l0,2.8c-0.7-0.2-1.6-0.3-2.5-0.3
			c-2.3,0-4,0.6-5.1,1.9c-1.1,1.2-1.8,3.2-1.9,5.9l0.2,0c0.5-0.8,1.1-1.4,2-1.9c0.8-0.5,1.8-0.6,2.9-0.6c1.9,0,3.4,0.5,4.6,1.8
			c1.1,1.2,1.7,2.8,1.7,4.9c0,2.3-0.6,4-1.8,5.3s-3,2-5.2,1.9c-1.5,0-2.9-0.4-4-1.1c-1.1-0.8-2-1.8-2.6-3.2
			C195,426.1,194.7,424.4,194.7,422.3z M202.2,429c1.2,0,2.1-0.4,2.7-1.2c0.6-0.7,1-1.9,0.9-3.3c0-1.2-0.3-2.2-0.9-2.9
			c-0.6-0.7-1.5-1.1-2.7-1c-0.7,0-1.5,0.2-2.1,0.5c-0.6,0.3-1.1,0.7-1.5,1.3c-0.3,0.5-0.5,1.1-0.5,1.7c0,1.3,0.3,2.6,1.1,3.4
			C200.1,428.5,201,428.9,202.2,429z"/>
		<path class="st9" d="M125.7,418.3c2.2,0,3.8,0.5,5.1,1.7c1.2,1.1,1.9,2.7,1.9,4.6c0,2.3-0.7,4.1-2.1,5.4c-1.5,1.3-3.5,2-6.1,2
			c-2.4,0-4.3-0.3-5.6-1.1l0-3.1c0.8,0.5,1.7,0.8,2.7,1c1,0.2,1.9,0.4,2.9,0.4c1.6,0,2.7-0.3,3.5-1s1.2-1.7,1.2-3.1
			c0-2.6-1.6-3.9-4.9-3.8c-0.4,0-1,0.1-1.7,0.1s-1.3,0.2-1.8,0.3l-1.5-0.9l0.8-10.4l11.1,0l0,3.1l-8.1,0l-0.5,5.3
			c0.3,0,0.8-0.1,1.3-0.2C124.4,418.3,125,418.3,125.7,418.3z"/>
		<path class="st9" d="M57.5,427l-2.9,0.1l0,4.7l-3.3,0l0-4.7l-9.8,0l0-2.7l9.8-14.2l3.3,0l0.1,13.9l2.9-0.1L57.5,427z M51.3,424.2
			l0-5.3c0-1.9,0.1-3.5,0.2-4.7l-0.1,0c-0.3,0.6-0.7,1.4-1.3,2.3l-5.3,7.7L51.3,424.2z"/>
		<path class="st9" d="M275.8,360.5l-5.4-7.9l3.9,0l3.7,5.7l3.7-5.7l3.8,0l-5.4,7.9l5.7,8.3l-3.8,0l-4-6.1l-4,6.1l-3.8,0
			L275.8,360.5z"/>
		<path class="st9" d="M209,359.3c0,4.2-0.8,7.4-2.5,9.5s-4.3,3.1-7.7,3.1c-1.3,0-2.2-0.1-2.8-0.2l-0.1-2.9c0.9,0.2,1.8,0.4,2.6,0.3
			c2.3,0,4-0.6,5.1-1.9c1.1-1.2,1.8-3.2,1.9-5.9l-0.2,0c-0.6,0.9-1.2,1.5-2.1,1.9c-0.8,0.4-1.8,0.6-2.8,0.6c-1.9,0-3.4-0.6-4.5-1.8
			c-1.1-1.2-1.7-2.8-1.7-4.9c0-2.3,0.6-4,1.8-5.3c1.2-1.3,3-2,5.1-2c1.5,0,2.9,0.4,4,1.1c1.1,0.8,2,1.8,2.6,3.3
			C208.7,355.7,209,357.4,209,359.3z M201.5,352.8c-1.2,0-2.1,0.4-2.7,1.2c-0.6,0.7-1,1.9-0.9,3.3c0,1.2,0.3,2.1,0.9,2.9
			c0.6,0.7,1.5,1.1,2.7,1c1.2,0,2.1-0.3,2.9-1s1.2-1.5,1.1-2.4c0-0.8-0.1-1.7-0.5-2.4c-0.3-0.7-0.8-1.4-1.4-1.8
			C203,353,202.3,352.8,201.5,352.8z"/>
		<path class="st9" d="M125.5,350.1c2,0,3.6,0.5,4.8,1.3c1.2,0.9,1.7,2.2,1.8,3.7c0,2.2-1.3,4-3.9,5.2c1.7,0.9,2.9,1.7,3.6,2.7
			c0.7,0.9,1,1.9,1.1,3.1c0,1.8-0.7,3.2-1.9,4.2c-1.3,1.1-3,1.6-5.3,1.6c-2.3,0-4.1-0.5-5.4-1.4c-1.3-1-1.9-2.4-1.9-4.2
			c0-1.2,0.4-2.3,1-3.2c0.7-1,1.8-1.8,3.3-2.6c-1.3-0.8-2.3-1.6-2.8-2.4c-0.5-0.8-0.8-1.8-0.9-2.9c0-1.6,0.6-2.7,1.8-3.7
			C122,350.6,123.6,350.1,125.5,350.1z M121.6,366.2c0,1,0.4,1.8,1.1,2.3c0.8,0.5,1.7,0.9,2.9,0.8c1.2,0,2.2-0.3,2.9-0.9
			c0.7-0.6,1-1.3,1-2.3c0-0.8-0.4-1.5-1-2.2c-0.6-0.7-1.6-1.3-2.9-1.8l-0.4-0.1c-1.3,0.6-2.2,1.2-2.8,1.9
			C121.9,364.6,121.6,365.3,121.6,366.2z M125.5,352.7c-1,0-1.8,0.2-2.4,0.7c-0.6,0.5-0.8,1.1-0.9,1.9c0,0.5,0.1,0.9,0.3,1.4
			c0.2,0.4,0.5,0.8,0.9,1.1c0.5,0.3,1.1,0.7,2.1,1.2c1.2-0.5,2-1.1,2.4-1.6c0.5-0.6,0.7-1.2,0.7-2c0-0.8-0.3-1.5-0.9-2
			C127.3,353,126.5,352.8,125.5,352.7z"/>
		<path class="st9" d="M44.6,371.9l8.4-18.3l-11.1,0l0-3l14.8,0l0,2.4l-8.4,19L44.6,371.9z"/>
		<path class="st9" d="M270.7,302.4l0-2.6l14.3,0l0,2.6L270.7,302.4z M276,295.9c0-0.6,0.2-1.1,0.5-1.4c0.3-0.4,0.8-0.5,1.4-0.5
			c0.6,0,1.1,0.2,1.3,0.5c0.3,0.4,0.5,0.8,0.4,1.4c0,0.6-0.2,1.1-0.5,1.4s-0.8,0.5-1.3,0.5c-0.6,0-1.1-0.2-1.3-0.5
			C276.1,297.1,276,296.6,276,295.9z M276,306.2c0-0.6,0.2-1.1,0.5-1.4c0.3-0.4,0.8-0.5,1.4-0.5c0.6,0,1.1,0.2,1.3,0.5
			c0.3,0.4,0.5,0.8,0.4,1.4c0,0.6-0.2,1.1-0.5,1.4s-0.8,0.5-1.3,0.5c-0.6,0-1.1-0.2-1.3-0.5C276.2,307.3,276,306.8,276,306.2z"/>
		<path class="st9" d="M199.4,296.8c0,2.3-0.4,4-1.2,5.1c-0.8,1.1-2,1.7-3.5,1.7c-1.5,0-2.7-0.6-3.4-1.7c-0.8-1.1-1.2-2.8-1.2-5
			c0-4.4,1.6-6.7,4.7-6.7c1.5,0,2.7,0.6,3.6,1.7C199,293,199.4,294.6,199.4,296.8z M192.8,296.8c0,1.4,0.2,2.5,0.4,3.2
			c0.3,0.7,0.8,1,1.4,1.1c1.2,0,1.9-1.5,1.9-4.3c-0.1-2.9-0.7-4.3-1.9-4.3c-0.7,0-1.1,0.3-1.4,1C193,294.3,192.8,295.3,192.8,296.8z
			 M209,290.4l-11.8,21.4l-2.8,0l11.8-21.4L209,290.4z M213.3,305.3c0,2.3-0.4,4-1.2,5.1c-0.8,1.1-2,1.7-3.5,1.7
			c-1.5,0-2.7-0.6-3.5-1.7c-0.8-1.1-1.2-2.8-1.2-5c0-4.4,1.6-6.7,4.7-6.7c1.5,0,2.7,0.6,3.5,1.7
			C212.9,301.5,213.3,303.2,213.3,305.3z M206.8,305.3c0,1.4,0.2,2.5,0.4,3.2c0.3,0.7,0.8,1,1.4,1.1c1.2,0,1.9-1.5,1.9-4.4
			c0-2.8-0.7-4.3-1.9-4.3c-0.7,0-1.1,0.3-1.4,1C206.9,302.8,206.8,303.9,206.8,305.3z"/>
		<path class="st9" d="M119.5,293.2c-2,0-3.6,0.7-4.8,2.2c-1.1,1.4-1.7,3.4-1.7,5.9c0,2.6,0.5,4.6,1.6,5.9c1.1,1.3,2.7,2,4.8,2
			c0.9,0,1.8-0.1,2.6-0.3c0.9-0.2,1.7-0.4,2.6-0.7l0,3c-1.7,0.7-3.6,0.9-5.7,0.9c-3.1,0-5.5-1-7.2-2.8c-1.7-1.9-2.5-4.6-2.6-8.1
			c0-2.3,0.4-4.2,1.2-5.8c0.8-1.6,2-2.9,3.5-3.9c1.6-0.9,3.3-1.3,5.4-1.3c2.2,0,4.2,0.4,6.1,1.4l-1.2,2.9c-0.7-0.4-1.5-0.7-2.3-0.9
			C121.2,293.3,120.4,293.2,119.5,293.2z"/>
		<path class="st9" d="M141.5,311.9l-12.1,0l0-21.4l12.1,0l0,2.9l-8.6,0l0,5.9l8,0l0,2.9l-8,0l0,6.7l8.6,0L141.5,311.9z"/>
		<path class="st9" d="M46,312l-2.2-5.9l-8.2,0l-2.1,5.9l-3.7,0l7.9-21.5l3.8,0l8.1,21.4L46,312z M42.9,303.1l-2-5.8
			c-0.1-0.4-0.3-1-0.6-1.9c-0.3-0.9-0.4-1.5-0.5-1.8c-0.3,1.2-0.6,2.5-1.1,3.9l-1.9,5.6L42.9,303.1z"/>
		<path class="st9" d="M61.6,293.3c-2,0-3.6,0.7-4.8,2.2c-1.1,1.4-1.7,3.4-1.7,5.9c0,2.6,0.5,4.6,1.6,5.9s2.7,2,4.8,2
			c0.9,0,1.8-0.1,2.6-0.3c0.9-0.2,1.7-0.4,2.6-0.7l0,3c-1.7,0.7-3.6,0.9-5.7,0.9c-3.1,0-5.5-1-7.2-2.8c-1.7-1.9-2.5-4.6-2.6-8.1
			c0-2.3,0.4-4.2,1.2-5.8c0.8-1.6,2-2.9,3.5-3.9s3.3-1.3,5.4-1.3c2.2,0,4.2,0.4,6.1,1.4l-1.2,2.9c-0.7-0.4-1.5-0.7-2.3-0.9
			C63.4,293.5,62.5,293.3,61.6,293.3z"/>
	</g>
</g>
</svg>
