<?xml version="1.0" encoding="utf-8"?>
<!-- Generator: Adobe Illustrator 27.7.0, SVG Export Plug-In . SVG Version: 6.00 Build 0)  -->
<svg version="1.1" id="Layer_1" xmlns="http://www.w3.org/2000/svg" xmlns:xlink="http://www.w3.org/1999/xlink" x="0px" y="0px"
	 viewBox="0 0 1200 800" style="enable-background:new 0 0 1200 800;" xml:space="preserve">
<style type="text/css">
	.st0{opacity:0.3;}
	.st1{fill:#F7F8FC;}
	.st2{fill:#E1E2E3;}
	.st3{fill:none;stroke:#E1E2E3;stroke-miterlimit:10;}
	.st4{clip-path:url(#SVGID_00000109723710691690402990000013314766171098021810_);}
	.st5{opacity:0.8;clip-path:url(#SVGID_00000128472455444667202130000002991099836367753882_);}
	.st6{clip-path:url(#SVGID_00000045578842159063181940000006469017008820046477_);fill:#D0E4C9;}
	.st7{clip-path:url(#SVGID_00000128472455444667202130000002991099836367753882_);fill:#41AD49;}
	.st8{fill:#F9C647;}
	.st9{opacity:0.8;fill:#FFFFFF;}
	.st10{fill:#343E44;}
	.st11{fill:#58ABDF;}
	.st12{opacity:0.8;fill:#DEE9F7;}
	.st13{fill:#2A7CB6;}
	.st14{fill:#FFCB63;}
</style>
<path class="st0" d="M1139.9,787.3c0,6.5-5.3,11.7-11.7,11.7l-918.6,0c-6.5,0-11.7-5.3-11.7-11.7l0-367.6c0-6.5,5.3-11.7,11.7-11.7
	l918.6,0c6.5,0,11.7,5.2,11.7,11.7L1139.9,787.3z"/>
<path class="st1" d="M1119,766.4c0,6.5-5.3,11.7-11.7,11.7l-918.6,0c-6.5,0-11.7-5.3-11.7-11.7l0-367.6c0-6.5,5.3-11.7,11.7-11.7
	l918.6,0c6.5,0,11.7,5.2,11.7,11.7L1119,766.4z"/>
<g>
	<rect x="201.4" y="531.3" class="st2" width="105.2" height="11.9"/>
	<rect x="901.8" y="606.1" class="st2" width="105.2" height="11.9"/>
	<rect x="901.8" y="509.5" class="st3" width="133.8" height="33.8"/>
	<rect x="348.6" y="540.8" class="st2" width="533.3" height="2.5"/>
	<rect x="793.8" y="438" class="st2" width="105.2" height="8.7"/>
	<rect x="922.4" y="444.2" class="st2" width="113.2" height="2.5"/>
	<rect x="201.4" y="724.4" class="st2" width="105.2" height="8.7"/>
	<rect x="330" y="730.6" class="st2" width="296.1" height="2.5"/>
	<rect x="739.5" y="730.6" class="st2" width="296.1" height="2.5"/>
	<rect x="201.4" y="615.6" class="st2" width="680.6" height="2.5"/>
</g>
<g>
	<defs>
		<rect id="SVGID_1_" x="818" y="-0.8" width="382.4" height="311"/>
	</defs>
	<clipPath id="SVGID_00000006675400060091854270000001946424510898752167_">
		<use xlink:href="#SVGID_1_"  style="overflow:visible;"/>
	</clipPath>
	<g style="clip-path:url(#SVGID_00000006675400060091854270000001946424510898752167_);">
		<defs>
			<rect id="SVGID_00000036966321925445402480000002044757486246264734_" x="818" y="-0.8" width="382.4" height="311"/>
		</defs>
		<clipPath id="SVGID_00000179645387049374492140000009405625815950863283_">
			<use xlink:href="#SVGID_00000036966321925445402480000002044757486246264734_"  style="overflow:visible;"/>
		</clipPath>
		<g style="opacity:0.8;clip-path:url(#SVGID_00000179645387049374492140000009405625815950863283_);">
			<g>
				<defs>
					<rect id="SVGID_00000076604019221579222860000015690818537869391758_" x="802.9" y="25" width="303.5" height="286.8"/>
				</defs>
				<clipPath id="SVGID_00000063619379961380263800000010389222766038354823_">
					<use xlink:href="#SVGID_00000076604019221579222860000015690818537869391758_"  style="overflow:visible;"/>
				</clipPath>
				<path style="clip-path:url(#SVGID_00000063619379961380263800000010389222766038354823_);fill:#D0E4C9;" d="M954.7,310.1
					c75.5,0,136.7-61.2,136.7-136.7S1030.2,36.8,954.7,36.8S818,98,818,173.4S879.2,310.1,954.7,310.1"/>
			</g>
		</g>
		<path style="clip-path:url(#SVGID_00000179645387049374492140000009405625815950863283_);fill:#41AD49;" d="M863,157.1
			c16.9,13.6,51.3,46.3,79.9,104.7c6.7,13.7,26,14.4,33.7,1.3c34.5-59,114.7-181.2,220.2-249.8c7.7-5,1.7-16.8-6.9-13.6
			c-25.1,9.6-56,25-89.3,49.6c-43.6,32.2-86.6,63.3-135.2,132c0,0-32.3-71.5-80.3-70.5c-10.5,0.2-24.2,3.6-29.8,20.3
			C852.1,140.5,855.3,150.9,863,157.1"/>
	</g>
</g>
<g>
	<path class="st0" d="M457.1,447.7c7.5,0,13.6-6.1,13.6-13.6l0-66.8l69.2,0c7.5,0,13.6-6.1,13.6-13.6l0-229.8
		c0-7.5-6.1-13.6-13.6-13.6l-424.8,0c-7.5,0-13.6,6.1-13.6,13.6l0,66.8l-69.2,0c-7.5,0-13.6,6.1-13.6,13.6l0,229.8
		c0,7.5,6.1,13.6,13.6,13.6L457.1,447.7z"/>
	<g>
		<path class="st8" d="M452,418c0,7.5-6.1,13.6-13.6,13.6l-424.8,0c-7.5,0-13.6-6.1-13.6-13.6l0-229.8c0-7.5,6.1-13.6,13.6-13.6
			l424.8,0c7.5,0,13.6,6.1,13.6,13.6L452,418z"/>
		<rect x="27.1" y="303.2" class="st9" width="187.7" height="35.6"/>
		<rect x="0" y="226.6" class="st10" width="452" height="60.7"/>
		<path class="st11" d="M534.8,337.6c0,7.5-6.1,13.6-13.6,13.6l-424.8,0c-7.5,0-13.6-6.1-13.6-13.6l0-229.8
			c0-7.5,6.1-13.6,13.6-13.6l424.8,0c7.5,0,13.6,6.1,13.6,13.6L534.8,337.6z"/>
		<rect x="343.4" y="124" class="st12" width="166.9" height="33.9"/>
		<rect x="402.3" y="281.5" class="st12" width="102" height="37.3"/>
		<rect x="426.9" y="233.6" class="st13" width="77.5" height="21.6"/>
		<rect x="324.9" y="233.6" class="st13" width="77.5" height="21.6"/>
		<rect x="220.3" y="233.6" class="st13" width="77.5" height="21.6"/>
		<rect x="116.4" y="233.6" class="st13" width="77.5" height="21.6"/>
		<rect x="116.4" y="287.3" class="st13" width="147.9" height="21.6"/>
		<g>
			<path class="st8" d="M174.9,181.8c0,6.6-4.5,11.9-10.1,11.9l-37.2,0c-5.6,0-10.1-5.3-10.1-11.9l0-23.8c0-6.6,4.5-11.9,10.1-11.9
				l37.2,0c5.6,0,10.1,5.3,10.1,11.9V181.8z"/>
			<g>
				<path class="st14" d="M117.6,157.9l0,23.8c0,3.6,1.4,6.9,3.6,9l0-41.9C119,151.1,117.6,154.3,117.6,157.9z"/>
				<path class="st10" d="M121.2,148.9l0,41.9c0.3,0.3,0.6,0.6,0.9,0.8l0-43.6C121.7,148.3,121.5,148.6,121.2,148.9z"/>
			</g>
			<g>
				<path class="st14" d="M170.7,148.4v42.9c2.5-2.2,4.1-5.6,4.1-9.6v-23.8C174.9,154,173.2,150.6,170.7,148.4z"/>
				<path class="st10" d="M169.9,147.7l0,44.2c0.3-0.2,0.6-0.4,0.9-0.7v-42.9C170.5,148.1,170.2,147.9,169.9,147.7z"/>
			</g>
			<rect x="117.6" y="156.1" class="st10" width="57.3" height="0.9"/>
			<rect x="136.4" y="151.8" class="st10" width="18.7" height="0.9"/>
			<rect x="136.4" y="187" class="st10" width="18.7" height="0.9"/>
			<rect x="117.6" y="165.5" class="st10" width="57.3" height="0.9"/>
			<rect x="136.4" y="151.8" class="st10" width="0.9" height="36.1"/>
			<rect x="154.2" y="151.8" class="st10" width="0.9" height="36.1"/>
			<rect x="117.6" y="173.2" class="st10" width="57.3" height="0.9"/>
			<rect x="117.6" y="182" class="st10" width="57.3" height="0.9"/>
			<rect x="137.3" y="152.7" class="st14" width="16.9" height="34.3"/>
		</g>
	</g>
</g>
</svg>
