<?xml version="1.0" encoding="utf-8"?>
<!-- Generator: Adobe Illustrator 27.7.0, SVG Export Plug-In . SVG Version: 6.00 Build 0)  -->
<svg version="1.1" id="Layer_1" xmlns="http://www.w3.org/2000/svg" xmlns:xlink="http://www.w3.org/1999/xlink" x="0px" y="0px"
	 viewBox="0 0 1200 931.5" style="enable-background:new 0 0 1200 931.5;" xml:space="preserve">
<style type="text/css">
	.st0{fill-rule:evenodd;clip-rule:evenodd;fill:#FFAD87;}
	
		.st1{clip-path:url(#SVGID_00000173145205189850421670000007742829678758352046_);fill-rule:evenodd;clip-rule:evenodd;fill:#F69764;}
	.st2{fill-rule:evenodd;clip-rule:evenodd;fill:#F9FCFF;}
	
		.st3{clip-path:url(#SVGID_00000176752622806789343120000002291800403167496585_);fill-rule:evenodd;clip-rule:evenodd;fill:#58ABDF;}
	
		.st4{clip-path:url(#SVGID_00000176752622806789343120000002291800403167496585_);fill-rule:evenodd;clip-rule:evenodd;fill:#27316D;}
	.st5{fill-rule:evenodd;clip-rule:evenodd;fill:#343E44;}
	.st6{fill-rule:evenodd;clip-rule:evenodd;fill:#27316D;}
	.st7{fill-rule:evenodd;clip-rule:evenodd;fill:#58ABDF;}
	.st8{fill:#58ABDF;}
	.st9{fill-rule:evenodd;clip-rule:evenodd;fill:#82C0E7;}
	
		.st10{clip-path:url(#SVGID_00000018196345163858822260000016367087508152093855_);fill-rule:evenodd;clip-rule:evenodd;fill:#82C0E7;}
	
		.st11{clip-path:url(#SVGID_00000018196345163858822260000016367087508152093855_);fill-rule:evenodd;clip-rule:evenodd;fill:#58ABDF;}
	.st12{fill-rule:evenodd;clip-rule:evenodd;fill:#F9C647;}
	.st13{fill-rule:evenodd;clip-rule:evenodd;fill:#FBD774;}
	.st14{fill-rule:evenodd;clip-rule:evenodd;fill:#ABD5EF;}
	.st15{fill:#27316D;}
	.st16{fill-rule:evenodd;clip-rule:evenodd;fill:#FFFFFF;}
	.st17{fill-rule:evenodd;clip-rule:evenodd;fill:#C1C1C1;}
</style>
<g>
	<g>
		<path class="st0" d="M508.3,410.5c0,0,13.4-12.1,28.9-31c9.2-11.3,20.2-25.6,19.7-51.9l68.1-1.1c0,0,4.6,31.6,19.9,51.1
			c7.8,10,12.5,15.7,25.2,21l-74.6,103.8L508.3,410.5L508.3,410.5z"/>
	</g>
	<g>
		<defs>
			<path id="SVGID_1_" d="M508.3,410.5c0,0,13.4-12.1,28.9-31c9.2-11.3,20.2-25.6,19.7-51.9l68.1-1.1c0,0,4.6,31.6,19.9,51.1
				c7.8,10,12.5,15.7,25.2,21l-74.6,103.8L508.3,410.5L508.3,410.5z"/>
		</defs>
		<clipPath id="SVGID_00000046309661704875255960000016903959499305797298_">
			<use xlink:href="#SVGID_1_"  style="overflow:visible;"/>
		</clipPath>
		
			<path style="clip-path:url(#SVGID_00000046309661704875255960000016903959499305797298_);fill-rule:evenodd;clip-rule:evenodd;fill:#F69764;" d="
			M526.2,371.4c0,0,102,25.4,151.2-15.7L666.5,299l-136.9,1.9L526.2,371.4L526.2,371.4z"/>
	</g>
	<g>
		<path class="st2" d="M370.7,909.4c-10.5-3.3,7.1-150.8,7.4-179.6c0.7-85.9,3-185.3,18.9-217.3c28.4-57.5,72.9-74.3,110.2-109.4
			c6.3-5.9,16.3-23,21.5-16.3c26.7,34.4,49.7,63.7,65.5,69.1c2.6,0.9,15.2-10.9,21.8-19.9c8.8-12.1,23.7-26.9,37.5-49.9
			c8.5-14.2,33.3,33.2,54.4,45.2c53.6,30.5,55.4,22.3,100.2,66.7c17.2,17,11.9,42.1,13.9,88.6c2,44,13.2,305.3,2.2,317
			C790.7,938.8,466.6,939.1,370.7,909.4L370.7,909.4z"/>
	</g>
	<g>
		<defs>
			<path id="SVGID_00000083799477941533094180000004191128832156051606_" d="M370.7,909.4c-10.5-3.3,7.1-150.8,7.4-179.6
				c0.7-85.9,3-185.3,18.9-217.3c28.4-57.5,72.9-74.3,110.2-109.4c6.3-5.9,16.3-23,21.5-16.3c26.7,34.4,49.7,63.7,65.5,69.1
				c2.6,0.9,15.2-10.9,21.8-19.9c8.8-12.1,23.7-26.9,37.5-49.9c8.5-14.2,33.3,20.8,54.4,32.9c53.6,30.5,55.4,34.7,100.2,79
				c17.2,17,11.9,42.1,13.9,88.6c2,44,17.7,312.8,2.2,317C764.8,919.7,489.8,917.8,370.7,909.4L370.7,909.4z"/>
		</defs>
		<clipPath id="SVGID_00000130611676426040753880000016419505642585217187_">
			<use xlink:href="#SVGID_00000083799477941533094180000004191128832156051606_"  style="overflow:visible;"/>
		</clipPath>
		
			<path style="clip-path:url(#SVGID_00000130611676426040753880000016419505642585217187_);fill-rule:evenodd;clip-rule:evenodd;fill:#58ABDF;" d="
			M482,396.8l31.1,102.7l54-38.7l16.1,9.9c6.1,3.8,13.9,4,20.2,0.5l24-13.3l42.6,37.5c0,0,30.7-100.6,30.6-100.6
			s-110.1-33.8-110.1-33.8L482,396.8L482,396.8z"/>
		
			<path style="clip-path:url(#SVGID_00000130611676426040753880000016419505642585217187_);fill-rule:evenodd;clip-rule:evenodd;fill:#27316D;" d="
			M570,469c0,0,0.1,22.5,15.1,38.2l-42,506.1l53.5,55.8l45.9-57.6c0,0-33.6-505.3-35.6-505.7c-2-0.4,13.5-21.4,10.7-35.9l9.9-12l0,0
			l-17.5,6.4l-27.8,0.5l-15-4l0,0L570,469z"/>
	</g>
	<path class="st0" d="M511.5,329c-18.5-26.5-29.6-65.6-37.7-110.8c-8.9-49.9-14.1-85.6,4.9-132.8c24.8-61.3,122-80.9,179.8-44.9
		C678.2,52.8,693,71,702.7,91c12.9,26.5,15,72,5.6,120.5c-7.2,36.9-22.3,87.5-31,105.7c-10.9,22.7-22.1,36.3-52.4,48.2
		c-17.5,6.9-38.2,7.6-61.6,0.2C542.7,359.2,523.1,345.6,511.5,329L511.5,329z"/>
	<path class="st5" d="M638.3,125.9c-19.4,5.7-29.8,10.7-48.9,10.8c-25.1,0.2-69.1-21.3-91.7,3.5c-28.4,31.2-13.1,128.6-20.1,119.4
		c-18.5-24.3-21.5-94.7-20.1-119.3C463.5,36.9,568.3-4.1,653.9,34.5c48,21.6,63.1,61,63.5,115.1c0.1,18.1-0.1,62-5.4,79.1
		c-6.9,22-15.2,35.8-15,31c1.4-32.5,6.8-53.8,0.5-89.4C691.3,135.6,666.1,117.7,638.3,125.9L638.3,125.9z"/>
	<path class="st5" d="M680.2,68.2c-25.6-82.3-140.1-91-188.7-30.2c-13.2,16.5-24.8,34.5-42.9,45.1c-0.6,0.4-6.8,3.1-6.9,3.6
		c-0.1,1.1,1.9,3.9,2.4,4.7c34.3,60.3,99.3,19.7,145.1,8.3C616.7,92.9,661.2,95.2,680.2,68.2L680.2,68.2z"/>
	<path class="st5" d="M652,31.4c0,0,45.8-11.7,57.7,30.8c6.5,22.9,13.4,44.7-2.3,99.1L652,31.4L652,31.4z"/>
	<path class="st6" d="M458.2,914.7c3.4-57.4,1.3,49-0.3-8.4c-2.6-94.3,9-145,21.5-234.7c8.2-58.5,11-117.7,17.1-176.4
		c2-19.6,10.2-90.8,7.2-90.4c-24.5,2.8-45,32.9-63.3,46.2c-47,34.2-115.9,41.7-136.4,103.1c-33.5,100.2-41,206.6-40.3,314.1
		c0.1,18.6,20.3,38.7,44.8,41.2c11.1,1.1,50-2.7,50.6,0c2.9,12.1-21.2-60.7-38.8,7.4"/>
	<path class="st6" d="M736.1,914.7c-3.4-57.4-1.3,49,0.3-8.4c2.6-94.3-9-145-21.5-234.7c-8.2-58.5-11-117.7-17.1-176.4
		c-2-19.6-10.2-90.8-7.2-90.4c24.5,2.8,45,32.9,63.3,46.2c47,34.2,126.5,53.5,142.7,97.3c18,48.6,21,85.3,26.5,130.7
		c9.8,81.3,24.1,186.9-2,230c-18.2,30-85.3-2.3-86,0.4c-2.9,12.1,21.2-60.7,38.8,7.4"/>
	<path class="st7" d="M480.3,190.1c0,0-0.9,14.7,2,41.8c2.4,22,7.3,41,6.1,41.1c-32.2,4.6-44.6-12.7-47.1-39.4
		C436.7,183.2,480.3,190.1,480.3,190.1L480.3,190.1z"/>
	<path class="st7" d="M699.9,189.1c0,0,1.1,14.7-1.4,41.8c-2,22-6.7,41.1-5.5,41.2c32.3,4.1,44.5-13.4,46.5-40.2
		C743.4,181.6,699.9,189.1,699.9,189.1L699.9,189.1z"/>
	<path class="st7" d="M471,202c-2-10.5-5-29.7-0.7-53c3-16.6,15.8-41.3,24.7-52.1c16.4-20,38.5-32.1,68.8-38.2
		c18-3.7,50-5.5,78.6,8.2c14.7,7.1,31.1,22.7,39.8,34.8c10.3,14.2,19.3,31.4,22.6,52.1c2.4,15.5,1.9,29.4,1.3,47.5l12,0.7
		c0.7-12.4,3.4-29.1-1-52.1c-3.6-19.1-12.4-38.5-25.3-57.1c-17.5-25.2-45.4-44.5-78.4-49c-27.4-3.8-76.7-6.2-118.1,34.4
		c-15.4,15-30,37.7-37.1,68.9c-3.6,15.7-1.3,35.6,0.4,53.9L471,202L471,202z"/>
	<path class="st8" d="M579,333.1C579,333.1,579,333.1,579,333.1c-18.8-0.4-35.5-4-49.8-10.5c-11.5-5.3-21.4-12.5-29.6-21.4
		c-13.9-15.3-17.5-30.2-17.7-30.8c-0.4-1.6,0.6-3.1,2.2-3.5c1.6-0.4,3.1,0.6,3.5,2.2c0,0.1,0.9,3.7,3.4,8.9
		c2.3,4.9,6.4,12.2,13.2,19.6c7.6,8.3,16.9,15,27.6,19.9c13.5,6.1,29.4,9.5,47.2,9.9c1.6,0,2.9,1.4,2.9,3
		C581.9,331.8,580.6,333.1,579,333.1z"/>
	<path class="st9" d="M586.8,320.6c9.4-0.2,17.2,3.9,17.3,9.1c0.1,5.2-7.4,9.7-16.9,9.9c-9.4,0.2-17.2-3.9-17.3-9.1
		C569.8,325.2,577.4,320.8,586.8,320.6L586.8,320.6z"/>
	<polygon class="st7" points="839.4,564.3 367.8,564.3 367.8,878 839.4,878 839.4,564.3 	"/>
	<g>
		<defs>
			<polygon id="SVGID_00000021803873056613123980000012202771703878592388_" points="839.4,564.3 367.8,564.3 367.8,878 839.4,878 
				839.4,564.3 			"/>
		</defs>
		<clipPath id="SVGID_00000137824670092986905550000007333129029781551795_">
			<use xlink:href="#SVGID_00000021803873056613123980000012202771703878592388_"  style="overflow:visible;"/>
		</clipPath>
		
			<polygon style="clip-path:url(#SVGID_00000137824670092986905550000007333129029781551795_);fill-rule:evenodd;clip-rule:evenodd;fill:#82C0E7;" points="
			894.6,836.7 318.5,836.7 318.5,931.5 894.6,931.5 894.6,836.7 		"/>
		
			<polygon style="clip-path:url(#SVGID_00000137824670092986905550000007333129029781551795_);fill-rule:evenodd;clip-rule:evenodd;fill:#58ABDF;" points="
			889.5,860.6 313.4,860.6 313.4,955.4 889.5,955.4 889.5,860.6 		"/>
	</g>
	<path class="st9" d="M603.1,665.2c22.6,0,41,15,41,33.4s-18.4,33.4-41,33.4c-22.6,0-41-15-41-33.4S580.5,665.2,603.1,665.2
		L603.1,665.2z"/>
	<polygon class="st5" points="1149.6,878 56,878 56,931.5 1149.6,931.5 1149.6,878 	"/>
	<path class="st12" d="M112.2,766.3c-5,0-9.9,2-13.4,5.6c-3.6,3.6-5.6,8.4-5.6,13.4c0,13.9,0,32.7,0,46.6c0,5,2,9.9,5.6,13.4
		c3.6,3.6,8.4,5.6,13.4,5.6c22.1,0,55.5,0,55.5,0v-84.6C167.7,766.3,134.2,766.3,112.2,766.3z M151.1,837.1
		C151.1,837.1,151.1,837.2,151.1,837.1l-36.3,0.1c-5.5,0-9.9-4.5-9.9-9.9v-37.1c0-5.5,4.5-9.9,9.9-9.9H151c0,0,0.1,0,0.1,0.1V837.1z
		"/>
	<path class="st12" d="M122.7,743.4h117.1c0,0,0,63.2,0,103.2c0,17.8-14.4,32.3-32.3,32.3c-16.4,0-36.2,0-52.6,0
		c-17.8,0-32.3-14.4-32.3-32.3C122.7,806.6,122.7,743.4,122.7,743.4L122.7,743.4z"/>
	<path class="st12" d="M1042.6,794.9c0,0-37.4-98.6-3.5-212.9C1039.1,582,1073,662,1042.6,794.9L1042.6,794.9z"/>
	<path class="st12" d="M1044,780.8c0,0,16.2-83,82.8-126.8C1126.7,654.1,1115.8,723.9,1044,780.8L1044,780.8z"/>
	<path class="st13" d="M1051.4,765.2c0,0-11.6-84.3,35.4-158.4C1086.8,606.9,1099,676.4,1051.4,765.2L1051.4,765.2z"/>
	<path class="st13" d="M1046.3,768.3c0,0-52.8-53.2-56.4-148.2C989.9,620.1,1035.3,661.8,1046.3,768.3L1046.3,768.3z"/>
	<path class="st12" d="M1040.4,779.4c0,0-16.2-83-82.8-126.8C957.7,652.6,968.6,722.4,1040.4,779.4L1040.4,779.4z"/>
	<path class="st9" d="M979.2,757.9h131.5c0,0-10.2,115.6-32.9,118.7c-11.3,1.5-45.9,2.7-65.7,0C989.4,873.5,979.2,757.9,979.2,757.9
		L979.2,757.9z"/>
	<polygon class="st14" points="977,752.2 1112.6,750.9 1109.9,775.3 980.5,776.1 977,752.2 	"/>
	<path class="st15" d="M794.9,289.6c-0.5,0-0.9-0.3-1.1-0.7c-0.3-0.5-0.1-1.2,0.3-1.6l42.6-33.8c-3.9-7.6-5.9-16.1-5.9-24.6v-81.1
		c0-14.5,5.7-28.2,15.9-38.4c10.3-10.3,23.9-15.9,38.4-15.9h260.5c14.5,0,28.2,5.7,38.4,15.9c10.3,10.3,15.9,23.9,15.9,38.4v81.1
		c0,14.5-5.7,28.2-15.9,38.4c-10.3,10.3-23.9,15.9-38.4,15.9H885.2c-11.4,0-22.8-3.7-32-10.4l-57.9,16.6
		C795.2,289.5,795.1,289.6,794.9,289.6z M885.2,96c-13.8,0-26.9,5.4-36.7,15.2c-9.8,9.8-15.2,22.8-15.2,36.7v81.1
		c0,8.5,2.1,16.9,6.1,24.4c0.3,0.5,0.1,1.2-0.3,1.6l-38.4,30.5l52.4-15.1c0.4-0.1,0.8,0,1.1,0.2c8.9,6.7,19.9,10.3,31,10.3h260.5
		c13.8,0,26.9-5.4,36.7-15.2c9.8-9.8,15.2-22.8,15.2-36.7v-81.1c0-13.8-5.4-26.9-15.2-36.7c-9.8-9.8-22.8-15.2-36.7-15.2H885.2z"/>
	<path class="st6" d="M1149.1,148.7c0-0.8-0.7-1.5-1.5-1.5H884.6c-0.4,0-0.8,0.2-1.1,0.4c-0.3,0.3-0.4,0.7-0.4,1.1v0.1
		c0,0.8,0.7,1.5,1.5,1.5h262.9C1148.4,150.3,1149.1,149.6,1149.1,148.7L1149.1,148.7L1149.1,148.7z"/>
	<path class="st6" d="M1149.1,191.4c0-0.8-0.7-1.5-1.5-1.5H884.6c-0.4,0-0.8,0.2-1.1,0.4s-0.4,0.7-0.4,1.1v0.1
		c0,0.8,0.7,1.5,1.5,1.5h262.9C1148.4,193,1149.1,192.3,1149.1,191.4L1149.1,191.4L1149.1,191.4z"/>
	<path class="st6" d="M1077.4,235.7c0.8,0,1.5-0.7,1.5-1.5v-0.1c0-0.8-0.7-1.5-1.5-1.5H884.6c-0.4,0-0.8,0.2-1.1,0.4
		c-0.3,0.3-0.4,0.7-0.4,1.1v0.1c0,0.8,0.7,1.5,1.5,1.5H1077.4L1077.4,235.7z"/>
	<path class="st7" d="M1116.7,416c0-34.8-45.1-63-100.6-63c-55.5,0-100.6,28.2-100.6,63c0,20.5,16,39.8,42.9,51.6l-12.7,42.9
		l44.4-33.6c8.5,1.4,17.3,2.2,26.1,2.2C1071.6,479,1116.7,450.8,1116.7,416L1116.7,416z"/>
	<path class="st14" d="M148.4,630.5c-17.5,12.2-14.4,9.4-22.5,14.7c-25.5,16.5-70.8-7.8-100.9-54.4c-30.2-46.6-33-96.5-8.4-114.3
		c7.7-5.6,8.5-6.1,23.1-15.5l21.8,42.7c0,0-14.4,15.5-16.1,28.1c-1.4,10.8,6.9,27,14.7,38.9c7.7,11.9,17.9,25.6,27.7,28.3
		c11.7,3.1,32.1-4.9,32.1-4.9L148.4,630.5L148.4,630.5z"/>
	<path class="st14" d="M386,94.7c0-23.1-18.7-41.8-41.8-41.8c-64.6,0-187.9,0-252.5,0c-11.1,0-21.7,4.4-29.6,12.2
		C54.3,73,49.9,83.6,49.9,94.7l0,0c0,23.1,18.7,41.8,41.8,41.8c64.6,0,187.9,0,252.5,0C367.3,136.5,386,117.8,386,94.7L386,94.7
		L386,94.7z"/>
	<polygon class="st6" points="103.3,68.2 109.1,86.1 127.8,86.1 112.7,97.3 118.4,115.3 103.3,104.1 88.2,115.3 94,97.3 78.8,86.1 
		97.5,86.1 103.3,68.2 	"/>
	<polygon class="st6" points="160.6,68.2 166.4,86.1 185.1,86.1 170,97.3 175.8,115.3 160.6,104.1 145.5,115.3 151.3,97.3 
		136.1,86.1 154.8,86.1 160.6,68.2 	"/>
	<polygon class="st6" points="217.9,68.2 223.7,86.1 242.4,86.1 227.3,97.3 233.1,115.3 217.9,104.1 202.8,115.3 208.6,97.3 
		193.5,86.1 212.2,86.1 217.9,68.2 	"/>
	<polygon class="st6" points="275.3,68.2 281.1,86.1 299.8,86.1 284.6,97.3 290.4,115.3 275.3,104.1 260.1,115.3 265.9,97.3 
		250.8,86.1 269.5,86.1 275.3,68.2 	"/>
	<polygon class="st6" points="332.6,68.2 338.4,86.1 357.1,86.1 341.9,97.3 347.7,115.3 332.6,104.1 317.4,115.3 323.2,97.3 
		308.1,86.1 326.8,86.1 332.6,68.2 	"/>
	<polygon class="st9" points="310.9,301.7 126.4,301.7 126.4,420.6 310.9,420.6 310.9,301.7 	"/>
	<polygon class="st9" points="218.5,237.5 310.9,301.7 126,301.7 218.5,237.5 	"/>
	<polygon class="st16" points="125.8,379.3 310,379.6 311.3,269.7 126.1,269.5 125.8,379.3 	"/>
	<polygon class="st17" points="285.6,295.3 151.5,295.3 151.5,301.7 285.6,301.7 285.6,295.3 	"/>
	<polygon class="st17" points="285.6,315.8 151.5,315.8 151.5,322.2 285.6,322.2 285.6,315.8 	"/>
	<polygon class="st17" points="285.6,336.3 151.5,336.3 151.5,342.8 285.6,342.8 285.6,336.3 	"/>
	<polygon class="st7" points="206.4,363.5 126,420.5 126,306.5 206.4,363.5 	"/>
	<polygon class="st7" points="230.9,363.5 311.3,420.5 311.3,306.5 230.9,363.5 	"/>
	<path class="st9" d="M206.3,361.1c7.3-5.4,17.2-5.4,24.5,0c25.2,18.6,80.4,59.4,80.4,59.4H125.9
		C125.9,420.5,181.2,379.7,206.3,361.1L206.3,361.1z"/>
</g>
</svg>
