<?xml version="1.0" encoding="utf-8"?>
<!-- Generator: Adobe Illustrator 27.7.0, SVG Export Plug-In . SVG Version: 6.00 Build 0)  -->
<svg version="1.1" id="Layer_1" xmlns="http://www.w3.org/2000/svg" xmlns:xlink="http://www.w3.org/1999/xlink" x="0px" y="0px"
	 viewBox="0 0 200 200" style="enable-background:new 0 0 200 200;" xml:space="preserve">
<style type="text/css">
	.st0{fill:#58ABDF;}
	.st1{fill:none;stroke:#27316D;stroke-width:2;}
	.st2{fill:#27316D;}
</style>
<path class="st0" d="M120.2,70.9l0-16.9l-15-1.3c-1-5.5-3.1-10.7-5.9-15.3l10-11.8l-11.9-12L86,23.3c-4.5-3.1-9.6-5.3-15-6.7
	L69.7,1.2l-16.9,0l-1.3,15c-5.5,1-10.7,3.1-15.3,5.9L24.4,12l-12,11.9l9.7,11.5c-3.1,4.5-5.4,9.6-6.7,15L0,51.7l0,16.9l15,1.3
	c1,5.5,3.1,10.7,5.9,15.3l-10,11.8l11.9,12l11.5-9.7c4.5,3.1,9.6,5.4,15,6.7l1.2,15.5l16.9,0l1.3-15c5.5-1,10.7-3.1,15.3-5.9
	l11.8,10l12-11.9L98,87.1c3.1-4.5,5.4-9.6,6.7-15L120.2,70.9z M60,84.8c-13,0-23.5-10.6-23.4-23.5c0-13,10.6-23.5,23.5-23.4
	c13,0,23.5,10.6,23.4,23.5C83.5,74.3,73,84.8,60,84.8z"/>
<g>
	<g>
		<g>
			<path class="st1" d="M123.8,121.8"/>
		</g>
		<path class="st2" d="M89.7,144.5c-15.1,0-29.4-5.9-40.1-16.6l0,0c-10.7-10.7-16.6-25-16.6-40.1c0-15.1,5.9-29.3,16.5-40
			C60.2,36.9,74.5,31,89.7,31c0,0,0,0,0,0c15.1,0,29.4,5.9,40.1,16.6c10.7,10.7,16.6,25,16.7,40.1c0,15.1-5.9,29.3-16.6,40.1
			C119.2,138.6,104.9,144.5,89.7,144.5C89.7,144.5,89.7,144.5,89.7,144.5z M89.7,140.5C89.7,140.5,89.7,140.5,89.7,140.5
			c14.1,0,27.4-5.5,37.3-15.5c9.9-10,15.4-23.2,15.4-37.2c0-14.1-5.5-27.3-15.5-37.3C117,40.5,103.8,35,89.7,35c0,0,0,0,0,0
			c-14.1,0-27.4,5.5-37.4,15.5c-9.9,10-15.4,23.2-15.4,37.2c0,14.1,5.5,27.3,15.5,37.3l0,0C62.4,135,75.6,140.5,89.7,140.5
			C89.7,140.5,89.7,140.5,89.7,140.5z"/>
		<path class="st2" d="M89.7,132.5c-12,0-23.2-4.7-31.6-13.1l2.8-2.8c7.7,7.7,17.9,12,28.8,12c0,0,0,0,0,0c10.9,0,21.1-4.3,28.9-12
			c7.7-7.7,11.9-17.9,11.9-28.8h4c0,11.9-4.6,23.1-13.1,31.6C112.9,127.9,101.7,132.5,89.7,132.5C89.7,132.5,89.7,132.5,89.7,132.5z
			"/>
		<path class="st2" d="M173.7,195.1l-47.5-47.5l23.3-23.3l47.5,47.5L173.7,195.1z M131.8,147.5l41.8,41.8l17.7-17.7l-41.8-41.8
			L131.8,147.5z"/>
		
			<rect x="144.5" y="139.6" transform="matrix(0.7071 -0.7071 0.7071 0.7071 -55.5437 149.1257)" class="st2" width="15.5" height="4"/>
		<path class="st2" d="M176.7,198.1l-5.5-5.5l2.8-2.8l4.3,4.3c9.5-0.4,17.2-8.1,17.6-17.6c-1.4-1.4-2.9-2.9-4.3-4.3l2.8-2.8
			c1.6,1.6,3.3,3.3,4.9,4.9l0.6,0.6v0.8c0,12.4-10.1,22.4-22.4,22.4H176.7z"/>
		<g>
			
				<rect x="131.6" y="126" transform="matrix(0.7073 -0.7069 0.7069 0.7073 -54.2649 133.1275)" class="st2" width="4" height="12.1"/>
		</g>
	</g>
</g>
</svg>
