<?xml version="1.0" encoding="utf-8"?>
<!-- Generator: Adobe Illustrator 27.7.0, SVG Export Plug-In . SVG Version: 6.00 Build 0)  -->
<svg version="1.1" id="Layer_1" xmlns="http://www.w3.org/2000/svg" xmlns:xlink="http://www.w3.org/1999/xlink" x="0px" y="0px"
	 viewBox="0 0 200 200" style="enable-background:new 0 0 200 200;" xml:space="preserve">
<style type="text/css">
	.st0{fill:#FFFFFF;}
	.st1{fill:#27316D;}
	.st2{fill:#58ABDF;}
	.st3{fill:#F9C647;}
</style>
<g>
	<g>
		<g>
			<g>
				<path class="st0" d="M108.2,172.3v19.4c0,3.4-2.8,6.2-6.2,6.2H15c-3.4,0-6.2-2.8-6.2-6.2V8.3c0-3.4,2.8-6.2,6.2-6.2h87
					c3.4,0,6.2,2.8,6.2,6.2v20.6"/>
				<path class="st1" d="M102,200H15c-4.6,0-8.3-3.7-8.3-8.3V8.3C6.7,3.7,10.4,0,15,0h87c4.6,0,8.3,3.7,8.3,8.3v20.6h-4.2V8.3
					c0-2.3-1.8-4.1-4.1-4.1H15c-2.3,0-4.1,1.8-4.1,4.1v183.4c0,2.3,1.8,4.1,4.1,4.1h87c2.3,0,4.1-1.8,4.1-4.1v-19.4h4.2v19.4
					C110.3,196.3,106.6,200,102,200z"/>
			</g>
			<rect x="19.5" y="28.5" class="st2" width="77.9" height="141.4"/>
			<g>
				<rect x="41.9" y="13.9" class="st1" width="33.2" height="4.2"/>
			</g>
			<rect x="54.4" y="179.6" class="st1" width="8.1" height="4.2"/>
		</g>
	</g>
	<g>
		<path class="st1" d="M137.8,168.8h-4.2c-15.1,0-27.5-12.3-27.5-27.5V69.1h4.2v72.2c0,12.8,10.4,23.3,23.3,23.3h4.2
			c12.8,0,23.3-10.4,23.3-23.3V86.2h4.2v55.1C165.2,156.5,152.9,168.8,137.8,168.8z"/>
		<path class="st1" d="M66.6,116.6h-4.2V63.9c0-12.3,10-22.3,22.3-22.3H88c12.3,0,22.3,10,22.3,22.3v11.9h-4.2V63.9
			c0-10-8.1-18.1-18.1-18.1h-3.4c-10,0-18.1,8.1-18.1,18.1V116.6z"/>
		<g>
			<path class="st0" d="M46.3,116.4c0,9.8,8,17.8,17.8,17.8c9.8,0,17.8-8,17.8-17.8c0-9.8-8-17.8-17.8-17.8
				C54.2,98.6,46.3,106.6,46.3,116.4z"/>
			<path class="st1" d="M64.1,136.3c-11,0-19.9-8.9-19.9-19.9s8.9-19.9,19.9-19.9S84,105.4,84,116.4S75.1,136.3,64.1,136.3z
				 M64.1,100.7c-8.7,0-15.7,7-15.7,15.7s7,15.7,15.7,15.7s15.7-7,15.7-15.7S72.7,100.7,64.1,100.7z"/>
		</g>
		<path class="st3" d="M55.5,116.4c0,4.8,3.9,8.6,8.6,8.6c4.8,0,8.6-3.9,8.6-8.6c0-4.8-3.9-8.6-8.6-8.6
			C59.3,107.8,55.5,111.7,55.5,116.4z"/>
		<g>
			<path class="st1" d="M193.3,46h-4.2V21c0-6.5-5.3-11.7-11.7-11.7V5.1c8.8,0,15.9,7.1,15.9,15.9V46z"/>
			<g>
				<path class="st1" d="M129,46.2h-4.2V21.3c0-8.8,7.1-15.9,15.9-15.9v4.2c-6.5,0-11.7,5.3-11.7,11.7V46.2z"/>
				<path class="st1" d="M136.1,10.5l-1.7-3.9c2-0.9,4.1-1.3,6.3-1.3v4.2C139.1,9.6,137.6,9.9,136.1,10.5z"/>
			</g>
			<path class="st1" d="M166.3,88.9H152c-14.9,0-27.1-12.1-27.1-27V45.9h4.2v15.9c0,12.6,10.2,22.8,22.8,22.8h14.3
				c12.6,0,22.8-10.2,22.8-22.8V45.9h4.2v15.9C193.3,76.7,181.2,88.9,166.3,88.9z"/>
			<path class="st1" d="M182.2,10.4c-1.5-0.7-3.1-1-4.8-1V5.1c2.3,0,4.5,0.5,6.5,1.4L182.2,10.4z"/>
		</g>
	</g>
</g>
</svg>
