<?xml version="1.0" encoding="utf-8"?>
<!-- Generator: Adobe Illustrator 27.7.0, SVG Export Plug-In . SVG Version: 6.00 Build 0)  -->
<svg version="1.1" id="Layer_1" xmlns="http://www.w3.org/2000/svg" xmlns:xlink="http://www.w3.org/1999/xlink" x="0px" y="0px"
	 viewBox="0 0 100 100" style="enable-background:new 0 0 100 100;" xml:space="preserve">
<style type="text/css">
	.st0{fill:#58ABDF;}
	.st1{fill:#27316D;}
</style>
<path class="st0" d="M100,57.7V42.3h-9.3c-0.4-1.8-0.9-3.5-1.5-5.2l8.1-4.5l-8-13.3l-8.1,4.5c-1.2-1.4-2.6-2.6-4-3.8l4.7-7.8
	L68.1,4.5l-4.7,7.8c-1.8-0.6-3.6-1-5.4-1.4v-9H42v9c-1.9,0.3-3.7,0.8-5.4,1.4l-4.7-7.8l-13.8,7.7l4.7,7.8c-1.4,1.2-2.7,2.5-4,3.8
	l-8.1-4.5l-8,13.3l8.1,4.5c-0.6,1.7-1.1,3.4-1.5,5.2H0v15.4h9.3c0.4,1.8,0.9,3.5,1.5,5.2l-8.1,4.5l8,13.3l8.1-4.5
	c1.2,1.4,2.6,2.6,4,3.8l-4.7,7.8l13.8,7.7l4.7-7.8c1.8,0.6,3.6,1,5.4,1.4v9h16v-9c1.9-0.3,3.7-0.8,5.4-1.4l4.7,7.8l13.8-7.7L77.2,80
	c1.4-1.2,2.7-2.5,4-3.8l8.1,4.5l8-13.3l-8.1-4.5c0.6-1.7,1.1-3.4,1.5-5.2H100z M50,79.1c-16.1,0-29.1-13-29.1-29.1
	c0-16.1,13-29.1,29.1-29.1c16.1,0,29.1,13,29.1,29.1C79.1,66.1,66.1,79.1,50,79.1z"/>
<g>
	<path class="st1" d="M26.7,60L32.8,40h6.4L45.3,60h-5.6l-2.3-9.8c-0.2-1-0.5-2-0.7-3.2c-0.2-1.1-0.5-2.2-0.7-3.2h-0.1
		c-0.2,1-0.4,2.1-0.7,3.2s-0.5,2.2-0.7,3.2L32.1,60H26.7z M31,55.8v-4.1h9.8v4.1H31z"/>
	<path class="st1" d="M47.2,60V40h7.4c1.5,0,2.8,0.2,4,0.6c1.2,0.4,2.2,1.1,3,2.1s1.1,2.3,1.1,4c0,1.6-0.4,3-1.1,4
		c-0.8,1-1.7,1.8-3,2.3s-2.5,0.7-3.9,0.7h-2.2V60H47.2z M52.6,49.5h1.9c1.1,0,1.8-0.3,2.3-0.8s0.8-1.2,0.8-2.1
		c0-0.9-0.3-1.5-0.8-1.9c-0.6-0.4-1.3-0.6-2.4-0.6h-1.8V49.5z"/>
	<path class="st1" d="M66,60V40h5.3V60H66z"/>
</g>
</svg>
