<?xml version="1.0" encoding="utf-8"?>
<!-- Generator: Adobe Illustrator 27.7.0, SVG Export Plug-In . SVG Version: 6.00 Build 0)  -->
<svg version="1.1" id="Layer_1" xmlns="http://www.w3.org/2000/svg" xmlns:xlink="http://www.w3.org/1999/xlink" x="0px" y="0px"
	 viewBox="0 0 100 100" style="enable-background:new 0 0 100 100;" xml:space="preserve">
<style type="text/css">
	.st0{fill:#FFFFFF;}
	.st1{fill:#27316D;}
	.st2{fill:#58ABDF;}
</style>
<g>
	<g>
		<path class="st0" d="M47.3,98.1C29.7,93,6.4,82.7,6.4,52.3V12.9L50,1.2L93.6,13v39.3c0,30.4-23.3,40.7-40.8,45.9L50,99L47.3,98.1z
			"/>
		<path class="st1" d="M50,100l-3.1-0.9C29.1,93.9,5.3,83.4,5.3,52.3V12.1L50,0l44.7,12.1v40.1c0,31.1-23.7,41.7-41.6,46.9L50,100z
			 M7.5,13.8v38.5c0,29.7,22.9,39.8,40.1,44.8l0,0l2.5,0.7l2.5-0.7c35.9-10.5,40.1-30.6,40.1-44.8V13.8L50,2.3L7.5,13.8z"/>
	</g>
	<path class="st2" d="M49,92.2c-32.3-9.4-36.4-26.3-36.4-39.9V17.7L50,7.6l37.4,10.1v34.6c0,26-19.4,35-36.4,39.9l-1,0.3L49,92.2z"
		/>
	<g>
		<g>
			<path class="st0" d="M68.8,53.6l1.4-1.4c5.1-5.1,5.1-13.5,0-18.6L70,33.4c-5.1-5.1-13.5-5.1-18.6,0L50,34.8l-1.4-1.4
				c-5.1-5.1-13.5-5.1-18.6,0l-0.2,0.2c-5.1,5.1-5.1,13.5,0,18.6l1.4,1.4L50,72.4L68.8,53.6z"/>
			<path class="st1" d="M50,73.9l-21-21c-2.7-2.7-4.2-6.3-4.2-10.1s1.5-7.4,4.2-10.1l0.2-0.2c5.5-5.5,14.6-5.5,20.1,0l0.7,0.7
				l0.7-0.7c2.7-2.7,6.3-4.2,10.1-4.2c3.8,0,7.4,1.5,10.1,4.2l0.2,0.2c2.7,2.7,4.2,6.3,4.2,10.1s-1.5,7.4-4.2,10.1L50,73.9z
				 M39.3,30.6c-3.1,0-6.2,1.2-8.6,3.5l-0.2,0.2c-2.3,2.3-3.5,5.3-3.5,8.5s1.3,6.3,3.5,8.5L50,70.8l19.5-19.5C71.8,49,73,46,73,42.8
				s-1.3-6.3-3.5-8.5l-0.2-0.2c-2.3-2.3-5.3-3.5-8.5-3.5c-3.2,0-6.3,1.3-8.5,3.5l-2.2,2.2l-2.2-2.2C45.5,31.8,42.4,30.6,39.3,30.6z"
				/>
		</g>
	</g>
</g>
</svg>
