<?xml version="1.0" encoding="utf-8"?>
<!-- Generator: Adobe Illustrator 27.7.0, SVG Export Plug-In . SVG Version: 6.00 Build 0)  -->
<svg version="1.1" id="Layer_1" xmlns="http://www.w3.org/2000/svg" xmlns:xlink="http://www.w3.org/1999/xlink" x="0px" y="0px"
	 viewBox="0 0 100 100" style="enable-background:new 0 0 100 100;" xml:space="preserve">
<style type="text/css">
	.st0{fill:#58ABDF;}
	.st1{fill:#27316D;}
</style>
<g>
	<path class="st0" d="M42.8,62.8v14h-7.3V63C35.4,63,42.8,62.6,42.8,62.8z"/>
	<polygon class="st1" points="35.6,95.2 22.7,95.2 13.8,60.3 16.1,61.5 24.3,93.2 33.6,93.2 33.6,62.7 35.6,62.7 	"/>
	<path class="st1" d="M10.3,57.8H7.9c-4.4,0-7.9-3.5-7.9-7.9v-9.5c0-4.4,3.5-7.9,7.9-7.9h2.4v2H7.9c-3.2,0-5.9,2.6-5.9,5.9v9.5
		c0,3.2,2.6,5.9,5.9,5.9h2.4V57.8z"/>
	<path class="st1" d="M92.1,57.8h-2.4v-2h2.4c3.2,0,5.9-2.6,5.9-5.9v-9.5c0-3.2-2.6-5.9-5.9-5.9h-2.4v-2h2.4c4.4,0,7.9,3.5,7.9,7.9
		v9.5C100,54.3,96.5,57.8,92.1,57.8z"/>
	<polygon class="st1" points="90.7,85.6 83.1,85.6 83.1,83.6 88.7,83.6 88.7,6.8 83.1,6.8 83.1,4.8 90.7,4.8 	"/>
	<polyline class="st0" points="43.4,60.3 82.3,78.7 82.3,11.7 43.4,30.1 	"/>
	<path class="st1" d="M43.8,63.9H22c-7.9,0-14.3-6.4-14.3-14.3v-8.9c0-7.9,6.4-14.3,14.3-14.3h21.7V63.9z M22,28.5
		c-6.8,0-12.2,5.5-12.2,12.2v8.9c0,6.8,5.5,12.2,12.2,12.2h19.7V28.5H22z"/>
	<path class="st1" d="M43.8,63.9H22c-7.9,0-14.3-6.4-14.3-14.3v-8.9c0-7.9,6.4-14.3,14.3-14.3h21.7V63.9z M22,28.5
		c-6.8,0-12.2,5.5-12.2,12.2v8.9c0,6.8,5.5,12.2,12.2,12.2h19.7V28.5H22z"/>
	<rect x="27" y="34.9" class="st1" width="8.7" height="2"/>
	<rect x="18.3" y="72.6" class="st1" width="9.1" height="2"/>
	<rect x="20.6" y="82.2" class="st1" width="6.9" height="2"/>
</g>
</svg>
