<?xml version="1.0" encoding="utf-8"?>
<!-- Generator: Adobe Illustrator 27.7.0, SVG Export Plug-In . SVG Version: 6.00 Build 0)  -->
<svg version="1.1" id="Layer_1" xmlns="http://www.w3.org/2000/svg" xmlns:xlink="http://www.w3.org/1999/xlink" x="0px" y="0px"
	 viewBox="0 0 100 100" style="enable-background:new 0 0 100 100;" xml:space="preserve">
<style type="text/css">
	.st0{fill:#58ABDF;}
	.st1{fill:#FFFFFF;}
	.st2{fill:#27316D;}
	.st3{fill:#F9C647;}
</style>
<g>
	<g>
		<path class="st0" d="M49.7,99.5c27.5,0,49.7-22.3,49.7-49.7C99.4,22.3,77.2,0,49.7,0C22.3,0,0,22.3,0,49.7
			C0,77.2,22.3,99.5,49.7,99.5z"/>
		<g>
			<path class="st1" d="M49.7,91.4c23,0,41.7-18.7,41.7-41.7c0-23-18.6-41.7-41.7-41.7c-23,0-41.7,18.6-41.7,41.7
				C8.1,72.7,26.7,91.4,49.7,91.4z"/>
			<path class="st2" d="M49.7,92.4C26.2,92.4,7,73.3,7,49.7C7,26.2,26.2,7.1,49.7,7.1c23.5,0,42.7,19.1,42.7,42.7
				C92.4,73.3,73.3,92.4,49.7,92.4z M49.7,9.1C27.3,9.1,9.1,27.3,9.1,49.7c0,22.4,18.2,40.6,40.6,40.6c22.4,0,40.6-18.2,40.6-40.6
				C90.4,27.3,72.1,9.1,49.7,9.1z"/>
		</g>
		<g>
			<g>
				<rect x="48.7" y="12.6" class="st2" width="2.1" height="7.7"/>
				
					<rect x="62.5" y="19.9" transform="matrix(0.4999 -0.8661 0.8661 0.4999 15.0844 67.9367)" class="st2" width="7.7" height="2.1"/>
				
					<rect x="74.7" y="32.1" transform="matrix(0.8661 -0.4999 0.4999 0.8661 -6.0234 43.7045)" class="st2" width="7.7" height="2.1"/>
				<rect x="79.2" y="48.7" class="st2" width="7.7" height="2.1"/>
				<rect x="77.5" y="62.5" transform="matrix(0.5 -0.866 0.866 0.5 -18.2153 101.2308)" class="st2" width="2.1" height="7.7"/>
				<rect x="65.3" y="74.7" transform="matrix(0.866 -0.5 0.5 0.866 -30.398 43.7151)" class="st2" width="2.1" height="7.7"/>
				<rect x="48.7" y="79.2" class="st2" width="2.1" height="7.7"/>
				
					<rect x="29.2" y="77.6" transform="matrix(0.5001 -0.8659 0.8659 0.5001 -51.5125 67.9189)" class="st2" width="7.7" height="2.1"/>
				
					<rect x="17" y="65.4" transform="matrix(0.8663 -0.4996 0.4996 0.8663 -30.3729 19.3119)" class="st2" width="7.7" height="2.1"/>
				<rect x="12.6" y="48.7" class="st2" width="7.7" height="2.1"/>
				
					<rect x="19.9" y="29.2" transform="matrix(0.5001 -0.866 0.866 0.5001 -18.2182 34.6315)" class="st2" width="2.1" height="7.7"/>
				<rect x="32" y="17" transform="matrix(0.8662 -0.4997 0.4997 0.8662 -6.022 19.3236)" class="st2" width="2.1" height="7.7"/>
			</g>
			<g>
				<path class="st2" d="M49.7,53.1c-0.8,0-1.6-0.3-2.2-0.8c-0.7-0.6-1.1-1.4-1.1-2.3c-0.1-0.9,0.3-1.8,0.8-2.4h0
					c1.2-1.4,3.4-1.5,4.7-0.3c1.4,1.2,1.5,3.4,0.3,4.7C51.6,52.7,50.6,53.1,49.7,53.1z M48.8,48.9c-0.2,0.3-0.3,0.6-0.3,0.9
					c0,0.3,0.2,0.7,0.4,0.9c0.5,0.5,1.4,0.4,1.8-0.1c0.5-0.5,0.4-1.4-0.1-1.8C50.1,48.3,49.2,48.3,48.8,48.9L48.8,48.9z"/>
				
					<rect x="47.2" y="37.9" transform="matrix(0.6665 -0.7455 0.7455 0.6665 -9.2564 57.2506)" class="st2" width="24.3" height="2.1"/>
				
					<rect x="39.7" y="31" transform="matrix(0.6666 -0.7454 0.7454 0.6666 -17.5032 44.2847)" class="st2" width="2.1" height="21.4"/>
			</g>
		</g>
	</g>
	<path class="st3" d="M100,77.8C100,90,90,100,77.8,100c-12.3,0-22.2-9.9-22.2-22.2c0-12.3,10-22.2,22.2-22.2
		C90,55.5,100,65.5,100,77.8z"/>
	<g>
		<rect x="74.1" y="66.3" class="st1" width="7.3" height="22.9"/>
		<rect x="66.3" y="74.1" class="st1" width="22.9" height="7.3"/>
	</g>
</g>
</svg>
