<?xml version="1.0" encoding="utf-8"?>
<!-- Generator: Adobe Illustrator 27.7.0, SVG Export Plug-In . SVG Version: 6.00 Build 0)  -->
<svg version="1.1" id="Layer_1" xmlns="http://www.w3.org/2000/svg" xmlns:xlink="http://www.w3.org/1999/xlink" x="0px" y="0px"
	 viewBox="0 0 100 100" style="enable-background:new 0 0 100 100;" xml:space="preserve">
<style type="text/css">
	.st0{fill:#FFFFFF;}
	.st1{fill:#27316D;}
	.st2{fill:#F9C647;}
</style>
<g>
	<g>
		<g>
			<g>
				<path class="st0" d="M16.1,85.9H9c-3.6,0-6.5,2.9-6.5,6.5c0,3.6,2.9,6.5,6.5,6.5h7.1V85.9z"/>
				<path class="st1" d="M17.2,100H9c-4.2,0-7.6-3.4-7.6-7.6s3.4-7.6,7.6-7.6h8.1V100z M9,87c-3,0-5.4,2.5-5.4,5.5
					c0,3,2.4,5.5,5.4,5.5h6V87H9z"/>
			</g>
			<g>
				<path class="st0" d="M20.9,25.2H9c-3.3,0-6.1,2.5-6.5,5.8c0,1.8,0,57.8,0,60.7C3,88.4,5.7,85.9,9,85.9h80.9v0l1.1,0
					c3.3,0,6.1-2.5,6.5-5.8c0-1.8,0-57.8,0-60.7c-0.4,3.2-3.1,5.8-6.5,5.8h-1.5v0H36.1"/>
				<path class="st1" d="M3.6,91.8l-2.1-0.1c0-1.7,0-20.9,0-57.2l0-3.6l0-0.1C2,27,5.2,24.2,9,24.2h11.9v2.1H9c-2.7,0-5.1,2-5.4,4.8
					l0,3.5c0,27.2,0,44.8,0,52.6C5,85.7,6.9,84.8,9,84.8h79.8v0l1.1,0l1.1,0c2.7,0,5-2.1,5.4-4.8l0-3.5c0-27.2,0-44.8,0-52.6
					c-1.4,1.4-3.3,2.3-5.4,2.3l-54.9,0v-2.1h52.3l2.5,0c2.8,0,5.1-2.1,5.4-4.8l2.1,0.1c0,1.7,0,20.9,0,57.2l0,3.6l0,0.1
					C98.1,84.1,94.8,87,91,87l-0.6,0l-0.5,0H9C6.3,87,3.9,89,3.6,91.8z"/>
			</g>
			<path class="st2" d="M8.7,31.5c0.1-0.1,0.2-0.2,0.4-0.2h82.3c0,13.9,0,48.2,0,48.2c-0.1,0.1-0.2,0.2-0.3,0.2l-7.2-0.1v0.1H9
				c-0.1,0-0.2,0-0.4,0C8.7,65.9,8.7,31.5,8.7,31.5z"/>
			<g>
				<path class="st0" d="M87.7,73.9H91c3.3,0,6.1,2.5,6.5,5.8c0-2.9,0-58.9,0-60.7c-0.4-3.2-3.1-5.8-6.5-5.8h-3.3V73.9z"/>
				<path class="st1" d="M96.4,79.7c-0.3-2.8-2.6-4.8-5.4-4.8h-4.3V12.1H91c3.8,0,7.1,2.9,7.5,6.7l0,0.1l0,3.5c0,36.3,0,55.5,0,57.2
					L96.4,79.7z M88.8,72.8H91c2.1,0,4,0.9,5.4,2.3c0-7.8,0-25.4,0-52.6l0-3.5c-0.3-2.7-2.7-4.8-5.4-4.8h-2.2V72.8z"/>
			</g>
		</g>
	</g>
	<g>
		<path class="st0" d="M80.5,57.4v-4.4l-3.9-0.3c-0.3-1.4-0.8-2.8-1.5-4l2.6-3.1l-3.1-3.1l-3,2.5c-1.2-0.8-2.5-1.4-3.9-1.7l-0.3-4
			H63l-0.3,3.9c-1.4,0.3-2.8,0.8-4,1.5l-3.1-2.6l-3.1,3.1l2.5,3c-0.8,1.2-1.4,2.5-1.7,3.9l-4,0.3v4.4l3.9,0.3c0.3,1.4,0.8,2.8,1.5,4
			l-2.6,3.1l3.1,3.1l3-2.5c1.2,0.8,2.5,1.4,3.9,1.7l0.3,4h4.4l0.3-3.9c1.4-0.3,2.8-0.8,4-1.5l3.1,2.6l3.1-3.1l-2.5-3
			c0.8-1.2,1.4-2.5,1.7-3.9L80.5,57.4z"/>
		<g>
			<path class="st0" d="M70.7,55c0,3.2-2.6,5.8-5.8,5.8c-3.2,0-5.8-2.6-5.8-5.8c0-3.2,2.6-5.8,5.8-5.8C68.1,49.2,70.7,51.8,70.7,55z
				"/>
			<path class="st1" d="M65,61.8c-3.8,0-6.8-3.1-6.8-6.8s3.1-6.8,6.8-6.8c3.8,0,6.8,3.1,6.8,6.8S68.7,61.8,65,61.8z M65,50.2
				c-2.6,0-4.7,2.1-4.7,4.7c0,2.6,2.1,4.7,4.7,4.7c2.6,0,4.7-2.1,4.7-4.7C69.7,52.4,67.6,50.2,65,50.2z"/>
		</g>
	</g>
	<g>
		<polygon class="st1" points="40.2,65.5 28.3,24.2 16.3,65.4 14.3,64.9 28.3,16.5 42.2,64.9 		"/>
		<path class="st1" d="M28.3,22.1c-3.8,0-6.8-3.1-6.8-6.8c0-3.8,3.1-6.8,6.8-6.8s6.8,3.1,6.8,6.8C35.1,19,32,22.1,28.3,22.1z
			 M28.3,10.6c-2.6,0-4.7,2.1-4.7,4.7c0,2.6,2.1,4.7,4.7,4.7s4.7-2.1,4.7-4.7C33,12.7,30.9,10.6,28.3,10.6z"/>
		<rect x="27.2" y="0" class="st1" width="2.1" height="8.8"/>
		<path class="st1" d="M28.3,45.9c-4.7,0-9.5-1-13.9-3.1l0.9-1.9c8.3,3.9,17.7,3.9,26,0l0.9,1.9C37.7,44.8,33,45.9,28.3,45.9z"/>
	</g>
</g>
</svg>
