<?xml version="1.0" encoding="utf-8"?>
<!-- Generator: Adobe Illustrator 27.7.0, SVG Export Plug-In . SVG Version: 6.00 Build 0)  -->
<svg version="1.1" id="Layer_1" xmlns="http://www.w3.org/2000/svg" xmlns:xlink="http://www.w3.org/1999/xlink" x="0px" y="0px"
	 viewBox="0 0 100 100" style="enable-background:new 0 0 100 100;" xml:space="preserve">
<style type="text/css">
	.st0{fill:#F9C647;}
	.st1{fill:#FFFFFF;}
	.st2{fill:#27316D;}
	.st3{fill:#58ABDF;}
</style>
<g>
	<ellipse class="st0" cx="50" cy="92" rx="27.2" ry="8"/>
	<g>
		<g>
			<path class="st1" d="M50,1C29.2,1,12.4,17.9,12.4,38.6C12.4,59.4,50,91.4,50,91.4s37.6-32,37.6-52.8C87.6,17.9,70.8,1,50,1z"/>
			<path class="st2" d="M50,92.5c-0.2,0-0.5-0.1-0.7-0.2c-0.1-0.1-9.6-8.2-18.9-18.7c-12.6-14.3-19.1-26-19.1-34.9
				C11.4,17.3,28.7,0,50,0c21.3,0,38.6,17.3,38.6,38.6c0,8.9-6.4,20.6-19.1,34.9C60.2,84,50.8,92.1,50.7,92.2
				C50.5,92.4,50.2,92.5,50,92.5z M50,2.1c-20.2,0-36.6,16.4-36.6,36.5c0,18.5,31.5,47,36.6,51.4c5-4.4,36.6-32.9,36.6-51.4
				C86.6,18.5,70.2,2.1,50,2.1z"/>
		</g>
		<path class="st3" d="M50,59.3c-11.8,0-21.3-9.5-21.3-21.3c0-11.8,9.5-21.3,21.3-21.3c11.8,0,21.3,9.5,21.3,21.3
			C71.3,49.7,61.8,59.3,50,59.3z"/>
		<g>
			<rect x="45.3" y="23.1" class="st1" width="9.5" height="29.6"/>
			<rect x="35.2" y="33.2" class="st1" width="29.6" height="9.5"/>
		</g>
	</g>
</g>
</svg>
