<?xml version="1.0" encoding="utf-8"?>
<!-- Generator: Adobe Illustrator 27.7.0, SVG Export Plug-In . SVG Version: 6.00 Build 0)  -->
<svg version="1.1" id="Layer_1" xmlns="http://www.w3.org/2000/svg" xmlns:xlink="http://www.w3.org/1999/xlink" x="0px" y="0px"
	 viewBox="0 0 100 100" style="enable-background:new 0 0 100 100;" xml:space="preserve">
<style type="text/css">
	.st0{fill:#FFFFFF;}
	.st1{fill:#27316D;}
	.st2{fill:#58ABDF;}
	.st3{fill:#F9C647;}
</style>
<g>
	<g>
		<g>
			<g>
				<path class="st0" d="M54.1,86.2v9.7c0,1.7-1.4,3.1-3.1,3.1H7.5c-1.7,0-3.1-1.4-3.1-3.1V4.2c0-1.7,1.4-3.1,3.1-3.1H51
					c1.7,0,3.1,1.4,3.1,3.1v10.3"/>
				<path class="st1" d="M51,100H7.5c-2.3,0-4.2-1.9-4.2-4.2V4.2C3.3,1.9,5.2,0,7.5,0H51c2.3,0,4.2,1.9,4.2,4.2v10.3H53V4.2
					C53,3,52.1,2.1,51,2.1H7.5C6.4,2.1,5.4,3,5.4,4.2v91.7c0,1.1,0.9,2.1,2.1,2.1H51c1.1,0,2.1-0.9,2.1-2.1v-9.7h2.1v9.7
					C55.2,98.1,53.3,100,51,100z"/>
			</g>
			<rect x="9.8" y="14.3" class="st2" width="39" height="70.7"/>
			<g>
				<rect x="20.9" y="6.9" class="st1" width="16.6" height="2.1"/>
			</g>
			<rect x="27.2" y="89.8" class="st1" width="4.1" height="2.1"/>
		</g>
	</g>
	<g>
		<path class="st1" d="M68.9,84.4h-2.1c-7.6,0-13.7-6.2-13.7-13.7V34.6h2.1v36.1c0,6.4,5.2,11.6,11.6,11.6h2.1
			c6.4,0,11.6-5.2,11.6-11.6V43.1h2.1v27.6C82.6,78.2,76.5,84.4,68.9,84.4z"/>
		<path class="st1" d="M33.3,58.3h-2.1V32c0-6.1,5-11.1,11.1-11.1H44c6.1,0,11.1,5,11.1,11.1v5.9H53V32c0-5-4.1-9-9-9h-1.7
			c-5,0-9,4.1-9,9V58.3z"/>
		<g>
			<path class="st0" d="M23.1,58.2c0,4.9,4,8.9,8.9,8.9c4.9,0,8.9-4,8.9-8.9c0-4.9-4-8.9-8.9-8.9C27.1,49.3,23.1,53.3,23.1,58.2z"/>
			<path class="st1" d="M32,68.2c-5.5,0-10-4.5-10-10c0-5.5,4.5-10,10-10s10,4.5,10,10C42,63.7,37.5,68.2,32,68.2z M32,50.3
				c-4.3,0-7.9,3.5-7.9,7.9c0,4.3,3.5,7.9,7.9,7.9s7.9-3.5,7.9-7.9C39.9,53.9,36.4,50.3,32,50.3z"/>
		</g>
		<path class="st3" d="M27.7,58.2c0,2.4,1.9,4.3,4.3,4.3c2.4,0,4.3-1.9,4.3-4.3c0-2.4-1.9-4.3-4.3-4.3
			C29.7,53.9,27.7,55.8,27.7,58.2z"/>
		<g>
			<path class="st1" d="M96.7,23h-2.1V10.5c0-3.2-2.6-5.9-5.9-5.9V2.6c4.4,0,8,3.6,8,8V23z"/>
			<g>
				<path class="st1" d="M64.5,23.1h-2.1V10.6c0-4.4,3.6-8,8-8v2.1c-3.2,0-5.9,2.6-5.9,5.9V23.1z"/>
				<path class="st1" d="M68.1,5.3l-0.8-1.9c1-0.4,2.1-0.6,3.1-0.6v2.1C69.6,4.8,68.8,4.9,68.1,5.3z"/>
			</g>
			<path class="st1" d="M83.1,44.4H76c-7.5,0-13.5-6.1-13.5-13.5V23h2.1v7.9c0,6.3,5.1,11.4,11.4,11.4h7.1c6.3,0,11.4-5.1,11.4-11.4
				V23h2.1v7.9C96.7,38.4,90.6,44.4,83.1,44.4z"/>
			<path class="st1" d="M91.1,5.2c-0.8-0.3-1.6-0.5-2.4-0.5V2.6c1.1,0,2.2,0.2,3.3,0.7L91.1,5.2z"/>
		</g>
	</g>
</g>
</svg>
