<?xml version="1.0" encoding="utf-8"?>
<!-- Generator: Adobe Illustrator 27.7.0, SVG Export Plug-In . SVG Version: 6.00 Build 0)  -->
<svg version="1.1" id="Layer_1" xmlns="http://www.w3.org/2000/svg" xmlns:xlink="http://www.w3.org/1999/xlink" x="0px" y="0px"
	 viewBox="0 0 100 100" style="enable-background:new 0 0 100 100;" xml:space="preserve">
<style type="text/css">
	.st0{fill:#F9C647;}
	.st1{fill:#27316D;}
</style>
<g>
	<rect x="13.6" y="22.2" class="st0" width="72.8" height="49.2"/>
	<g>
		<rect x="38.9" y="64" class="st1" width="3.2" height="2"/>
		<rect x="45.3" y="64" class="st1" width="3.2" height="2"/>
		<rect x="51.6" y="64" class="st1" width="3.2" height="2"/>
		<rect x="57.9" y="64" class="st1" width="3.2" height="2"/>
	</g>
	<path class="st1" d="M93.7,72.9h-2V20.8c0-2.1-1.6-3.7-3.5-3.7H11.8c-1.9,0-3.5,1.7-3.5,3.7v52.2h-2V20.8c0-3.2,2.5-5.7,5.5-5.7
		h76.3c3,0,5.5,2.6,5.5,5.7V72.9z"/>
	<path class="st1" d="M94.5,85H5.5c-3,0-5.5-2.6-5.5-5.7v-2.6h45.3v2H2v0.6C2,81.3,3.6,83,5.5,83h88.9c1.9,0,3.5-1.7,3.5-3.7v-0.6
		H54.7v-2H100v2.6C100,82.4,97.5,85,94.5,85z"/>
	<rect x="43.7" y="76.7" class="st1" width="14.2" height="2"/>
</g>
<path class="st1" d="M54.8,54.5l-10.3,0l-0.6-7.9c-2.3-0.6-4.5-1.6-6.5-2.9l-5.9,4.9l-7.2-7.3l5.1-6.1c-1.2-2.1-2-4.3-2.5-6.6
	L19.2,28l0-6.2l2,0l0,4.3l7.3,0.6l0.1,0.7c0.5,2.6,1.4,5.1,2.8,7.3l0.4,0.6L27,41.2l4.6,4.7l5.6-4.7l0.6,0.4
	c2.2,1.5,4.6,2.6,7.2,3.2l0.7,0.2l0.6,7.5l6.6,0l0.6-7.3l0.7-0.1c2.6-0.5,5.1-1.4,7.3-2.8l0.6-0.4l5.7,4.9l4.7-4.6l-4.7-5.6l0.4-0.6
	c1.5-2.2,2.6-4.6,3.2-7.2l0.2-0.7l7.5-0.6l0-4.3l2,0l0,6.2l-7.9,0.6c-0.6,2.3-1.6,4.5-2.9,6.5l5,5.9l-7.3,7.2L62,44.3
	c-2.1,1.2-4.3,2-6.6,2.5L54.8,54.5z M50.2,36.2C50.2,36.2,50.2,36.2,50.2,36.2c-7,0-12.7-5.7-12.7-12.8l2,0
	c0,5.9,4.8,10.7,10.7,10.8c0,0,0,0,0,0c2.9,0,5.5-1.1,7.6-3.1c2-2,3.2-4.7,3.2-7.6l2,0c0,3.4-1.3,6.6-3.7,9
	C56.8,34.9,53.6,36.2,50.2,36.2z"/>
</svg>
