<?xml version="1.0" encoding="utf-8"?>
<!-- Generator: Adobe Illustrator 27.7.0, SVG Export Plug-In . SVG Version: 6.00 Build 0)  -->
<svg version="1.1" id="Layer_1" xmlns="http://www.w3.org/2000/svg" xmlns:xlink="http://www.w3.org/1999/xlink" x="0px" y="0px"
	 viewBox="0 0 1200 800" style="enable-background:new 0 0 1200 800;" xml:space="preserve">
<style type="text/css">
	.st0{fill:#343E44;}
	.st1{fill:#DEE9F7;}
	.st2{fill:#CCCFD0;}
	.st3{fill:#B8BBBE;}
	.st4{fill:#9A9EA2;}
	.st5{fill:#F7F8FC;}
	.st6{fill:#E1E2E3;}
	.st7{fill:#27316D;}
	.st8{fill:#F9C647;}
	.st9{fill:#FFFFFF;}
	.st10{fill:#58ABDF;}
</style>
<g>
	<g>
		<g>
			<path class="st0" d="M918.3,762.6H51.5V197.4c0-8,6.5-14.4,14.4-14.4h837.9c8,0,14.4,6.5,14.4,14.4L918.3,762.6L918.3,762.6z"/>
			<rect x="92.9" y="230.2" class="st1" width="783.9" height="497.2"/>
		</g>
		<g>
			<path class="st2" d="M990.5,745.5L990.5,745.5H0l0,0c0,14.8,6.4,28.2,16.7,38h957.2C984.2,773.7,990.5,760.3,990.5,745.5z"/>
			<path class="st3" d="M154.7,783.5h-138C27.4,793.7,42.3,800,58.8,800h873c16.5,0,31.4-6.3,42.1-16.5H154.7"/>
			<path class="st4" d="M574.6,765.9H416c-2.9,0-5.3-2.4-5.3-5.3v-15.1H580v15.1C579.9,763.5,577.6,765.9,574.6,765.9z"/>
		</g>
	</g>
</g>
<g>
	<rect x="185.6" class="st5" width="619.2" height="726.3"/>
	<rect x="415.5" y="69.5" class="st6" width="174.5" height="9.2"/>
	<rect x="415.5" y="102.2" class="st6" width="174.5" height="9.2"/>
	<rect x="415.5" y="134.5" class="st6" width="174.5" height="9.2"/>
	<rect x="270.6" y="195.7" class="st6" width="447.3" height="9.2"/>
	<rect x="270.6" y="227.4" class="st6" width="447.3" height="9.2"/>
	<rect x="270.6" y="259" class="st6" width="447.3" height="9.2"/>
	<rect x="270.6" y="290.7" class="st6" width="447.3" height="9.2"/>
	<rect x="270.6" y="322.3" class="st6" width="447.3" height="9.2"/>
	<rect x="270.6" y="353.9" class="st6" width="447.3" height="9.2"/>
	<rect x="337" y="407.5" class="st6" width="381" height="9.2"/>
	<rect x="337" y="477.8" class="st6" width="381" height="9.2"/>
	<rect x="337" y="548.2" class="st6" width="381" height="9.2"/>
	<path class="st7" d="M326.5,162.1c-30.6,0-55.5-24.9-55.5-55.5h2.3c0,29.3,23.9,53.2,53.2,53.2c29.3,0,53.2-23.9,53.2-53.2
		c0-29.3-23.9-53.2-53.2-53.2v-2.3c30.6,0,55.5,24.9,55.5,55.5C382,137.2,357.1,162.1,326.5,162.1z"/>
	<g>
		<path class="st7" d="M273.3,106.6H271c0-0.8,0-1.5,0-2.3l2.3,0.1C273.3,105.1,273.3,105.9,273.3,106.6z"/>
		<path class="st7" d="M273.7,100.3l-2.3-0.3c0.4-3.1,1-6.2,1.9-9.2l2.2,0.7C274.6,94.3,274,97.3,273.7,100.3z M278.8,83.1l-2.1-1
			c1.4-2.8,3-5.5,4.9-8l1.9,1.4C281.6,77.8,280.1,80.4,278.8,83.1z M289.3,68.6l-1.6-1.7c2.2-2.2,4.7-4.2,7.2-6l1.3,1.9
			C293.7,64.5,291.4,66.5,289.3,68.6z M304,58.4l-1-2.1c2.8-1.3,5.8-2.4,8.8-3.2l0.6,2.2C309.6,56.1,306.7,57.1,304,58.4z
			 M321.3,53.6l-0.2-2.3c0.3,0,0.7-0.1,1-0.1l0.2,2.3C321.9,53.6,321.6,53.6,321.3,53.6z"/>
		<path class="st7" d="M324.3,53.4l-0.1-2.3c0.8,0,1.5,0,2.3,0v2.3C325.8,53.4,325,53.4,324.3,53.4z"/>
	</g>
	<path class="st8" d="M365.2,106.6c0,21.4-17.3,38.7-38.7,38.7c-21.4,0-38.7-17.3-38.7-38.7c0-21.4,17.3-38.7,38.7-38.7
		C347.9,67.9,365.2,85.2,365.2,106.6z"/>
	<g>
		<polygon class="st9" points="353.4,114.1 353.4,99.1 334,99.1 334,79.7 319,79.7 319,99.1 299.6,99.1 299.6,114.1 319,114.1 
			319,133.5 334,133.5 334,114.1 		"/>
		<path class="st7" d="M335.2,134.7l-17.4,0l0-19.4l-19.4,0V97.9h19.4l0-19.4l17.4,0v19.4h19.4l0,17.4l-19.4,0V134.7z M320.1,132.4
			l12.7,0V113l19.4,0l0-12.7h-19.4V80.8l-12.7,0l0,19.4h-19.4V113l19.4,0L320.1,132.4z"/>
	</g>
	<g>
		<path class="st8" d="M307.7,398.9c1.3-1.3,2.5-2.5,3.8-3.8c1.6-1.6,3.8-1.7,5.3-0.2c1.5,1.5,1.5,4.1,0,5.6c-1.9,2-3.8,3.9-5.7,5.8
			c-1.1,1.2-2.2,2.4-3.4,3.5c-0.5,0.5-1,1.1-1.6,1.6c-1,0.8-1.7,1.7-2.6,2.6c-3.2,3.3-6.5,6.6-9.8,10c-1.5,1.5-3.8,1.4-5.3-0.1
			c-0.4-0.4-0.8-0.9-1.3-1.4c-3.2-3.5-6.4-6.9-9.6-10.3c-1.2-1.3-1.4-3.4-0.5-4.9c1.4-2.3,4.2-2.3,6.2-0.1c2.4,2.7,4.9,5.3,7.3,8
			c0.5,0.5,0.7,0.4,1.2,0c2.3-2.4,4.6-4.8,7-7.1c2.5-2.5,5-5.1,7.4-7.6C306.6,400,307.1,399.5,307.7,398.9z"/>
		<path class="st6" d="M307.7,398.9c-0.5,0.5-1,1.1-1.6,1.6c0-1.4,0-2.8,0-4.3c0-0.6-0.2-0.7-0.7-0.7c-10.5,0-21,0-31.5,0
			c-0.7,0-0.9,0.3-0.9,0.9c0,10.5,0,21,0,31.5c0,0.7,0.3,0.8,0.9,0.8c10.5,0,21,0,31.4,0c0.6,0,0.8-0.1,0.8-0.8c0-5.5,0-10.9,0-16.4
			c0.5-0.5,1-1,1.6-1.6c0,6.5,0,13.1,0,19.6c0,0.9-0.5,0.8-1,0.8c-10.5,0-21,0-31.4,0c-1,0-2,0-3,0c-0.7,0-0.9-0.2-0.9-0.9
			c0-7.1,0-14.2,0-21.3c0-4.4,0-8.8,0-13.3c0-0.7,0.2-0.9,0.9-0.9c11.5,0,23.1,0,34.6,0c0.7,0,0.9,0.2,0.8,0.9
			C307.6,396.2,307.7,397.5,307.7,398.9z"/>
		<path class="st9" d="M306,411.5c0,5.5,0,10.9,0,16.4c0,0.7-0.3,0.8-0.8,0.8c-10.5,0-21,0-31.4,0c-0.6,0-0.9-0.1-0.9-0.8
			c0-10.5,0-21,0-31.5c0-0.7,0.2-0.9,0.9-0.9c10.5,0,21,0,31.5,0c0.6,0,0.8,0.2,0.7,0.7c0,1.4,0,2.8,0,4.3c-2.5,2.5-5,5.1-7.4,7.6
			c-2.3,2.4-4.6,4.7-7,7.1c-0.4,0.5-0.7,0.5-1.2,0c-2.4-2.7-4.9-5.3-7.3-8c-2-2.2-4.8-2.1-6.2,0.1c-0.9,1.5-0.7,3.5,0.5,4.9
			c3.2,3.5,6.4,6.9,9.6,10.3c0.4,0.4,0.8,0.9,1.3,1.4c1.4,1.6,3.8,1.6,5.3,0.1c3.3-3.3,6.5-6.6,9.8-10
			C304.3,413.2,305.1,412.3,306,411.5z"/>
	</g>
	<g>
		<path class="st8" d="M307.7,469.3c1.3-1.3,2.5-2.5,3.8-3.8c1.6-1.6,3.8-1.7,5.3-0.2c1.5,1.5,1.5,4.1,0,5.6c-1.9,2-3.8,3.9-5.7,5.8
			c-1.1,1.2-2.2,2.4-3.4,3.5c-0.5,0.5-1,1-1.6,1.6c-1,0.8-1.7,1.7-2.6,2.6c-3.2,3.3-6.5,6.6-9.8,10c-1.5,1.5-3.8,1.4-5.3-0.1
			c-0.4-0.4-0.8-0.9-1.3-1.4c-3.2-3.5-6.4-6.9-9.6-10.3c-1.2-1.3-1.4-3.4-0.5-4.9c1.4-2.3,4.2-2.3,6.2-0.1c2.4,2.7,4.9,5.3,7.3,8
			c0.5,0.5,0.7,0.4,1.2,0c2.3-2.4,4.6-4.8,7-7.1c2.5-2.5,5-5.1,7.4-7.6C306.6,470.4,307.1,469.8,307.7,469.3z"/>
		<path class="st6" d="M307.7,469.3c-0.5,0.5-1,1-1.6,1.6c0-1.4,0-2.8,0-4.3c0-0.6-0.2-0.7-0.7-0.7c-10.5,0-21,0-31.5,0
			c-0.7,0-0.9,0.3-0.9,0.9c0,10.5,0,21,0,31.5c0,0.7,0.3,0.8,0.9,0.8c10.5,0,21,0,31.4,0c0.6,0,0.8-0.1,0.8-0.8c0-5.5,0-10.9,0-16.4
			c0.5-0.5,1-1,1.6-1.6c0,6.5,0,13.1,0,19.6c0,0.9-0.5,0.8-1,0.8c-10.5,0-21,0-31.4,0c-1,0-2,0-3,0c-0.7,0-0.9-0.2-0.9-0.9
			c0-7.1,0-14.2,0-21.3c0-4.4,0-8.8,0-13.3c0-0.7,0.2-0.9,0.9-0.9c11.5,0,23.1,0,34.6,0c0.7,0,0.9,0.2,0.8,0.9
			C307.6,466.5,307.7,467.9,307.7,469.3z"/>
		<path class="st9" d="M306,481.8c0,5.5,0,10.9,0,16.4c0,0.7-0.3,0.8-0.8,0.8c-10.5,0-21,0-31.4,0c-0.6,0-0.9-0.1-0.9-0.8
			c0-10.5,0-21,0-31.5c0-0.7,0.2-0.9,0.9-0.9c10.5,0,21,0,31.5,0c0.6,0,0.8,0.2,0.7,0.7c0,1.4,0,2.8,0,4.3c-2.5,2.5-5,5.1-7.4,7.6
			c-2.3,2.4-4.6,4.7-7,7.1c-0.4,0.5-0.7,0.5-1.2,0c-2.4-2.7-4.9-5.3-7.3-8c-2-2.2-4.8-2.1-6.2,0.1c-0.9,1.5-0.7,3.5,0.5,4.9
			c3.2,3.5,6.4,6.9,9.6,10.3c0.4,0.4,0.8,0.9,1.3,1.4c1.4,1.6,3.8,1.6,5.3,0.1c3.3-3.3,6.5-6.6,9.8-10
			C304.3,483.6,305.1,482.7,306,481.8z"/>
	</g>
	<g>
		<path class="st8" d="M307.7,539.6c1.3-1.3,2.5-2.5,3.8-3.8c1.6-1.6,3.8-1.7,5.3-0.2c1.5,1.5,1.5,4.1,0,5.6c-1.9,2-3.8,3.9-5.7,5.8
			c-1.1,1.2-2.2,2.4-3.4,3.5c-0.5,0.5-1,1-1.6,1.6c-1,0.8-1.7,1.7-2.6,2.6c-3.2,3.3-6.5,6.6-9.8,10c-1.5,1.5-3.8,1.4-5.3-0.1
			c-0.4-0.4-0.8-0.9-1.3-1.4c-3.2-3.5-6.4-6.9-9.6-10.3c-1.2-1.3-1.4-3.4-0.5-4.9c1.4-2.3,4.2-2.3,6.2-0.1c2.4,2.7,4.9,5.3,7.3,8
			c0.5,0.5,0.7,0.4,1.2,0c2.3-2.4,4.6-4.8,7-7.1c2.5-2.5,5-5.1,7.4-7.6C306.6,540.7,307.1,540.2,307.7,539.6z"/>
		<path class="st6" d="M307.7,539.6c-0.5,0.5-1,1-1.6,1.6c0-1.4,0-2.8,0-4.3c0-0.6-0.2-0.7-0.7-0.7c-10.5,0-21,0-31.5,0
			c-0.7,0-0.9,0.3-0.9,0.9c0,10.5,0,21,0,31.5c0,0.7,0.3,0.8,0.9,0.8c10.5,0,21,0,31.4,0c0.6,0,0.8-0.1,0.8-0.8c0-5.5,0-10.9,0-16.4
			c0.5-0.5,1-1,1.6-1.6c0,6.5,0,13.1,0,19.6c0,0.9-0.5,0.8-1,0.8c-10.5,0-21,0-31.4,0c-1,0-2,0-3,0c-0.7,0-0.9-0.2-0.9-0.9
			c0-7.1,0-14.2,0-21.3c0-4.4,0-8.8,0-13.3c0-0.7,0.2-0.9,0.9-0.9c11.5,0,23.1,0,34.6,0c0.7,0,0.9,0.2,0.8,0.9
			C307.6,536.9,307.7,538.2,307.7,539.6z"/>
		<path class="st9" d="M306,552.2c0,5.5,0,10.9,0,16.4c0,0.7-0.3,0.8-0.8,0.8c-10.5,0-21,0-31.4,0c-0.6,0-0.9-0.1-0.9-0.8
			c0-10.5,0-21,0-31.5c0-0.7,0.2-0.9,0.9-0.9c10.5,0,21,0,31.5,0c0.6,0,0.8,0.2,0.7,0.7c0,1.4,0,2.8,0,4.3c-2.5,2.5-5,5.1-7.4,7.6
			c-2.3,2.4-4.6,4.7-7,7.1c-0.4,0.5-0.7,0.5-1.2,0c-2.4-2.7-4.9-5.3-7.3-8c-2-2.2-4.8-2.1-6.2,0.1c-0.9,1.5-0.7,3.5,0.5,4.9
			c3.2,3.5,6.4,6.9,9.6,10.3c0.4,0.4,0.8,0.9,1.3,1.4c1.4,1.6,3.8,1.6,5.3,0.1c3.3-3.3,6.5-6.6,9.8-10
			C304.3,553.9,305.1,553,306,552.2z"/>
	</g>
</g>
<g>
	<circle class="st8" cx="1027.5" cy="172.5" r="172.5"/>
	<g>
		<g>
			<path class="st9" d="M1021.6,274.4c-37.1-10.8-86.5-32.7-86.5-97.1V93.9l92.4-25l92.4,25v83.3c0,64.4-49.4,86.3-86.5,97.1
				l-5.9,1.7L1021.6,274.4z"/>
			<path class="st7" d="M1027.5,278.4l-6.5-1.9c-37.8-11-88.2-33.4-88.2-99.3v-85l94.7-25.6l94.7,25.6v85c0,66-50.3,88.3-88.2,99.3
				L1027.5,278.4z M937.4,95.6v81.6c0,62.9,48.5,84.3,84.9,95h0l5.2,1.5l5.2-1.5c76.1-22.2,84.9-64.8,84.9-95V95.6l-90.1-24.4
				L937.4,95.6z"/>
		</g>
		<path class="st10" d="M1025.3,261.8c-68.3-20-77.1-55.7-77.1-84.6v-73.3l79.3-21.4l79.3,21.4v73.3c0,55-41.2,74.1-77.1,84.6
			l-2.2,0.6L1025.3,261.8z"/>
		<g>
			<g>
				<path class="st9" d="M1067.3,180l3-3c10.9-10.9,10.9-28.5,0-39.4l-0.4-0.4c-10.9-10.9-28.5-10.9-39.4,0l-3,3l-3-3
					c-10.9-10.9-28.5-10.9-39.4,0l-0.4,0.4c-10.9,10.9-10.9,28.5,0,39.4l3,3l39.8,39.8L1067.3,180z"/>
				<path class="st7" d="M1027.5,223.1l-44.4-44.4c-5.7-5.7-8.8-13.3-8.8-21.3c0-8.1,3.1-15.6,8.8-21.3l0.4-0.4
					c11.8-11.8,30.9-11.8,42.6,0l1.4,1.4l1.4-1.4c5.7-5.7,13.3-8.8,21.3-8.8c8.1,0,15.6,3.1,21.3,8.8l0.4,0.4
					c5.7,5.7,8.8,13.3,8.8,21.3c0,8.1-3.1,15.6-8.8,21.3L1027.5,223.1z M1004.8,131.3c-6.6,0-13.1,2.5-18.1,7.5l-0.4,0.4
					c-4.8,4.8-7.5,11.3-7.5,18.1c0,6.8,2.7,13.3,7.5,18.1l41.2,41.2l41.2-41.2c4.8-4.8,7.5-11.3,7.5-18.1c0-6.8-2.7-13.3-7.5-18.1
					l-0.4-0.4c-4.8-4.8-11.3-7.5-18.1-7.5c-6.8,0-13.3,2.7-18.1,7.5l-4.6,4.6l-4.6-4.6C1017.9,133.8,1011.4,131.3,1004.8,131.3z"/>
			</g>
		</g>
	</g>
</g>
</svg>
