<?xml version="1.0" encoding="utf-8"?>
<!-- Generator: Adobe Illustrator 27.7.0, SVG Export Plug-In . SVG Version: 6.00 Build 0)  -->
<svg version="1.1" id="Layer_1" xmlns="http://www.w3.org/2000/svg" xmlns:xlink="http://www.w3.org/1999/xlink" x="0px" y="0px"
	 viewBox="0 0 200 200" style="enable-background:new 0 0 200 200;" xml:space="preserve">
<style type="text/css">
	.st0{fill:#27316D;}
	.st1{fill:#F9C647;}
	.st2{fill:#FFFFFF;}
</style>
<g>
	<path class="st0" d="M110.5,104.7H37.3c-12,0-21.8-9.8-21.8-21.8c0-12,9.8-21.8,21.8-21.8h34v4.2h-34c-9.7,0-17.6,7.9-17.6,17.6
		s7.9,17.6,17.6,17.6h73.3V104.7z"/>
	
		<ellipse transform="matrix(0.7071 -0.7071 0.7071 0.7071 -14.0958 86.0769)" class="st1" cx="96.9" cy="60.1" rx="56.8" ry="56.8"/>
	<g>
		<g>
			<g>
				<path class="st2" d="M158.6,192.2c0,1.4-1.1,2.5-2.5,2.5H4.6c-1.4,0-2.5-1.1-2.5-2.5v-62.3c0-1.4,1.1-2.5,2.5-2.5h151.5
					c1.4,0,2.5,1.1,2.5,2.5V192.2z"/>
				<path class="st0" d="M156.1,196.8H4.6c-2.6,0-4.6-2.1-4.6-4.6v-62.3c0-2.6,2.1-4.6,4.6-4.6h151.5c2.6,0,4.6,2.1,4.6,4.6v62.3
					C160.8,194.7,158.7,196.8,156.1,196.8z M4.6,129.4c-0.2,0-0.4,0.2-0.4,0.4v62.3c0,0.2,0.2,0.4,0.4,0.4h151.5
					c0.2,0,0.4-0.2,0.4-0.4v-62.3c0-0.2-0.2-0.4-0.4-0.4H4.6z"/>
			</g>
			<g>
				<g>
					<g>
						<line class="st2" x1="14.9" y1="144.5" x2="26.7" y2="144.5"/>
						<rect x="14.9" y="142.4" class="st0" width="11.9" height="4.2"/>
					</g>
					<g>
						<line class="st2" x1="34.7" y1="144.5" x2="46.6" y2="144.5"/>
						<rect x="34.7" y="142.4" class="st0" width="11.9" height="4.2"/>
					</g>
					<g>
						<line class="st2" x1="54.6" y1="144.5" x2="66.5" y2="144.5"/>
						<rect x="54.6" y="142.4" class="st0" width="11.9" height="4.2"/>
					</g>
					<g>
						<line class="st2" x1="74.4" y1="144.5" x2="86.3" y2="144.5"/>
						<rect x="74.4" y="142.4" class="st0" width="11.9" height="4.2"/>
					</g>
					<g>
						<line class="st2" x1="94.3" y1="144.5" x2="106.2" y2="144.5"/>
						<rect x="94.3" y="142.4" class="st0" width="11.9" height="4.2"/>
					</g>
					<g>
						<line class="st2" x1="114.2" y1="144.5" x2="126" y2="144.5"/>
						<rect x="114.2" y="142.4" class="st0" width="11.9" height="4.2"/>
					</g>
					<g>
						<line class="st2" x1="134" y1="144.5" x2="145.9" y2="144.5"/>
						<rect x="134" y="142.4" class="st0" width="11.9" height="4.2"/>
					</g>
				</g>
				<g>
					<g>
						<line class="st2" x1="14.9" y1="161" x2="26.7" y2="161"/>
						<rect x="14.9" y="158.9" class="st0" width="11.9" height="4.2"/>
					</g>
					<g>
						<line class="st2" x1="34.7" y1="161" x2="46.6" y2="161"/>
						<rect x="34.7" y="158.9" class="st0" width="11.9" height="4.2"/>
					</g>
					<g>
						<line class="st2" x1="54.6" y1="161" x2="66.5" y2="161"/>
						<rect x="54.6" y="158.9" class="st0" width="11.9" height="4.2"/>
					</g>
					<g>
						<line class="st2" x1="74.4" y1="161" x2="86.3" y2="161"/>
						<rect x="74.4" y="158.9" class="st0" width="11.9" height="4.2"/>
					</g>
					<g>
						<line class="st2" x1="94.3" y1="161" x2="106.2" y2="161"/>
						<rect x="94.3" y="158.9" class="st0" width="11.9" height="4.2"/>
					</g>
					<g>
						<line class="st2" x1="114.2" y1="161" x2="126" y2="161"/>
						<rect x="114.2" y="158.9" class="st0" width="11.9" height="4.2"/>
					</g>
					<g>
						<line class="st2" x1="134" y1="161" x2="145.9" y2="161"/>
						<rect x="134" y="158.9" class="st0" width="11.9" height="4.2"/>
					</g>
				</g>
				<g>
					<g>
						<line class="st2" x1="14.9" y1="177.5" x2="26.7" y2="177.5"/>
						<rect x="14.9" y="175.4" class="st0" width="11.9" height="4.2"/>
					</g>
					<g>
						<line class="st2" x1="34.7" y1="177.5" x2="46.6" y2="177.5"/>
						<rect x="34.7" y="175.4" class="st0" width="11.9" height="4.2"/>
					</g>
					<g>
						<line class="st2" x1="54.6" y1="177.5" x2="126.2" y2="177.5"/>
						<rect x="54.6" y="175.4" class="st0" width="71.6" height="4.2"/>
					</g>
					<g>
						<line class="st2" x1="134" y1="177.5" x2="145.9" y2="177.5"/>
						<rect x="134" y="175.4" class="st0" width="11.9" height="4.2"/>
					</g>
				</g>
			</g>
		</g>
	</g>
	<path class="st0" d="M177.5,145.4h-17.3v-4.2h17.3c10.1,0,18.2-8.2,18.2-18.2s-8.2-18.2-18.2-18.2H53.1v-4.2h124.4
		c12.4,0,22.5,10.1,22.5,22.5C200,135.3,189.9,145.4,177.5,145.4z"/>
	<g>
		<rect x="89.3" y="36.4" class="st2" width="15.1" height="47.3"/>
		<rect x="73.2" y="52.5" class="st2" width="47.3" height="15.1"/>
	</g>
</g>
</svg>
