<?xml version="1.0" encoding="utf-8"?>
<!-- Generator: Adobe Illustrator 27.7.0, SVG Export Plug-In . SVG Version: 6.00 Build 0)  -->
<svg version="1.1" id="Layer_1" xmlns="http://www.w3.org/2000/svg" xmlns:xlink="http://www.w3.org/1999/xlink" x="0px" y="0px"
	 viewBox="0 0 200 200" style="enable-background:new 0 0 200 200;" xml:space="preserve">
<style type="text/css">
	.st0{fill:#F9C647;}
	.st1{fill:#58ABDF;}
	.st2{fill:#27316D;}
</style>
<g>
	<polyline class="st0" points="37.2,198.9 37.2,176.6 1.4,176.6 1.4,198.9 	"/>
	<polyline class="st1" points="90.8,198.9 90.8,149.8 55,149.8 55,198.9 	"/>
	<polyline class="st0" points="144.3,198.9 144.3,28.1 108.6,28.1 108.6,198.9 	"/>
	<polyline class="st2" points="197.9,198.9 197.9,73.9 162.2,73.9 162.2,198.9 	"/>
	<polygon class="st2" points="2.9,164.6 0,161.7 55,106.7 72.9,124.5 196.5,0.9 199.4,3.9 72.9,130.3 55,112.5 	"/>
	<polygon class="st2" points="200,38.1 195.9,38.1 195.9,4.5 162.2,4.5 162.2,0.3 200,0.3 	"/>
</g>
</svg>
