<?xml version="1.0" encoding="utf-8"?>
<!-- Generator: Adobe Illustrator 27.7.0, SVG Export Plug-In . SVG Version: 6.00 Build 0)  -->
<svg version="1.1" id="Layer_1" xmlns="http://www.w3.org/2000/svg" xmlns:xlink="http://www.w3.org/1999/xlink" x="0px" y="0px"
	 viewBox="0 0 1200 800" style="enable-background:new 0 0 1200 800;" xml:space="preserve">
<style type="text/css">
	.st0{fill:#E1E2E3;}
	.st1{fill:#F7F8FC;}
	.st2{fill:#F9C647;}
	.st3{fill:#FCE080;}
	.st4{fill:#FFBE80;}
	.st5{fill:#343E44;}
	.st6{fill:#58ABDF;}
	.st7{fill:#95AB72;}
	.st8{fill:#D1E2BA;}
	.st9{opacity:0.5;fill:#95AB72;enable-background:new    ;}
	.st10{fill:#EAECD5;}
	.st11{fill-rule:evenodd;clip-rule:evenodd;fill:#343E44;}
	.st12{opacity:0.15;}
	.st13{fill:#FFFFFF;}
</style>
<g>
	<polygon class="st0" points="612.4,5.3 1103.2,115.2 981.3,778 447.8,698 	"/>
	<polygon class="st1" points="558.7,0 1057.9,62.2 1000.2,733.7 461.5,705.3 	"/>
	<path class="st0" d="M787.5,213.9c67.9,7.6,135.9,15.2,203.8,22.7c1.2,0.1,2.1,0.1,1.7,3.2c-0.4,2.9-0.9,3.3-2.4,3.2
		c-136-15.2-272-30.4-408-45.6c-1.8-0.2-2.3-2.6-1.3-5.6c0.2-0.6,0.5-0.8,0.8-0.8c0.5,0,1.1,0.1,1.6,0.2
		C651.7,198.7,719.6,206.3,787.5,213.9z"/>
	<path class="st0" d="M783,251.1c-67.9-7.6-135.9-15.2-203.8-22.7c-1.4-0.1-2.1-0.3-1.8-3.5c0.4-3.3,1.2-3,2.5-2.9
		c135.9,15.2,271.8,30.4,407.6,45.5c2.1,0.2,2.5,1.5,1.6,5.3c-0.2,1-0.6,1.2-1,1.1c-0.5-0.1-1-0.1-1.4-0.2
		C918.8,266.2,850.9,258.7,783,251.1z"/>
	<path class="st0" d="M793.5,158.1c-67.9-7.6-135.9-15.2-203.8-22.8c-1-0.1-2.1,0.4-1.8-2.9c0.3-3.3,1.3-3,2.5-2.9
		c132,14.8,264.1,29.5,396.1,44.3c4,0.4,8,1,12,1.3c1.2,0.1,1.6,0.6,1.4,3c-0.3,2.4-0.8,3-2.1,2.8c-23.5-2.7-47.1-5.3-70.7-7.9
		C882.6,168.1,838,163.1,793.5,158.1z"/>
	<path class="st0" d="M789.9,189c-67.9-7.6-135.9-15.2-203.8-22.8c-1-0.1-2.2,0.3-1.8-2.9c0.3-2.6,0.9-3.1,2.2-2.9
		c136.1,15.2,272.2,30.4,408.3,45.6c1.6,0.2,2.1,2.3,1.2,5c-0.3,0.8-0.6,0.8-1,0.8c-0.5,0-1-0.1-1.4-0.2
		C925.7,204.2,857.8,196.6,789.9,189z"/>
	<path class="st0" d="M779.6,282c-40.3-4.5-80.5-9-120.8-13.4c-1.4-0.2-1.9-0.6-1.6-3.5c0.3-3,1-3.1,2.3-2.9
		c42.6,4.8,85.2,9.6,127.9,14.3c37.8,4.2,75.6,8.4,113.4,12.7c2.4,0.3,2.6,0.8,1.8,5c-0.2,1.1-0.5,1.5-1.1,1.4
		c-0.5-0.1-1-0.1-1.4-0.2C859.9,291,819.8,286.5,779.6,282z"/>
	<path class="st0" d="M630.1,84.1c10.5,1.2,21,2.5,31.6,3.4c2.5,0.2,4.2,4.3,3.8,8.4c-0.6,5.9-2.6,9.4-5.5,9.5c-0.3,0-0.5,0-0.8-0.1
		c-20.7-2.3-41.4-4.6-62.2-6.9c-2.4-0.3-4.3-3-4.4-6.3c-0.2-4.9,1.2-9.1,3.6-11.2c0.7-0.7,1.4-0.5,2.1-0.4
		C608.9,81.7,619.5,82.9,630.1,84.1z"/>
</g>
<g>
	<path class="st2" d="M1134.1,163.1l-5.3,69.1l-173,551c-3.4,10.9-15.1,16.9-26,13.4l0,0c-10.8-3.6-16.7-15.2-13.1-26l184.1-550.9
		L1134.1,163.1z"/>
	<polygon class="st3" points="949.9,757.5 1118.9,229.9 1109.3,227 933.9,753 	"/>
	<path class="st4" d="M1134.1,163.1l-5.3,69.1c0,0-2.5,5-5.3,2.1c-2.8-2.8-4.6-4.5-4.6-4.5s-3.8,2.6-6.8,2.1c-3-0.4-2.8-5-2.8-5
		s-2.9,4.7-6.1,2.5s-2.4-9.9-2.4-9.9L1134.1,163.1z"/>
	<polygon class="st5" points="1134.1,163.1 1132.4,185.7 1123.8,180.6 	"/>
	<path class="st6" d="M953.5,790.7l9.5-30.3l-39.2-11l-10,28.9c-2.5,7.2,1.6,15,8.9,17.1l14.4,4.1
		C944,801.5,951.3,797.6,953.5,790.7z"/>
</g>
<g>
	<g>
		<g>
			<path class="st7" d="M367.7,587.3l-6.7-74.2c-2.2-24.4-5.3-48.7-9.3-72.9l-12.2-73.5l486.9-71l6.2,31.4
				c11.4,57.5,18.8,115.8,22.3,174.4l1.9,32L367.7,587.3z"/>
		</g>
		<path class="st8" d="M382.3,569.9l-4.5-52.9c-2.4-28.4-6-56.6-10.8-84.6l-9-52.3l451.5-64.7l0,0c14.1,67,22.8,135.1,26,203.5l0,0
			L382.3,569.9z"/>
		<path class="st7" d="M601.7,530.3c-39.2,4.5-75.4-28.9-81.2-74.6s20.8-87.1,59.8-92.6c39.5-5.6,76.8,27.7,82.8,74.4
			S641.4,525.8,601.7,530.3z"/>
		<g>
			<path class="st7" d="M450.7,498.7c-15.4,1.9-29.8-11.5-32.1-30c-2.4-18.4,8.2-35,23.5-37.1c15.5-2.1,30,11.3,32.4,29.9
				C476.9,480.2,466.2,496.8,450.7,498.7z"/>
			<path class="st7" d="M749.6,462.1c-16.9,2.1-32.5-11.9-35-31.2s9.2-36.8,26-39c17-2.3,32.8,11.7,35.3,31.2
				C778.4,442.6,766.6,460.1,749.6,462.1z"/>
		</g>
		<g>
			<path class="st7" d="M825.1,489.9c-12.7,1.5-21.7,12.2-20.2,24c1.5,11.8,13,20.2,25.7,18.8s21.9-12.2,20.4-24
				C849.4,496.8,837.9,488.5,825.1,489.9z"/>
			<path class="st7" d="M801.1,302c-12.6,1.8-21.6,12.9-20.1,24.6c1.5,11.8,12.9,19.9,25.6,18.1c12.7-1.8,21.8-12.8,20.3-24.6
				S813.8,300.2,801.1,302z"/>
			<path class="st7" d="M363.1,365.8c-11,1.6-18.8,11.8-17.4,22.8s11.5,18.7,22.5,17.1c11.1-1.5,18.9-11.8,17.5-22.8
				C384.3,371.8,374.2,364.1,363.1,365.8z"/>
			<path class="st7" d="M385.6,541.7c-11.1,1.3-18.9,11.3-17.5,22.2c1.4,11,11.5,18.9,22.6,17.7s19-11.2,17.6-22.3
				C406.9,548.3,396.7,540.4,385.6,541.7z"/>
		</g>
		<path class="st8" d="M630.9,451.4c-2.1-3.1-4.8-5.8-8.1-7.8s-7.4-3.6-12.3-4.6l0,0l0,0c-2.3-0.5-6.3-0.9-12.5-1.4
			c-0.8-0.1-1.4-0.6-1.5-1.4l-3.4-26.9c-0.1-1.1,0.9-2,1.9-1.8c2.6,0.5,4.8,1.4,6.6,2.6c2.7,1.9,4.8,4.9,6.1,9l0,0
			c0.3,0.8,1.1,1.3,2,1l0,0l14.8-3.8l0,0c0.9-0.2,1.5-1.1,1.2-2l0,0c-2.4-7.6-7.2-13.3-14.5-16.8c-4.9-2.4-11.2-3.6-18.6-3.5
			c-0.8,0-1.5-0.6-1.6-1.4l-0.6-4.4l0,0c-0.1-0.9-0.9-1.5-1.8-1.3l0,0l-8.5,1.2l0,0c-0.9,0.1-1.5,0.9-1.4,1.8l0,0l0.6,4.4
			c0.1,0.8-0.4,1.5-1.2,1.7c-3.6,0.9-6.9,2-9.7,3.3c-3.6,1.6-6.6,3.5-8.9,5.7c-6.9,6.4-9.8,14-8.7,22.7c0.6,4.9,2.5,9.2,5.6,12.7
			s7.2,6.1,12.3,7.7c5.6,1.7,11.2,2.8,16.5,3.2c0.8,0.1,1.4,0.6,1.5,1.4l3.9,30.6c0.1,1-0.8,1.9-1.9,1.8c-1.2-0.2-2.5-0.5-3.6-0.8
			c-2.4-0.8-4.6-2-6.8-3.7c-2.9-2.4-5.3-6.5-7.1-12.2l0,0c-0.3-0.8-1.2-1.3-2-1l0,0l-14,4l0,0c-0.8,0.2-1.3,1-1.1,1.8l0,0
			c1.3,6.2,4,11.3,8,15.3c4,3.9,8.5,6.6,13.4,8c4.2,1.2,9.4,1.8,15.6,1.9c0.8,0,1.5,0.6,1.6,1.4l0.6,4.5l0,0
			c0.1,0.9,0.9,1.5,1.8,1.4l0,0l8.5-1l0,0c0.9-0.1,1.5-0.9,1.4-1.8l0,0l-0.6-4.5c-0.1-0.8,0.5-1.6,1.3-1.7c4-0.9,7.6-2.1,10.9-3.7
			c4.1-2,7.7-4.7,10.7-7.9c6-6.5,8.5-14.1,7.4-22.7C634.2,458.1,632.9,454.6,630.9,451.4z M568.1,424.5c-0.5-3.6,0.6-6.8,3.1-9.8
			c1.9-2.3,4.5-4.1,7.8-5.4c1-0.4,2.1,0.2,2.2,1.2l3.1,24.1c0.1,1.1-0.9,2-2,1.8c-4.2-0.8-7.4-2-9.6-3.6
			C570.1,430.7,568.5,428,568.1,424.5z M616.6,465.1c0.6,4.6-0.6,8.5-3.6,12c-2.2,2.6-5.1,4.6-8.5,5.9c-1,0.4-2.1-0.2-2.3-1.3
			l-3.5-27.4c-0.1-1.1,0.9-2,2-1.8c5.3,1,9.1,2.3,11.3,3.9C614.6,458.4,616.1,461.2,616.6,465.1z"/>
	</g>
	<polygon class="st9" points="379,432.2 845.9,407.2 851.4,451 	"/>
	<g>
		<g>
			<path class="st7" d="M374.2,654.5l4.4-74.3c1.4-24.5,2-48.9,1.6-73.4l-1.1-74.5l492.1,1.9l1.5,32c2.7,58.6,1.5,117.3-3.8,175.7
				l-2.9,31.9L374.2,654.5z"/>
		</g>
		<path class="st8" d="M391.2,639.3l3.4-52.9c1.8-28.4,2.4-56.9,1.8-85.3l-1.1-53l456.1,2.9l0,0c4,68.4,2.5,137-4.4,205.1l0,0
			L391.2,639.3z"/>
		<path class="st7" d="M614.1,632.8c-39.4-1.4-70.2-39.8-69.2-85.8s33.4-83,72.9-82.7c39.9,0.3,71.8,38.8,70.8,85.8
			S654,634.1,614.1,632.8z"/>
		<g>
			<path class="st7" d="M469.5,579.2c-15.5-0.4-27.7-15.8-27.3-34.4c0.4-18.6,13.3-33.4,28.8-33.2c15.6,0.3,28,15.7,27.6,34.4
				C498.1,564.7,485.1,579.6,469.5,579.2z"/>
			<path class="st7" d="M770.5,587.3c-17-0.5-30.4-16.6-30-36.1s14.5-35,31.5-34.7c17.1,0.3,30.7,16.4,30.3,36.1
				S787.6,587.7,770.5,587.3z"/>
		</g>
		<g>
			<path class="st7" d="M841,626c-12.8-0.4-23.3,8.9-23.5,20.7c-0.3,11.9,9.8,21.9,22.6,22.4s23.4-8.8,23.7-20.7
				S853.8,626.4,841,626z"/>
			<path class="st7" d="M845.1,436.6c-12.8-0.1-23.3,9.5-23.5,21.4c-0.3,11.9,9.8,21.6,22.6,21.7s23.4-9.4,23.7-21.4
				C868.2,446.3,858,436.6,845.1,436.6z"/>
			<path class="st7" d="M402.5,434.6c-11.1,0-20.3,8.9-20.6,20s8.6,20.2,19.7,20.3c11.2,0.1,20.5-8.8,20.7-20
				C422.6,443.8,413.7,434.7,402.5,434.6z"/>
			<path class="st7" d="M398.7,611.9c-11.1-0.4-20.3,8.3-20.6,19.4c-0.2,11.1,8.6,20.4,19.7,20.9c11.2,0.4,20.5-8.3,20.7-19.4
				C418.7,621.6,409.8,612.3,398.7,611.9z"/>
		</g>
		<path class="st8" d="M654.6,559.1c-1.6-3.4-3.9-6.4-6.9-8.9s-6.8-4.6-11.5-6.4l0,0l0,0c-2.2-0.8-6.1-1.9-12.1-3.2
			c-0.8-0.2-1.3-0.8-1.3-1.6l0.6-27.1c0-1.1,1.1-1.8,2.2-1.5c2.5,0.9,4.6,2.1,6.2,3.6c2.4,2.2,4,5.5,4.7,9.8l0,0
			c0.1,0.8,0.9,1.4,1.8,1.3l0,0l15.2-1.6l0,0c0.9-0.1,1.6-0.9,1.5-1.8l0,0c-1.2-7.9-5.2-14.2-11.8-18.8c-4.5-3.2-10.5-5.2-17.9-6.2
			c-0.8-0.1-1.4-0.8-1.4-1.6l0.1-4.5l0,0c0-0.9-0.7-1.6-1.6-1.6l0,0l-8.5-0.1l0,0c-0.9,0-1.7,0.7-1.7,1.6l0,0l-0.1,4.5
			c0,0.8-0.7,1.5-1.5,1.5c-3.7,0.4-7.1,1-10,1.8c-3.8,1.1-7,2.5-9.6,4.3c-7.8,5.3-11.8,12.4-12,21.2c-0.1,4.9,1.1,9.4,3.7,13.4
			c2.5,3.9,6.3,7.1,11.1,9.4c5.3,2.6,10.6,4.4,15.8,5.6c0.8,0.2,1.3,0.8,1.3,1.6l-0.7,30.8c0,1-1.1,1.8-2.1,1.5
			c-1.2-0.4-2.4-0.8-3.5-1.4c-2.2-1.1-4.3-2.7-6.1-4.7c-2.5-2.8-4.3-7.2-5.2-13.1l0,0c-0.1-0.9-0.9-1.4-1.8-1.3l0,0l-14.5,1.8l0,0
			c-0.8,0.1-1.5,0.8-1.4,1.7l0,0c0.4,6.3,2.3,11.8,5.7,16.3c3.3,4.5,7.4,7.8,12.1,9.9c4,1.8,9.1,3.2,15.1,4.2
			c0.8,0.1,1.4,0.8,1.4,1.6l-0.1,4.6l0,0c0,0.9,0.7,1.6,1.6,1.6l0,0l8.5,0.3l0,0c0.9,0,1.7-0.7,1.7-1.5l0,0l0.1-4.5
			c0-0.8,0.7-1.5,1.5-1.5c4.1-0.3,7.9-0.9,11.3-2c4.4-1.4,8.3-3.5,11.7-6.2c6.9-5.5,10.5-12.7,10.7-21.3
			C657,566.2,656.2,562.5,654.6,559.1z M596.5,523.1c0.1-3.6,1.6-6.6,4.5-9.2c2.2-1.9,5.1-3.3,8.6-4.2c1-0.2,2.1,0.5,2,1.6
			l-0.5,24.3c0,1.1-1.1,1.8-2.2,1.5c-4.1-1.4-7.1-3.1-8.9-5C597.6,529.6,596.5,526.7,596.5,523.1z M638.5,570.5
			c-0.1,4.6-1.8,8.3-5.3,11.3c-2.6,2.3-5.7,3.8-9.3,4.6c-1.1,0.2-2.1-0.5-2-1.6l0.6-27.6c0-1.1,1.1-1.8,2.2-1.5
			c5.1,1.8,8.7,3.6,10.5,5.5C637.5,563.6,638.6,566.6,638.5,570.5z"/>
	</g>
	<polygon class="st9" points="380.2,506.7 827.3,541.8 825.8,611.3 	"/>
	<g>
		<g>
			<path class="st7" d="M313.8,720.4l13.5-73.2c4.4-24.1,8-48.3,10.6-72.7l8-74L834,562.8l-2.5,32c-4.5,58.5-13,116.6-25.4,173.9
				l-6.8,31.3L313.8,720.4z"/>
		</g>
		<path class="st8" d="M332.5,707.5l9.9-52.1c5.3-28,9.4-56.1,12.3-84.4l5.4-52.8l452.3,59l0,0c-4.5,68.4-14.4,136.2-29.6,203l0,0
			L332.5,707.5z"/>
		<path class="st7" d="M554.6,728.3c-39-6.2-64.8-48.1-58.2-93.6c6.6-45.5,43.4-78.3,82.5-73.1c39.6,5.3,66.5,47.3,59.8,93.9
			S594,734.6,554.6,728.3z"/>
		<g>
			<path class="st7" d="M417.6,657.4c-15.4-2.3-25.6-19.1-22.9-37.5s17.3-31.6,32.6-29.4c15.5,2.2,25.8,19,23.1,37.5
				C447.8,646.5,433,659.7,417.6,657.4z"/>
			<path class="st7" d="M715.3,702.4c-16.8-2.5-28.1-20.2-25.3-39.5s18.7-33,35.6-30.6c16.9,2.4,28.5,20.1,25.6,39.5
				C748.3,691.3,732.2,704.9,715.3,702.4z"/>
		</g>
		<g>
			<path class="st7" d="M780.6,749.4c-12.6-2-24.2,5.9-25.9,17.7c-1.7,11.7,7.1,22.9,19.7,25c12.6,2.1,24.3-5.8,26.1-17.7
				C802.1,762.6,793.2,751.4,780.6,749.4z"/>
			<path class="st7" d="M807.9,562c-12.7-1.6-24.3,6.6-26,18.3s7.1,22.6,19.8,24.3s24.4-6.5,26.1-18.3
				C829.6,574.5,820.6,563.6,807.9,562z"/>
			<path class="st7" d="M368.9,505.7c-11.1-1.4-21.3,6.3-22.9,17.3s6,21.1,17.1,22.6s21.4-6.2,23-17.3S380,507.1,368.9,505.7z"/>
			<path class="st7" d="M343.3,681.2c-11-1.7-21.2,5.8-22.8,16.7c-1.6,11,6,21.3,17,23.1s21.3-5.7,22.9-16.7
				S354.3,682.9,343.3,681.2z"/>
		</g>
		<path class="st8" d="M603.8,660.2c-1.1-3.6-3.1-6.8-5.7-9.7c-2.6-2.8-6.2-5.4-10.6-7.8l0,0l0,0c-2-1.1-5.9-2.6-11.6-4.7
			c-0.7-0.3-1.2-1-1.1-1.7l3.9-26.9c0.2-1.1,1.4-1.7,2.4-1.2c2.4,1.2,4.3,2.6,5.7,4.3c2.1,2.5,3.3,6,3.4,10.3l0,0
			c0,0.8,0.7,1.5,1.6,1.5l0,0l15.2,0.3l0,0c0.9,0,1.7-0.7,1.7-1.6l0,0c-0.2-8-3.4-14.7-9.4-20.1c-4.1-3.7-9.8-6.5-17-8.4
			c-0.8-0.2-1.3-1-1.2-1.7l0.6-4.4l0,0c0.1-0.9-0.5-1.7-1.4-1.8l0,0l-8.5-1.2l0,0c-0.9-0.1-1.7,0.5-1.9,1.3l0,0l-0.6,4.4
			c-0.1,0.8-0.8,1.4-1.7,1.4c-3.7-0.1-7.2,0.1-10.2,0.6c-3.9,0.6-7.3,1.6-10.1,3.1c-8.4,4.3-13.2,10.9-14.5,19.5
			c-0.7,4.9,0,9.5,2,13.8c2,4.2,5.3,7.8,9.8,10.7c5,3.2,10,5.7,15,7.5c0.7,0.3,1.2,1,1.1,1.7l-4.4,30.5c-0.2,1-1.3,1.6-2.3,1.2
			c-1.2-0.5-2.2-1.1-3.3-1.8c-2.1-1.4-3.9-3.2-5.5-5.4c-2.2-3.1-3.4-7.7-3.6-13.7l0,0c0-0.9-0.8-1.5-1.7-1.5l0,0l-14.6,0.1l0,0
			c-0.8,0-1.5,0.6-1.6,1.5l0,0c-0.4,6.3,0.9,12,3.6,16.9c2.8,4.9,6.4,8.7,10.8,11.3c3.7,2.3,8.6,4.3,14.5,6c0.8,0.2,1.3,1,1.2,1.8
			l-0.7,4.5l0,0c-0.1,0.9,0.5,1.7,1.4,1.8l0,0l8.4,1.3l0,0c0.9,0.1,1.7-0.4,1.9-1.3l0,0l0.7-4.5c0.1-0.8,0.9-1.4,1.7-1.3
			c4.1,0.3,7.9,0,11.5-0.6c4.5-0.8,8.7-2.4,12.4-4.7c7.6-4.7,12-11.3,13.3-19.8C605.2,667.5,605,663.8,603.8,660.2z M550.6,617.3
			c0.5-3.6,2.4-6.4,5.6-8.6c2.5-1.7,5.5-2.7,9-3.1c1.1-0.1,2,0.8,1.8,1.8l-3.5,24.1c-0.2,1.1-1.4,1.7-2.4,1.2
			c-3.9-1.9-6.6-3.9-8.3-6.1C550.8,623.9,550.1,620.9,550.6,617.3z M586.4,669.5c-0.7,4.5-2.8,8-6.6,10.6c-2.8,1.9-6.1,3.1-9.8,3.4
			c-1.1,0.1-2-0.8-1.8-1.8l4-27.3c0.2-1.1,1.4-1.7,2.4-1.2c4.9,2.4,8.2,4.6,9.8,6.8C586.3,662.5,587,665.7,586.4,669.5z"/>
	</g>
</g>
<g>
	<path class="st1" d="M63.4,335.2c24.1,150.6,48.1,300.3,62.6,391c2.3,14.4,15.8,24.2,30.2,21.9l338.4-54.2
		c14.4-2.3,24.2-15.8,21.9-30.2c-14.5-90.7-38.5-240.4-62.6-391c-58.5,29.2-122.4,50.2-190.5,61.1S128.1,344.7,63.4,335.2z"/>
	<path class="st5" d="M402.9,121.1L64.5,175.4c-14.4,2.3-24.2,15.8-21.9,30.2c5.3,33,12.6,78.4,20.8,129.6c64.7,9.5,132,9.4,200-1.5
		s131.9-31.9,190.5-61.1c-8.2-51.2-15.5-96.6-20.8-129.6C430.8,128.6,417.2,118.8,402.9,121.1z"/>
	<path class="st10" d="M406.9,254L95.6,303.9c-7.5,1.2-14.5-3.9-15.7-11.4l-12.3-77c-1.2-7.5,3.9-14.5,11.4-15.7l311.3-49.9
		c7.5-1.2,14.5,3.9,15.7,11.4l12.3,77C419.5,245.7,414.4,252.8,406.9,254z"/>
	<g>
		<g>
			<polygon class="st11" points="384.2,197.6 372.8,199.4 369.1,196.6 371.8,192.9 383.2,191 387,193.8 			"/>
			<polygon class="st11" points="387.4,217.1 376,218.9 372.2,216.2 374.9,212.4 386.3,210.6 390.1,213.3 			"/>
			<polygon class="st11" points="390.5,236.6 379.1,238.4 375.3,235.7 378.1,231.9 389.5,230.1 393.2,232.8 			"/>
			<polygon class="st11" points="372.2,200.3 374,211.7 371.3,215.5 367.5,212.8 365.7,201.4 368.4,197.6 			"/>
			<polygon class="st11" points="391.7,197.2 393.5,208.6 390.8,212.4 387,209.6 385.2,198.2 387.9,194.5 			"/>
			<polygon class="st11" points="375.3,219.8 377.1,231.2 374.4,235 370.6,232.3 368.8,220.9 371.5,217.1 			"/>
			<polygon class="st11" points="394.8,216.7 396.6,228.1 393.9,231.9 390.1,229.1 388.3,217.8 391,214 			"/>
		</g>
		<g>
			<polygon class="st11" points="351.7,202.8 340.3,204.6 336.5,201.9 339.3,198.1 350.7,196.3 354.4,199 			"/>
			<polygon class="st11" points="358,241.8 346.6,243.6 342.8,240.9 345.5,237.1 356.9,235.3 360.7,238 			"/>
			<polygon class="st11" points="339.6,205.5 341.5,216.9 338.7,220.7 334.9,218 333.1,206.6 335.9,202.8 			"/>
			<polygon class="st11" points="359.1,202.4 361,213.8 358.2,217.6 354.5,214.8 352.6,203.4 355.4,199.7 			"/>
			<polygon class="st11" points="342.8,225.1 344.6,236.4 341.8,240.2 338.1,237.5 336.2,226.1 339,222.3 			"/>
			<polygon class="st11" points="362.3,221.9 364.1,233.3 361.4,237.1 357.6,234.4 355.8,223 358.5,219.2 			"/>
		</g>
		
			<rect x="330.7" y="240.1" transform="matrix(0.5863 -0.8101 0.8101 0.5863 -58.6527 370.0791)" class="st11" width="4.7" height="4.7"/>
		<g>
			<polygon class="st11" points="314.4,209.4 303,211.2 299.2,208.4 301.9,204.7 313.3,202.8 317.1,205.6 			"/>
			<polygon class="st11" points="320.6,248.4 309.2,250.2 305.5,247.5 308.2,243.7 319.6,241.9 323.4,244.6 			"/>
			<polygon class="st11" points="302.3,212.1 304.1,223.5 301.4,227.3 297.6,224.6 295.8,213.2 298.5,209.4 			"/>
			<polygon class="st11" points="321.8,209 323.6,220.4 320.9,224.2 317.1,221.4 315.3,210 318,206.3 			"/>
			<polygon class="st11" points="305.4,231.6 307.3,243 304.5,246.8 300.7,244.1 298.9,232.7 301.7,228.9 			"/>
			<polygon class="st11" points="324.9,228.5 326.8,239.9 324,243.7 320.3,241 318.4,229.6 321.2,225.8 			"/>
		</g>
		<g>
			<polygon class="st11" points="280.8,214.6 269.4,216.4 265.7,213.7 268.4,209.9 279.8,208.1 283.6,210.8 			"/>
			<polygon class="st11" points="284,234.1 272.6,235.9 268.8,233.2 271.5,229.4 282.9,227.6 286.7,230.3 			"/>
			<polygon class="st11" points="287.1,253.6 275.7,255.4 271.9,252.7 274.7,248.9 286,247.1 289.8,249.8 			"/>
			<polygon class="st11" points="288.3,214.2 290.1,225.6 287.4,229.4 283.6,226.6 281.8,215.3 284.5,211.5 			"/>
			<polygon class="st11" points="291.4,233.7 293.2,245.1 290.5,248.9 286.7,246.2 284.9,234.8 287.6,231 			"/>
		</g>
		<g>
			<polygon class="st11" points="251.3,219.8 239.9,221.6 236.1,218.9 238.9,215.1 250.2,213.3 254,216 			"/>
			<polygon class="st11" points="257.5,258.8 246.2,260.7 242.4,257.9 245.1,254.1 256.5,252.3 260.3,255.1 			"/>
			<polygon class="st11" points="239.2,222.6 241,233.9 238.3,237.7 234.5,235 232.7,223.6 235.4,219.8 			"/>
			<polygon class="st11" points="258.7,219.4 260.6,230.8 257.8,234.6 254.1,231.9 252.2,220.5 255,216.7 			"/>
			<polygon class="st11" points="242.3,242.1 244.2,253.5 241.4,257.2 237.7,254.5 235.8,243.1 238.6,239.3 			"/>
			<polygon class="st11" points="261.9,238.9 263.7,250.3 261,254.1 257.2,251.4 255.4,240 258.1,236.2 			"/>
		</g>
		<g>
			<polygon class="st11" points="218.8,225 207.4,226.8 203.6,224.1 206.3,220.3 217.7,218.5 221.5,221.2 			"/>
			<polygon class="st11" points="221.9,244.5 210.5,246.3 206.7,243.6 209.4,239.8 220.8,238 224.6,240.7 			"/>
			<polygon class="st11" points="225,264 213.6,265.9 209.8,263.1 212.6,259.4 224,257.5 227.7,260.3 			"/>
			<polygon class="st11" points="226.2,224.6 228,236 225.3,239.8 221.5,237.1 219.7,225.7 222.4,221.9 			"/>
			<polygon class="st11" points="209.8,247.3 211.6,258.7 208.9,262.5 205.1,259.7 203.3,248.3 206,244.6 			"/>
		</g>
	</g>
	<path class="st12" d="M87.5,298.5L75,220.4c-1.2-7.2,3.7-13.9,10.9-15.1l312.4-50.1c1.9-0.3,3.8-0.2,5.5,0.3
		c-2.8-4.2-7.8-6.6-13.1-5.8L78.4,199.8c-7.2,1.2-12.1,7.9-10.9,15.1L80,293c0.8,5.3,4.7,9.3,9.6,10.6
		C88.5,302.1,87.8,300.4,87.5,298.5z"/>
	<g class="st12">
		<path d="M441.4,381c-16.2,8.3-34.5,11.2-52.4,8.4c-3.7-0.6-7.2-4.3-7.7-7.8c-1.7-10.8-3.5-21.7-5.2-32.5c-0.6-3.6,1.9-6.9,5.5-7.6
			c17.4-2.8,34.7-5.6,52.1-8.3c3.6-0.5,7,1.9,7.6,5.5c1.7,10.8,3.5,21.7,5.2,32.5C446.8,374.7,444.7,379.3,441.4,381z"/>
		<path d="M350.2,395.6c-16.2,8.3-34.5,11.2-52.4,8.4c-3.7-0.6-7.2-4.3-7.7-7.8c-1.7-10.8-3.5-21.7-5.2-32.5
			c-0.6-3.6,1.9-6.9,5.5-7.6c17.4-2.8,34.7-5.6,52.1-8.3c3.6-0.5,7,1.9,7.6,5.5c1.7,10.8,3.5,21.7,5.2,32.5
			C355.7,389.3,353.6,393.9,350.2,395.6z"/>
		<path d="M259.1,410.2c-16.2,8.3-34.5,11.2-52.4,8.4c-3.7-0.6-7.2-4.3-7.7-7.8c-1.7-10.8-3.5-21.7-5.2-32.5
			c-0.6-3.6,1.9-6.9,5.5-7.6c17.4-2.8,34.7-5.6,52.1-8.3c3.6-0.5,7,1.9,7.6,5.5c1.7,10.8,3.5,21.7,5.2,32.5
			C264.6,403.9,262.5,408.5,259.1,410.2z"/>
		<path d="M168,424.8c-16.2,8.3-34.5,11.2-52.4,8.4c-3.7-0.6-7.2-4.3-7.7-7.8c-1.7-10.8-3.5-21.7-5.2-32.5c-0.6-3.6,1.9-6.9,5.5-7.6
			c17.4-2.8,34.7-5.6,52.1-8.3c3.6-0.5,7,1.9,7.6,5.5c1.7,10.8,3.5,21.7,5.2,32.5C173.5,418.5,171.4,423.1,168,424.8z"/>
		<path d="M452.8,452.6c-16.2,8.3-34.5,11.2-52.4,8.4c-3.7-0.6-7.2-4.3-7.7-7.8c-1.7-10.8-3.5-21.7-5.2-32.5
			c-0.6-3.6,1.9-6.9,5.5-7.6c17.4-2.8,34.7-5.6,52.1-8.3c3.6-0.5,7,1.9,7.6,5.5c1.7,10.8,3.5,21.7,5.2,32.5
			C458.3,446.3,456.2,450.9,452.8,452.6z"/>
		<path d="M361.7,467.2c-16.2,8.3-34.5,11.2-52.4,8.4c-3.7-0.6-7.2-4.3-7.7-7.8c-1.7-10.8-3.5-21.7-5.2-32.5
			c-0.6-3.6,1.9-6.9,5.5-7.6c17.4-2.8,34.7-5.6,52.1-8.3c3.6-0.5,7,1.9,7.6,5.5c1.7,10.8,3.5,21.7,5.2,32.5
			C367.2,460.9,365.1,465.5,361.7,467.2z"/>
		<path d="M270.6,481.8c-16.2,8.3-34.5,11.2-52.4,8.4c-3.7-0.6-7.2-4.3-7.7-7.8c-1.7-10.8-3.5-21.7-5.2-32.5
			c-0.6-3.6,1.9-6.9,5.5-7.6c17.4-2.8,34.7-5.6,52.1-8.3c3.6-0.5,7,1.9,7.6,5.5c1.7,10.8,3.5,21.7,5.2,32.5
			C276.1,475.5,273.9,480.1,270.6,481.8z"/>
		<path d="M179.5,496.4c-16.2,8.3-34.5,11.2-52.4,8.4c-3.7-0.6-7.2-4.3-7.7-7.8c-1.7-10.8-3.5-21.7-5.2-32.5
			c-0.6-3.6,1.9-6.9,5.5-7.6c17.4-2.8,34.7-5.6,52.1-8.3c3.6-0.5,7,1.9,7.6,5.5c1.7,10.8,3.5,21.7,5.2,32.5
			C185,490.1,182.8,494.7,179.5,496.4z"/>
		<path d="M464.3,524.2c-16.2,8.3-34.5,11.2-52.4,8.4c-3.7-0.6-7.2-4.3-7.7-7.8c-1.7-10.8-3.5-21.7-5.2-32.5
			c-0.6-3.6,1.9-6.9,5.5-7.6c17.4-2.8,34.7-5.6,52.1-8.3c3.6-0.5,7,1.9,7.6,5.5c1.7,10.8,3.5,21.7,5.2,32.5
			C469.8,517.9,467.6,522.5,464.3,524.2z"/>
		<path d="M373.2,538.8c-16.2,8.3-34.5,11.2-52.4,8.4c-3.7-0.6-7.2-4.3-7.7-7.8c-1.7-10.8-3.5-21.7-5.2-32.5
			c-0.6-3.6,1.9-6.9,5.5-7.6c17.4-2.8,34.7-5.6,52.1-8.3c3.6-0.5,7,1.9,7.6,5.5c1.7,10.8,3.5,21.7,5.2,32.5
			C378.7,532.5,376.5,537.1,373.2,538.8z"/>
		<path d="M282.1,553.4c-16.2,8.3-34.5,11.2-52.4,8.4c-3.7-0.6-7.2-4.3-7.7-7.8c-1.7-10.8-3.5-21.7-5.2-32.5
			c-0.6-3.6,1.9-6.9,5.5-7.6c17.4-2.8,34.7-5.6,52.1-8.3c3.6-0.5,7,1.9,7.6,5.5c1.7,10.8,3.5,21.7,5.2,32.5
			C287.5,547.1,285.4,551.7,282.1,553.4z"/>
		<path d="M191,568c-16.2,8.3-34.5,11.2-52.4,8.4c-3.7-0.6-7.2-4.3-7.7-7.8c-1.7-10.8-3.5-21.7-5.2-32.5c-0.6-3.6,1.9-6.9,5.5-7.6
			c17.4-2.8,34.7-5.6,52.1-8.3c3.6-0.5,7,1.9,7.6,5.5c1.7,10.8,3.5,21.7,5.2,32.5C196.4,561.7,194.3,566.3,191,568z"/>
		<path d="M487.2,667.4c-16.2,8.3-34.5,11.2-52.4,8.4c-3.7-0.6-7.2-4.3-7.7-7.8c-1.7-10.8-14.9-93.3-16.7-104.1
			c-0.6-3.6,1.9-6.9,5.5-7.6c17.4-2.8,34.7-5.6,52.1-8.3c3.6-0.5,7,1.9,7.6,5.5c1.7,10.8,14.9,93.3,16.7,104.1
			C492.7,661.1,490.6,665.6,487.2,667.4z"/>
		<path d="M384.7,610.4c-16.2,8.3-34.5,11.2-52.4,8.4c-3.7-0.6-7.2-4.3-7.7-7.8c-1.7-10.8-3.5-21.7-5.2-32.5
			c-0.6-3.6,1.9-6.9,5.5-7.6c17.4-2.8,34.7-5.6,52.1-8.3c3.6-0.5,7,1.9,7.6,5.5c1.7,10.8,3.5,21.7,5.2,32.5
			C390.1,604.1,388,608.6,384.7,610.4z"/>
		<path d="M293.5,625c-16.2,8.3-34.5,11.2-52.4,8.4c-3.7-0.6-7.2-4.3-7.7-7.8c-1.7-10.8-3.5-21.7-5.2-32.5c-0.6-3.6,1.9-6.9,5.5-7.6
			c17.4-2.8,34.7-5.6,52.1-8.3c3.6-0.5,7,1.9,7.6,5.5c1.7,10.8,3.5,21.7,5.2,32.5C299,618.7,296.9,623.2,293.5,625z"/>
		<path d="M202.4,639.6c-16.2,8.3-34.5,11.2-52.4,8.4c-3.7-0.6-7.2-4.3-7.7-7.8c-1.7-10.8-3.5-21.7-5.2-32.5
			c-0.6-3.6,1.9-6.9,5.5-7.6c17.4-2.8,34.7-5.6,52.1-8.3c3.6-0.5,7,1.9,7.6,5.5c1.7,10.8,3.5,21.7,5.2,32.5
			C207.9,633.3,205.8,637.8,202.4,639.6z"/>
		<path d="M396.1,682c-16.2,8.3-34.5,11.2-52.4,8.4c-3.7-0.6-7.2-4.3-7.7-7.8c-1.7-10.8-3.5-21.7-5.2-32.5c-0.6-3.6,1.9-6.9,5.5-7.6
			c17.4-2.8,34.7-5.6,52.1-8.3c3.6-0.5,7,1.9,7.6,5.5c1.7,10.8,3.5,21.7,5.2,32.5C401.6,675.7,399.5,680.2,396.1,682z"/>
		<path d="M305,696.6c-16.2,8.3-34.5,11.2-52.4,8.4c-3.7-0.6-7.2-4.3-7.7-7.8c-1.7-10.8-3.5-21.7-5.2-32.5c-0.6-3.6,1.9-6.9,5.5-7.6
			c17.4-2.8,34.7-5.6,52.1-8.3c3.6-0.5,7,1.9,7.6,5.5c1.7,10.8,3.5,21.7,5.2,32.5C310.5,690.3,308.4,694.8,305,696.6z"/>
		<path d="M213.9,711.2c-16.2,8.3-34.5,11.2-52.4,8.4c-3.7-0.6-7.2-4.3-7.7-7.8c-1.7-10.8-3.5-21.7-5.2-32.5
			c-0.6-3.6,1.9-6.9,5.5-7.6c17.4-2.8,34.7-5.6,52.1-8.3c3.6-0.5,7,1.9,7.6,5.5c1.7,10.8,3.5,21.7,5.2,32.5
			C219.4,704.9,217.2,709.4,213.9,711.2z"/>
	</g>
	<g>
		<path class="st5" d="M437.6,378.3c-16.2,8.3-34.5,11.2-52.4,8.4c-3.7-0.6-7.2-4.3-7.7-7.8c-1.7-10.8-3.5-21.7-5.2-32.5
			c-0.6-3.6,1.9-6.9,5.5-7.6c17.4-2.8,34.7-5.6,52.1-8.3c3.6-0.5,7,1.9,7.6,5.5c1.7,10.8,3.5,21.7,5.2,32.5
			C443.1,372,440.9,376.6,437.6,378.3z"/>
		<path class="st5" d="M346.5,392.9c-16.2,8.3-34.5,11.2-52.4,8.4c-3.7-0.6-7.2-4.3-7.7-7.8c-1.7-10.8-3.5-21.7-5.2-32.5
			c-0.6-3.6,1.9-6.9,5.5-7.6c17.4-2.8,34.7-5.6,52.1-8.3c3.6-0.5,7,1.9,7.6,5.5c1.7,10.8,3.5,21.7,5.2,32.5
			C351.9,386.6,349.8,391.2,346.5,392.9z"/>
		<path class="st6" d="M255.4,407.5c-16.2,8.3-34.5,11.2-52.4,8.4c-3.7-0.6-7.2-4.3-7.7-7.8c-1.7-10.8-3.5-21.7-5.2-32.5
			c-0.6-3.6,1.9-6.9,5.5-7.6c17.4-2.8,34.7-5.6,52.1-8.3c3.6-0.5,7,1.9,7.6,5.5c1.7,10.8,3.5,21.7,5.2,32.5
			C260.8,401.2,258.7,405.7,255.4,407.5z"/>
		<path class="st6" d="M164.3,422.1c-16.2,8.3-34.5,11.2-52.4,8.4c-3.7-0.6-7.2-4.3-7.7-7.8c-1.7-10.8-3.5-21.7-5.2-32.5
			c-0.6-3.6,1.9-6.9,5.5-7.6c17.4-2.8,34.7-5.6,52.1-8.3c3.6-0.5,7,1.9,7.6,5.5c1.7,10.8,3.5,21.7,5.2,32.5
			C169.7,415.8,167.6,420.3,164.3,422.1z"/>
		<path class="st5" d="M449.1,449.9c-16.2,8.3-34.5,11.2-52.4,8.4c-3.7-0.6-7.2-4.3-7.7-7.8c-1.7-10.8-3.5-21.7-5.2-32.5
			c-0.6-3.6,1.9-6.9,5.5-7.6c17.4-2.8,34.7-5.6,52.1-8.3c3.6-0.5,7,1.9,7.6,5.5c1.7,10.8,3.5,21.7,5.2,32.5
			C454.5,443.6,452.4,448.1,449.1,449.9z"/>
		<path class="st5" d="M357.9,464.5c-16.2,8.3-34.5,11.2-52.4,8.4c-3.7-0.6-7.2-4.3-7.7-7.8c-1.7-10.8-3.5-21.7-5.2-32.5
			c-0.6-3.6,1.9-6.9,5.5-7.6c17.4-2.8,34.7-5.6,52.1-8.3c3.6-0.5,7,1.9,7.6,5.5c1.7,10.8,3.5,21.7,5.2,32.5
			C363.4,458.2,361.3,462.7,357.9,464.5z"/>
		<path class="st5" d="M266.8,479.1c-16.2,8.3-34.5,11.2-52.4,8.4c-3.7-0.6-7.2-4.3-7.7-7.8c-1.7-10.8-3.5-21.7-5.2-32.5
			c-0.6-3.6,1.9-6.9,5.5-7.6c17.4-2.8,34.7-5.6,52.1-8.3c3.6-0.5,7,1.9,7.6,5.5c1.7,10.8,3.5,21.7,5.2,32.5
			C272.3,472.8,270.2,477.3,266.8,479.1z"/>
		<path class="st5" d="M175.7,493.7c-16.2,8.3-34.5,11.2-52.4,8.4c-3.7-0.6-7.2-4.3-7.7-7.8c-1.7-10.8-3.5-21.7-5.2-32.5
			c-0.6-3.6,1.9-6.9,5.5-7.6c17.4-2.8,34.7-5.6,52.1-8.3c3.6-0.5,7,1.9,7.6,5.5c1.7,10.8,3.5,21.7,5.2,32.5
			C181.2,487.4,179.1,491.9,175.7,493.7z"/>
		<path class="st5" d="M460.5,521.5c-16.2,8.3-34.5,11.2-52.4,8.4c-3.7-0.6-7.2-4.3-7.7-7.8c-1.7-10.8-3.5-21.7-5.2-32.5
			c-0.6-3.6,1.9-6.9,5.5-7.6c17.4-2.8,34.7-5.6,52.1-8.3c3.6-0.5,7,1.9,7.6,5.5c1.7,10.8,3.5,21.7,5.2,32.5
			C466,515.2,463.9,519.7,460.5,521.5z"/>
		<path class="st5" d="M369.4,536.1c-16.2,8.3-34.5,11.2-52.4,8.4c-3.7-0.6-7.2-4.3-7.7-7.8c-1.7-10.8-3.5-21.7-5.2-32.5
			c-0.6-3.6,1.9-6.9,5.5-7.6c17.4-2.8,34.7-5.6,52.1-8.3c3.6-0.5,7,1.9,7.6,5.5c1.7,10.8,3.5,21.7,5.2,32.5
			C374.9,529.8,372.8,534.3,369.4,536.1z"/>
		<path class="st5" d="M278.3,550.7c-16.2,8.3-34.5,11.2-52.4,8.4c-3.7-0.6-7.2-4.3-7.7-7.8c-1.7-10.8-3.5-21.7-5.2-32.5
			c-0.6-3.6,1.9-6.9,5.5-7.6c17.4-2.8,34.7-5.6,52.1-8.3c3.6-0.5,7,1.9,7.6,5.5c1.7,10.8,3.5,21.7,5.2,32.5
			C283.8,544.4,281.6,548.9,278.3,550.7z"/>
		<path class="st5" d="M187.2,565.3c-16.2,8.3-34.5,11.2-52.4,8.4c-3.7-0.6-7.2-4.3-7.7-7.8c-1.7-10.8-3.5-21.7-5.2-32.5
			c-0.6-3.6,1.9-6.9,5.5-7.6c17.4-2.8,34.7-5.6,52.1-8.3c3.6-0.5,7,1.9,7.6,5.5c1.7,10.8,3.5,21.7,5.2,32.5
			C192.7,559,190.5,563.5,187.2,565.3z"/>
		<path class="st5" d="M483.5,664.6c-16.2,8.3-34.5,11.2-52.4,8.4c-3.7-0.6-7.2-4.3-7.7-7.8c-1.7-10.8-14.9-93.3-16.7-104.1
			c-0.6-3.6,1.9-6.9,5.5-7.6c17.4-2.8,34.7-5.6,52.1-8.3c3.6-0.5,7,1.9,7.6,5.5c1.7,10.8,14.9,93.3,16.7,104.1
			C488.9,658.3,486.8,662.9,483.5,664.6z"/>
		<path class="st5" d="M380.9,607.7c-16.2,8.3-34.5,11.2-52.4,8.4c-3.7-0.6-7.2-4.3-7.7-7.8c-1.7-10.8-3.5-21.7-5.2-32.5
			c-0.6-3.6,1.9-6.9,5.5-7.6c17.4-2.8,34.7-5.6,52.1-8.3c3.6-0.5,7,1.9,7.6,5.5c1.7,10.8,3.5,21.7,5.2,32.5
			C386.4,601.4,384.2,605.9,380.9,607.7z"/>
		<path class="st5" d="M289.8,622.2c-16.2,8.3-34.5,11.2-52.4,8.4c-3.7-0.6-7.2-4.3-7.7-7.8c-1.7-10.8-3.5-21.7-5.2-32.5
			c-0.6-3.6,1.9-6.9,5.5-7.6c17.4-2.8,34.7-5.6,52.1-8.3c3.6-0.5,7,1.9,7.6,5.5c1.7,10.8,3.5,21.7,5.2,32.5
			C295.2,616,293.1,620.5,289.8,622.2z"/>
		<path class="st5" d="M198.7,636.8c-16.2,8.3-34.5,11.2-52.4,8.4c-3.7-0.6-7.2-4.3-7.7-7.8c-1.7-10.8-3.5-21.7-5.2-32.5
			c-0.6-3.6,1.9-6.9,5.5-7.6c17.4-2.8,34.7-5.6,52.1-8.3c3.6-0.5,7,1.9,7.6,5.5c1.7,10.8,3.5,21.7,5.2,32.5
			C204.1,630.5,202,635.1,198.7,636.8z"/>
		<path class="st5" d="M392.4,679.2c-16.2,8.3-34.5,11.2-52.4,8.4c-3.7-0.6-7.2-4.3-7.7-7.8c-1.7-10.8-3.5-21.7-5.2-32.5
			c-0.6-3.6,1.9-6.9,5.5-7.6c17.4-2.8,34.7-5.6,52.1-8.3c3.6-0.5,7,1.9,7.6,5.5c1.7,10.8,3.5,21.7,5.2,32.5
			C397.8,672.9,395.7,677.5,392.4,679.2z"/>
		<path class="st5" d="M301.2,693.8c-16.2,8.3-34.5,11.2-52.4,8.4c-3.7-0.6-7.2-4.3-7.7-7.8c-1.7-10.8-3.5-21.7-5.2-32.5
			c-0.6-3.6,1.9-6.9,5.5-7.6c17.4-2.8,34.7-5.6,52.1-8.3c3.6-0.5,7,1.9,7.6,5.5c1.7,10.8,3.5,21.7,5.2,32.5
			C306.7,687.5,304.6,692.1,301.2,693.8z"/>
		<path class="st5" d="M210.1,708.4c-16.2,8.3-34.5,11.2-52.4,8.4c-3.7-0.6-7.2-4.3-7.7-7.8c-1.7-10.8-3.5-21.7-5.2-32.5
			c-0.6-3.6,1.9-6.9,5.5-7.6c17.4-2.8,34.7-5.6,52.1-8.3c3.6-0.5,7,1.9,7.6,5.5c1.7,10.8,3.5,21.7,5.2,32.5
			C215.6,702.1,213.5,706.7,210.1,708.4z"/>
	</g>
	<g>
		<path class="st13" d="M354,662l-0.5-3.1l16.8-2.7l0.5,3.1L354,662z M355.2,668.9l-0.5-3.1l16.8-2.7l0.5,3.1L355.2,668.9z"/>
		<path class="st13" d="M270.7,688c-0.1-0.8,0-1.5,0.4-2.1c0.4-0.5,1-0.9,1.8-1c0.8-0.1,1.5,0,2.1,0.4c0.5,0.4,0.8,1,1,1.8
			c0.1,0.8,0,1.5-0.4,2.1c-0.4,0.6-1,0.9-1.8,1c-0.8,0.1-1.5,0-2-0.4C271.2,689.4,270.9,688.8,270.7,688z"/>
		<path class="st13" d="M189.2,690.2c0.7,4.4,0.5,7.8-0.6,10.2c-1.1,2.4-3.1,3.8-6,4.3c-2.8,0.5-5.2-0.3-7-2.3
			c-1.8-2-3.1-5.1-3.8-9.4c-0.7-4.5-0.5-7.9,0.5-10.3c1.1-2.4,3.1-3.8,6-4.3c2.9-0.5,5.2,0.3,7,2.3
			C187.3,682.7,188.5,685.8,189.2,690.2z M176,692.3c0.6,3.5,1.3,5.9,2.3,7.3c1,1.4,2.2,1.9,3.8,1.7c1.6-0.3,2.6-1.2,3.1-2.8
			c0.5-1.6,0.5-4.2-0.1-7.6c-0.5-3.4-1.3-5.8-2.3-7.3c-1-1.4-2.2-2-3.8-1.7c-1.6,0.3-2.6,1.2-3.1,2.8
			C175.4,686.2,175.5,688.8,176,692.3z"/>
		<path class="st13" d="M446.3,610.7l-7,1.1l-0.5-3.1l7-1.1l-1.1-7.1l3.1-0.5l1.1,7.1l7-1.1l0.5,3.1l-7,1.1l1.1,7.1l-3.1,0.5
			L446.3,610.7z"/>
		<path class="st13" d="M357.9,582.6c0.3,1.6,0,3-0.8,4.3c-0.8,1.2-2,2.2-3.6,2.8l0,0.1c2.1-0.1,3.7,0.3,4.9,1.2
			c1.2,0.9,1.9,2.1,2.2,3.8c0.4,2.5-0.2,4.5-1.7,6.1c-1.5,1.6-3.9,2.7-7.1,3.2c-2.8,0.5-5.3,0.4-7.4-0.2l-0.6-3.7
			c1.2,0.4,2.4,0.6,3.6,0.7c1.3,0.1,2.4,0.1,3.6-0.1c2-0.3,3.4-0.9,4.3-1.8c0.9-0.9,1.2-2.1,0.9-3.6c-0.2-1.4-0.9-2.3-2.1-2.7
			c-1.2-0.5-2.9-0.5-5.3-0.1l-2.2,0.4l-0.5-3.3l2.3-0.4c4.1-0.7,5.9-2.4,5.4-5.2c-0.2-1.1-0.7-1.9-1.5-2.4c-0.8-0.5-1.9-0.6-3.3-0.4
			c-1,0.2-1.9,0.4-2.7,0.9c-0.9,0.4-1.8,1.1-2.9,2.1l-2.5-2.5c2.1-2.1,4.6-3.4,7.7-3.9c2.6-0.4,4.7-0.2,6.3,0.7
			C356.6,579.3,357.6,580.7,357.9,582.6z"/>
		<path class="st13" d="M270.9,616.7l-17.3,2.8l-0.5-3.1l5.5-7.7c1.6-2.3,2.7-3.9,3.2-4.9c0.5-0.9,0.8-1.8,1-2.6
			c0.2-0.8,0.2-1.6,0.1-2.4c-0.2-1.2-0.7-2-1.5-2.6c-0.8-0.6-1.8-0.7-3-0.5c-1,0.2-1.9,0.5-2.8,1c-0.9,0.5-1.8,1.3-2.9,2.5l-2.7-2.4
			c1.2-1.4,2.5-2.5,3.7-3.2c1.3-0.7,2.6-1.2,4.2-1.4c2.4-0.4,4.4-0.1,6,0.9c1.6,1,2.6,2.6,3,4.7c0.2,1.2,0.2,2.3-0.1,3.4
			c-0.2,1.1-0.7,2.3-1.4,3.5c-0.7,1.2-1.9,3-3.6,5.2l-3.8,5l0,0.2l12.1-1.9L270.9,616.7z"/>
		<path class="st13" d="M174.5,632.2l-4.1,0.7l-2.6-16.5c-0.3-2-0.5-3.5-0.6-4.7c-0.2,0.3-0.5,0.7-0.8,1.1c-0.3,0.4-1.5,1.7-3.4,3.8
			l-2.5-2.3l6.6-7.1l3.4-0.5L174.5,632.2z"/>
		<path class="st13" d="M426.7,507l-0.6-3.5l9-1.4l0.6,3.5L426.7,507z"/>
		<path class="st13" d="M331.5,522.4c-1.6-10,1.7-15.6,9.8-17c1.3-0.2,2.4-0.3,3.3-0.2l0.5,3.4c-0.9-0.1-2-0.1-3.1,0.1
			c-2.7,0.4-4.7,1.5-5.8,3.2c-1.1,1.7-1.5,4.2-1.1,7.4l0.2,0c0.4-1,1-1.9,2-2.6c0.9-0.7,2-1.1,3.4-1.3c2.3-0.4,4.2,0,5.8,1.3
			c1.5,1.2,2.5,3,2.9,5.5c0.4,2.7,0,4.9-1.2,6.7c-1.2,1.8-3.2,2.9-5.8,3.3c-1.8,0.3-3.5,0.1-5-0.6c-1.5-0.7-2.7-1.8-3.7-3.3
			C332.6,526.8,331.9,524.8,331.5,522.4z M341.7,528.9c1.4-0.2,2.4-0.9,3-1.9c0.6-1,0.8-2.4,0.5-4.1c-0.2-1.5-0.8-2.6-1.6-3.3
			c-0.9-0.7-2-1-3.4-0.7c-0.9,0.1-1.7,0.5-2.4,1c-0.7,0.5-1.2,1.1-1.5,1.8c-0.3,0.7-0.4,1.4-0.3,2.1c0.3,1.6,0.9,3,2,3.9
			C339.1,528.7,340.3,529.1,341.7,528.9z"/>
		<path class="st13" d="M248.2,530.6c2.6-0.4,4.7-0.1,6.4,1.1c1.7,1.1,2.8,2.9,3.1,5.2c0.4,2.7-0.1,5-1.5,6.8
			c-1.5,1.8-3.8,3-6.9,3.5c-2.9,0.5-5.2,0.4-6.9-0.3l-0.6-3.7c1,0.4,2.2,0.6,3.4,0.7c1.3,0.1,2.4,0.1,3.5-0.1c1.9-0.3,3.2-0.9,4-1.9
			c0.8-1,1.1-2.3,0.9-3.9c-0.5-3.1-2.7-4.3-6.6-3.6c-0.5,0.1-1.2,0.3-2,0.5c-0.8,0.2-1.5,0.5-2.1,0.7l-2-0.8l-1-12.6l13.3-2.1
			l0.6,3.7l-9.7,1.5l0.4,6.4c0.4-0.1,0.9-0.3,1.5-0.5C246.7,530.9,247.4,530.7,248.2,530.6z"/>
		<path class="st13" d="M168.3,554l-3.4,0.6l0.9,5.6l-4,0.6l-0.9-5.6l-11.7,1.9l-0.5-3.2l9-18.8l4-0.6l2.7,16.6l3.4-0.6L168.3,554z
			 M160.3,551.8l-1-6.4c-0.4-2.3-0.6-4.2-0.7-5.6l-0.1,0c-0.2,0.8-0.6,1.8-1.1,3l-4.9,10.2L160.3,551.8z"/>
		<path class="st13" d="M416.8,433.1l-8-8.4l4.7-0.8l5.5,6.1l3.4-7.5l4.6-0.7l-5,10.5l8.4,8.8l-4.6,0.7l-5.9-6.5l-3.6,8l-4.6,0.7
			L416.8,433.1z"/>
		<path class="st13" d="M336.7,444.3c0.8,5,0.4,9-1.2,11.8c-1.6,2.8-4.5,4.5-8.6,5.2c-1.6,0.2-2.7,0.3-3.4,0.3l-0.6-3.4
			c1.1,0.1,2.2,0.1,3.2-0.1c2.8-0.4,4.7-1.5,5.8-3.2c1.1-1.7,1.5-4.2,1.1-7.4l-0.2,0c-0.5,1.2-1.2,2-2.1,2.7c-0.9,0.6-2,1-3.3,1.2
			c-2.3,0.4-4.2-0.1-5.7-1.3c-1.5-1.2-2.5-3-2.9-5.5c-0.4-2.7,0-4.9,1.2-6.7c1.2-1.8,3.2-2.9,5.7-3.4c1.8-0.3,3.5-0.1,5,0.6
			c1.5,0.7,2.7,1.8,3.7,3.4C335.6,440,336.3,442,336.7,444.3z M326.5,437.9c-1.4,0.2-2.4,0.9-3,1.9c-0.6,1-0.8,2.4-0.5,4.1
			c0.2,1.5,0.8,2.5,1.6,3.3c0.8,0.7,2,1,3.4,0.7c1.4-0.2,2.5-0.8,3.3-1.8c0.8-1,1.1-2,0.9-3.1c-0.2-1-0.5-2-1.1-2.8
			c-0.5-0.8-1.2-1.5-2-1.9C328.3,437.9,327.5,437.8,326.5,437.9z"/>
		<path class="st13" d="M235.1,449.1c2.4-0.4,4.4-0.1,6,0.7c1.6,0.9,2.5,2.3,2.8,4.1c0.4,2.6-0.8,5-3.7,7c2.2,0.7,3.8,1.5,4.8,2.5
			c1,1,1.6,2.1,1.9,3.5c0.3,2.1-0.2,3.9-1.5,5.4c-1.3,1.5-3.3,2.5-6,2.9c-2.8,0.4-5,0.2-6.7-0.7c-1.7-0.9-2.7-2.5-3.1-4.7
			c-0.2-1.4,0-2.8,0.6-4c0.6-1.3,1.8-2.5,3.4-3.7c-1.7-0.7-3-1.5-3.8-2.4c-0.8-0.9-1.3-2-1.6-3.3c-0.3-1.9,0.2-3.4,1.5-4.8
			C231,450.3,232.8,449.5,235.1,449.1z M233.5,469.1c0.2,1.2,0.8,2.1,1.7,2.6c1,0.5,2.2,0.7,3.6,0.4c1.5-0.2,2.6-0.8,3.3-1.6
			c0.7-0.8,1-1.8,0.8-3c-0.2-0.9-0.7-1.7-1.6-2.4c-0.9-0.7-2.2-1.2-3.8-1.6l-0.5-0.1c-1.4,0.9-2.4,1.8-3,2.8
			C233.5,467.1,233.3,468,233.5,469.1z M235.6,452.2c-1.2,0.2-2.1,0.6-2.7,1.3c-0.6,0.7-0.8,1.5-0.7,2.5c0.1,0.6,0.3,1.1,0.6,1.6
			c0.3,0.4,0.8,0.8,1.3,1.1c0.6,0.3,1.5,0.6,2.7,1c1.3-0.8,2.2-1.7,2.6-2.4c0.5-0.8,0.6-1.6,0.5-2.5c-0.2-1-0.6-1.7-1.5-2.2
			C237.8,452.2,236.8,452.1,235.6,452.2z"/>
		<path class="st13" d="M142.4,490.5L149,467l-13.3,2.1l-0.6-3.6l17.7-2.8l0.5,2.9l-6.4,24.3L142.4,490.5z"/>
		<path class="st13" d="M399.7,364.5l-0.5-3.1l17.1-2.7l0.5,3.1L399.7,364.5z M404.8,355.8c-0.1-0.7,0-1.4,0.3-1.8
			c0.3-0.5,0.8-0.8,1.6-0.9c0.7-0.1,1.3,0,1.7,0.4c0.4,0.4,0.7,0.9,0.8,1.6c0.1,0.7,0,1.3-0.3,1.8c-0.3,0.5-0.8,0.8-1.5,0.9
			c-0.7,0.1-1.3,0-1.7-0.4C405.2,357.1,404.9,356.6,404.8,355.8z M406.8,368c-0.1-0.7,0-1.4,0.3-1.8c0.3-0.5,0.8-0.8,1.6-0.9
			c0.7-0.1,1.3,0,1.7,0.4c0.4,0.4,0.7,0.9,0.8,1.6c0.1,0.7,0,1.3-0.3,1.8c-0.3,0.5-0.8,0.8-1.5,0.9c-0.7,0.1-1.3,0-1.7-0.4
			C407.2,369.3,406.9,368.8,406.8,368z"/>
		<path class="st13" d="M313.4,371.3c0.4,2.7,0.3,4.8-0.5,6.3c-0.7,1.5-2.1,2.4-3.9,2.7c-1.8,0.3-3.3-0.2-4.4-1.4
			c-1.2-1.2-2-3.1-2.4-5.7c-0.9-5.3,0.6-8.3,4.3-8.9c1.8-0.3,3.3,0.2,4.6,1.4C312.2,366.8,313,368.7,313.4,371.3z M305.5,372.6
			c0.3,1.7,0.7,3,1.1,3.8c0.5,0.8,1.1,1.1,1.9,1c1.5-0.2,2-2.1,1.5-5.5c-0.6-3.4-1.6-5-3.1-4.8c-0.8,0.1-1.3,0.6-1.5,1.5
			C305.2,369.5,305.2,370.8,305.5,372.6z M323.6,361.8l-10.1,27.8l-3.4,0.5l10.1-27.8L323.6,361.8z M331.6,378.9
			c0.4,2.7,0.3,4.8-0.5,6.3c-0.8,1.5-2.1,2.4-3.9,2.7c-1.8,0.3-3.3-0.2-4.5-1.4c-1.2-1.2-2-3.1-2.4-5.7c-0.9-5.3,0.6-8.3,4.3-8.9
			c1.8-0.3,3.3,0.2,4.5,1.4C330.4,374.4,331.2,376.3,331.6,378.9z M323.8,380.1c0.3,1.7,0.7,3,1.1,3.8c0.5,0.8,1.1,1.1,1.9,1
			c1.5-0.2,2-2.1,1.5-5.6c-0.5-3.4-1.6-5-3.1-4.8c-0.8,0.1-1.3,0.6-1.5,1.5C323.5,377.1,323.5,378.4,323.8,380.1z"/>
		<path class="st13" d="M217.1,382.2c-2.4,0.4-4.2,1.5-5.3,3.5c-1.1,1.9-1.4,4.4-0.9,7.4c0.5,3.1,1.5,5.4,3.1,6.8
			c1.6,1.4,3.6,1.9,6.1,1.5c1.1-0.2,2.1-0.4,3.1-0.8c1-0.4,2-0.8,3-1.3l0.6,3.6c-1.9,1.1-4.1,1.8-6.6,2.2c-3.7,0.6-6.8-0.1-9.2-2
			c-2.4-1.9-3.9-5-4.6-9.2c-0.4-2.7-0.3-5.1,0.3-7.2c0.7-2.1,1.8-3.9,3.5-5.3c1.7-1.4,3.7-2.2,6.2-2.6c2.6-0.4,5.1-0.3,7.5,0.5
			l-0.9,3.7c-0.9-0.3-1.9-0.5-2.9-0.6C219.2,382,218.2,382,217.1,382.2z"/>
		<path class="st13" d="M247,400.3l-14.5,2.3l-4.1-25.6l14.5-2.3l0.6,3.5l-10.3,1.6l1.1,7l9.6-1.5l0.6,3.5l-9.6,1.5l1.3,8l10.3-1.6
			L247,400.3z"/>
		<path class="st13" d="M132.8,418.6l-3.7-6.7l-9.8,1.6l-1.4,7.5l-4.4,0.7l5.4-27.2l4.5-0.7l13.7,24.1L132.8,418.6z M127.4,408.5
			l-3.5-6.6c-0.2-0.4-0.6-1.1-1.1-2.1c-0.5-1-0.8-1.7-1-2.1c-0.1,1.5-0.3,3.1-0.6,4.9l-1.2,7L127.4,408.5z"/>
		<path class="st13" d="M147.9,393.3c-2.4,0.4-4.2,1.5-5.3,3.5c-1.1,1.9-1.4,4.4-0.9,7.4c0.5,3.1,1.5,5.4,3.1,6.8
			c1.6,1.4,3.6,1.9,6.1,1.5c1.1-0.2,2.1-0.4,3.1-0.8c1-0.4,2-0.8,3-1.3l0.6,3.6c-1.9,1.1-4.1,1.8-6.6,2.2c-3.7,0.6-6.8-0.1-9.2-2
			c-2.4-1.9-3.9-5-4.6-9.2c-0.4-2.7-0.3-5.1,0.3-7.2c0.7-2.1,1.8-3.9,3.5-5.3s3.7-2.2,6.2-2.6c2.6-0.4,5.1-0.3,7.5,0.5l-0.9,3.7
			c-0.9-0.3-1.9-0.5-2.9-0.6C150,393.1,148.9,393.1,147.9,393.3z"/>
	</g>
</g>
</svg>
