<?xml version="1.0" encoding="utf-8"?>
<!-- Generator: Adobe Illustrator 27.7.0, SVG Export Plug-In . SVG Version: 6.00 Build 0)  -->
<svg version="1.1" id="Layer_1" xmlns="http://www.w3.org/2000/svg" xmlns:xlink="http://www.w3.org/1999/xlink" x="0px" y="0px"
	 viewBox="0 0 100 100" style="enable-background:new 0 0 100 100;" xml:space="preserve">
<style type="text/css">
	.st0{fill:#58ABDF;}
	.st1{fill:#27316D;}
	.st2{fill:#F9C647;}
</style>
<g>
	<g>
		<g>
			<polygon class="st0" points="3.6,99.9 3.6,46.3 3.6,19.4 22.9,0.1 76.6,0.1 76.6,20 76.6,46.3 76.6,99.9 			"/>
			<g>
				<polygon class="st1" points="22.9,19.4 3.6,19.4 22.9,0.1 				"/>
			</g>
		</g>
	</g>
</g>
<g>
	<rect x="18.8" y="29.1" class="st1" width="2" height="4.7"/>
	<rect x="18.8" y="49.7" class="st1" width="2" height="4.7"/>
	<path class="st1" d="M20.6,42.8H19c-2.7,0-5-2.2-5-5c0-2.7,2.2-5,5-5h1.6c2.7,0,5,2.2,5,5h-2c0-1.6-1.3-3-3-3H19c-1.6,0-3,1.3-3,3
		s1.3,3,3,3h1.6V42.8z"/>
	<path class="st1" d="M20.6,50.7H19c-2.7,0-5-2.2-5-5h2c0,1.6,1.3,3,3,3h1.6c1.6,0,3-1.3,3-3s-1.3-3-3-3H19v-2h1.6c2.7,0,5,2.2,5,5
		S23.4,50.7,20.6,50.7z"/>
</g>
<g>
	<polygon class="st2" points="84.7,43.8 91.7,48.5 59.3,82.2 46.5,91.1 44.5,89.5 45.2,84.7 64.3,62.9 	"/>
	<path class="st1" d="M91.4,50.6L90,49.1l3.4-3.4c0.8-0.8,0.8-2.2,0-3.1l-2.2-2.2c-0.8-0.8-2.2-0.8-3.1,0l-3.4,3.4l-1.4-1.4l3.4-3.4
		c0.8-0.8,1.8-1.2,2.9-1.2s2.2,0.4,2.9,1.2l2.2,2.2c1.6,1.6,1.6,4.3,0,5.9L91.4,50.6z"/>
	<rect x="60.3" y="59.5" transform="matrix(0.7071 -0.7071 0.7071 0.7071 -19.3094 74.3644)" class="st1" width="39.6" height="2"/>
	<rect x="53.6" y="52.8" transform="matrix(0.7071 -0.7071 0.7071 0.7071 -16.5223 67.6644)" class="st1" width="39.6" height="2"/>
	<path class="st1" d="M44.6,91.4c-0.6,0-1.1-0.2-1.5-0.6c-4-4,15.4-23.6,16.2-24.4l1.4,1.4c-11.9,12-16.8,20.4-16.2,21.7
		c1.3,0.6,9.6-4.3,21.5-16.2l1.4,1.4C66.7,75.4,50.6,91.4,44.6,91.4z"/>
	<rect x="39.7" y="90.8" transform="matrix(0.7071 -0.7071 0.7071 0.7071 -52.6008 56.6135)" class="st1" width="4.7" height="2"/>
	<polygon class="st1" points="65.7,56.2 64.3,54.7 80.7,38.4 91.7,48.5 90.3,49.9 80.7,41.2 	"/>
	<rect x="67.3" y="60.8" transform="matrix(0.7071 -0.7071 0.7071 0.7071 -26.351 67.5264)" class="st1" width="2" height="9.5"/>
</g>
<rect x="29.3" y="34.5" class="st1" width="34.9" height="2"/>
<rect x="29.3" y="40.8" class="st1" width="34.9" height="2"/>
<rect x="29.3" y="47.1" class="st1" width="17.5" height="2"/>
</svg>
