<?xml version="1.0" encoding="utf-8"?>
<!-- Generator: Adobe Illustrator 27.7.0, SVG Export Plug-In . SVG Version: 6.00 Build 0)  -->
<svg version="1.1" id="Layer_1" xmlns="http://www.w3.org/2000/svg" xmlns:xlink="http://www.w3.org/1999/xlink" x="0px" y="0px"
	 viewBox="0 0 100 100" style="enable-background:new 0 0 100 100;" xml:space="preserve">
<style type="text/css">
	.st0{fill:#FFFFFF;}
	.st1{fill:#F9C647;}
	.st2{fill:#27316D;}
	.st3{fill:#58ABDF;}
</style>
<g>
	<g>
		<path class="st0" d="M47.2,98.1C29.7,93,6.4,82.6,6.4,52.2V12.9L50,1.1l43.6,11.8v39.3c0,30.4-23.3,40.7-40.8,45.9L50,98.9
			L47.2,98.1z"/>
		<path class="st1" d="M50,100l-3.1-0.9C29.1,93.9,5.3,83.4,5.3,52.2V12.1L50,0l44.7,12.1v40.1c0,31.1-23.7,41.7-41.6,46.9L50,100z
			 M7.5,13.7v38.5C7.5,81.9,30.3,92,47.5,97h0l2.5,0.7l2.5-0.7c35.9-10.5,40.1-30.6,40.1-44.8V13.7L50,2.2L7.5,13.7z"/>
	</g>
	<path class="st2" d="M49,92.1c-32.3-9.4-36.4-26.3-36.4-39.9V17.6L50,7.5l37.4,10.1v34.6c0,26-19.4,35-36.4,39.9l-1,0.3L49,92.1z"
		/>
	<path class="st3" d="M49,92.1c-32.3-9.4-36.4-26.3-36.4-39.9V17.6L50,7.5l0,84.9L49,92.1z"/>
</g>
</svg>
