<?xml version="1.0" encoding="utf-8"?>
<!-- Generator: Adobe Illustrator 27.7.0, SVG Export Plug-In . SVG Version: 6.00 Build 0)  -->
<svg version="1.1" id="Layer_1" xmlns="http://www.w3.org/2000/svg" xmlns:xlink="http://www.w3.org/1999/xlink" x="0px" y="0px"
	 viewBox="0 0 100 100" style="enable-background:new 0 0 100 100;" xml:space="preserve">
<style type="text/css">
	.st0{fill:#27316D;}
	.st1{fill:#58ABDF;}
	.st2{fill:#F9C647;}
</style>
<path class="st0" d="M100,77.5c0,4.6-3.7,8.3-8.3,8.3H8.3c-4.6,0-8.3-3.7-8.3-8.3V24.7c0-4.6,3.7-8.3,8.3-8.3h83.3
	c4.6,0,8.3,3.7,8.3,8.3L100,77.5L100,77.5z"/>
<path class="st1" d="M100,75.3c0,4.6-3.7,8.3-8.3,8.3H8.3c-4.6,0-8.3-3.7-8.3-8.3V22.5c0-4.6,3.7-8.3,8.3-8.3h83.3
	c4.6,0,8.3,3.7,8.3,8.3L100,75.3L100,75.3z"/>
<g>
	<circle class="st2" cx="77.2" cy="34.2" r="13.3"/>
	<path class="st0" d="M77.2,48.2c-7.6,0-13.8-6.3-13.8-14s6.2-14,13.8-14S91,26.5,91,34.2C91,42,84.8,48.2,77.2,48.2z M77.2,22.2
		c-6.5,0-11.9,5.4-11.9,12s5.3,12,11.9,12c6.5,0,11.9-5.4,11.9-12C89,27.6,83.7,22.2,77.2,22.2z"/>
	<path class="st0" d="M77.2,47.9c-3.6,0-6.4-5.9-6.4-13.6c0-7.8,2.7-13.6,6.4-13.6c3.6,0,6.3,5.9,6.3,13.6S80.8,47.9,77.2,47.9z
		 M77.2,22.6c-2.1,0-4.4,5-4.4,11.7S75.1,46,77.2,46s4.4-5,4.4-11.7C81.5,27.6,79.2,22.6,77.2,22.6z"/>
	<path class="st0" d="M90,35.2H64.3c-0.5,0-1-0.4-1-1s0.4-1,1-1H90c0.5,0,1,0.4,1,1S90.6,35.2,90,35.2z"/>
	<g>
		<path class="st0" d="M87.9,29.2H66.4c-0.5,0-1-0.4-1-1c0-0.5,0.4-1,1-1h21.4c0.5,0,1,0.4,1,1C88.9,28.7,88.4,29.2,87.9,29.2z"/>
		<path class="st0" d="M87.9,41.3H66.4c-0.5,0-1-0.4-1-1c0-0.5,0.4-1,1-1h21.4c0.5,0,1,0.4,1,1C88.9,40.9,88.4,41.3,87.9,41.3z"/>
	</g>
</g>
<g>
	<polygon class="st0" points="13.9,55.9 8.2,55.9 8.2,53.9 11.9,53.9 11.9,43.4 8.2,43.4 8.2,41.4 13.9,41.4 	"/>
	<rect x="8.2" y="47.6" class="st0" width="4.7" height="2"/>
	<polygon class="st0" points="23.9,55.9 18.2,55.9 18.2,41.4 23.9,41.4 23.9,43.4 20.2,43.4 20.2,53.9 23.9,53.9 	"/>
	<rect x="19.2" y="47.6" class="st0" width="4.7" height="2"/>
	<rect x="12.9" y="44.5" class="st0" width="6.3" height="2"/>
	<rect x="12.9" y="50.8" class="st0" width="6.3" height="2"/>
	<rect x="86.4" y="53.9" class="st0" width="3.1" height="2"/>
	<rect x="69.2" y="53.9" class="st0" width="14.1" height="2"/>
	<rect x="86.4" y="66.4" class="st0" width="3.1" height="2"/>
	<rect x="67.6" y="72.7" class="st0" width="21.9" height="2"/>
	<rect x="80.1" y="66.4" class="st0" width="3.1" height="2"/>
	<rect x="73.9" y="66.4" class="st0" width="3.1" height="2"/>
	<rect x="67.6" y="66.4" class="st0" width="3.1" height="2"/>
	<rect x="61.4" y="66.4" class="st0" width="3.1" height="2"/>
</g>
</svg>
