<?xml version="1.0" encoding="utf-8"?>
<!-- Generator: Adobe Illustrator 27.7.0, SVG Export Plug-In . SVG Version: 6.00 Build 0)  -->
<svg version="1.1" id="Layer_1" xmlns="http://www.w3.org/2000/svg" xmlns:xlink="http://www.w3.org/1999/xlink" x="0px" y="0px"
	 viewBox="0 0 100 100" style="enable-background:new 0 0 100 100;" xml:space="preserve">
<style type="text/css">
	.st0{fill:#58ABDF;}
	.st1{fill:#27316D;}
	.st2{fill:none;}
	.st3{fill:#FFFFFF;}
	.st4{fill:#F9C647;}
</style>
<path class="st0" d="M83.7,85.2H14.6c-1.4,0-2.6-1.1-2.6-2.6V50.2c0-1.4,1.1-2.6,2.6-2.6h69.2c1.4,0,2.6,1.1,2.6,2.6v32.4
	C86.3,84.1,85.2,85.2,83.7,85.2z"/>
<g>
	<path class="st1" d="M42,39.4H10.4C4.7,39.4,0,34.7,0,29s4.7-10.4,10.4-10.4h10.8v1.8H10.4c-4.7,0-8.6,3.9-8.6,8.6s3.8,8.6,8.6,8.6
		H42V39.4z"/>
	<path class="st1" d="M90.3,57h-7.5v-1.8h7.5c4.3,0,7.9-3.5,7.9-7.9s-3.5-7.9-7.9-7.9H40.5v-1.8h49.8c5.3,0,9.7,4.4,9.7,9.7
		S95.7,57,90.3,57z"/>
	<g>
		<g>
			<path class="st0" d="M86.3,83.9c0,0.7-0.6,1.3-1.3,1.3H13.3c-0.7,0-1.3-0.6-1.3-1.3V49.4c0-0.7,0.6-1.3,1.3-1.3H85
				c0.7,0,1.3,0.6,1.3,1.3V83.9z"/>
			<path class="st1" d="M85,86.1H13.3c-1.2,0-2.2-1-2.2-2.2V49.4c0-1.2,1-2.2,2.2-2.2H85c1.2,0,2.2,1,2.2,2.2v34.5
				C87.2,85.1,86.2,86.1,85,86.1z M13.3,48.9c-0.2,0-0.4,0.2-0.4,0.4v34.5c0,0.2,0.2,0.4,0.4,0.4H85c0.2,0,0.4-0.2,0.4-0.4V49.4
				c0-0.2-0.2-0.4-0.4-0.4L13.3,48.9L13.3,48.9z"/>
		</g>
		<g>
			<g>
				<g>
					<line class="st2" x1="17.5" y1="54.8" x2="23.2" y2="54.8"/>
					<rect x="17.5" y="53.9" class="st1" width="5.7" height="1.8"/>
				</g>
				<g>
					<line class="st2" x1="25.7" y1="54.8" x2="31.4" y2="54.8"/>
					<rect x="25.7" y="53.9" class="st1" width="5.7" height="1.8"/>
				</g>
				<g>
					<line class="st2" x1="33.9" y1="54.8" x2="39.6" y2="54.8"/>
					<rect x="33.9" y="53.9" class="st1" width="5.7" height="1.8"/>
				</g>
				<g>
					<line class="st2" x1="42.2" y1="54.8" x2="47.9" y2="54.8"/>
					<rect x="42.2" y="53.9" class="st1" width="5.7" height="1.8"/>
				</g>
				<g>
					<line class="st2" x1="50.4" y1="54.8" x2="56.1" y2="54.8"/>
					<rect x="50.4" y="53.9" class="st1" width="5.7" height="1.8"/>
				</g>
				<g>
					<line class="st2" x1="58.6" y1="54.8" x2="64.3" y2="54.8"/>
					<rect x="58.6" y="53.9" class="st1" width="5.7" height="1.8"/>
				</g>
				<g>
					<line class="st2" x1="66.8" y1="54.8" x2="72.5" y2="54.8"/>
					<rect x="66.8" y="53.9" class="st1" width="5.7" height="1.8"/>
				</g>
				<g>
					<line class="st2" x1="75.1" y1="54.8" x2="80.7" y2="54.8"/>
					<rect x="75.1" y="53.9" class="st1" width="5.7" height="1.8"/>
				</g>
			</g>
			<g>
				<g>
					<line class="st2" x1="17.5" y1="62.4" x2="23.2" y2="62.4"/>
					<rect x="17.5" y="61.5" class="st1" width="5.7" height="1.8"/>
				</g>
				<g>
					<line class="st2" x1="25.7" y1="62.4" x2="31.4" y2="62.4"/>
					<rect x="25.7" y="61.5" class="st1" width="5.7" height="1.8"/>
				</g>
				<g>
					<line class="st2" x1="33.9" y1="62.4" x2="39.6" y2="62.4"/>
					<rect x="33.9" y="61.5" class="st1" width="5.7" height="1.8"/>
				</g>
				<g>
					<line class="st2" x1="42.2" y1="62.4" x2="47.9" y2="62.4"/>
					<rect x="42.2" y="61.5" class="st1" width="5.7" height="1.8"/>
				</g>
				<g>
					<line class="st2" x1="50.4" y1="62.4" x2="56.1" y2="62.4"/>
					<rect x="50.4" y="61.5" class="st1" width="5.7" height="1.8"/>
				</g>
				<g>
					<line class="st2" x1="58.6" y1="62.4" x2="64.3" y2="62.4"/>
					<rect x="58.6" y="61.5" class="st1" width="5.7" height="1.8"/>
				</g>
				<g>
					<line class="st2" x1="66.8" y1="62.4" x2="72.5" y2="62.4"/>
					<rect x="66.8" y="61.5" class="st1" width="5.7" height="1.8"/>
				</g>
				<g>
					<line class="st2" x1="75.1" y1="62.4" x2="80.7" y2="62.4"/>
					<rect x="75.1" y="61.5" class="st1" width="5.7" height="1.8"/>
				</g>
			</g>
			<g>
				<g>
					<line class="st2" x1="17.5" y1="70" x2="23.2" y2="70"/>
					<rect x="17.5" y="69.1" class="st1" width="5.7" height="1.8"/>
				</g>
				<g>
					<line class="st2" x1="25.7" y1="70" x2="31.4" y2="70"/>
					<rect x="25.7" y="69.1" class="st1" width="5.7" height="1.8"/>
				</g>
				<g>
					<line class="st2" x1="33.9" y1="70" x2="39.6" y2="70"/>
					<rect x="33.9" y="69.1" class="st1" width="5.7" height="1.8"/>
				</g>
				<g>
					<line class="st2" x1="42.2" y1="70" x2="47.9" y2="70"/>
					<rect x="42.2" y="69.1" class="st1" width="5.7" height="1.8"/>
				</g>
				<g>
					<line class="st2" x1="50.4" y1="70" x2="56.1" y2="70"/>
					<rect x="50.4" y="69.1" class="st1" width="5.7" height="1.8"/>
				</g>
				<g>
					<line class="st2" x1="58.6" y1="70" x2="64.3" y2="70"/>
					<rect x="58.6" y="69.1" class="st1" width="5.7" height="1.8"/>
				</g>
				<g>
					<line class="st2" x1="66.8" y1="70" x2="72.5" y2="70"/>
					<rect x="66.8" y="69.1" class="st1" width="5.7" height="1.8"/>
				</g>
				<g>
					<line class="st2" x1="75.1" y1="70" x2="80.7" y2="70"/>
					<rect x="75.1" y="69.1" class="st1" width="5.7" height="1.8"/>
				</g>
			</g>
			<g>
				<g>
					<line class="st2" x1="17.5" y1="77.6" x2="23.2" y2="77.6"/>
					<rect x="17.5" y="76.7" class="st1" width="5.7" height="1.8"/>
				</g>
				<g>
					<line class="st2" x1="25.7" y1="77.6" x2="31.4" y2="77.6"/>
					<rect x="25.7" y="76.7" class="st1" width="5.7" height="1.8"/>
				</g>
				<g>
					<line class="st2" x1="33.9" y1="77.6" x2="64.4" y2="77.6"/>
					<rect x="33.9" y="76.7" class="st1" width="30.4" height="1.8"/>
				</g>
				<g>
					<line class="st2" x1="66.8" y1="77.6" x2="72.5" y2="77.6"/>
					<rect x="66.8" y="76.7" class="st1" width="5.7" height="1.8"/>
				</g>
				<g>
					<line class="st2" x1="75.1" y1="77.6" x2="80.7" y2="77.6"/>
					<rect x="75.1" y="76.7" class="st1" width="5.7" height="1.8"/>
				</g>
			</g>
		</g>
	</g>
	<g>
		<g>
			<path class="st3" d="M78.3,24l10.9-4l-10.9-4C77.9,17.2,77.9,22.8,78.3,24z"/>
			<path class="st1" d="M77.7,25.2l-0.3-0.9c-0.4-1.4-0.4-7.2,0-8.6l0.3-0.9L91.8,20L77.7,25.2z M79,17.2c-0.1,1.5-0.1,4.1,0,5.6
				l7.6-2.8L79,17.2z"/>
		</g>
		<g>
			<g>
				<path class="st4" d="M9.8,24.5H16v-8.9H9.8c-0.4,0-0.7,0.4-0.7,1v6.9C9,24,9.3,24.5,9.8,24.5z"/>
			</g>
			<g>
				<g>
					<rect x="15.7" y="15.5" class="st3" width="7.9" height="9"/>
					<path class="st1" d="M14.8,25.4V14.6h9.7v10.8L14.8,25.4z M16.6,16.4v7.2h6.1v-7.2C22.7,16.4,16.6,16.4,16.6,16.4z"/>
				</g>
			</g>
		</g>
		<polygon class="st1" points="67.9,13.9 56.2,13.9 23.6,13.9 23.6,26.1 56.2,26.1 68.6,26.1 77.7,25.2 77.7,14.8 		"/>
	</g>
</g>
</svg>
