<?xml version="1.0" encoding="utf-8"?>
<!-- Generator: Adobe Illustrator 27.7.0, SVG Export Plug-In . SVG Version: 6.00 Build 0)  -->
<svg version="1.1" id="Layer_1" xmlns="http://www.w3.org/2000/svg" xmlns:xlink="http://www.w3.org/1999/xlink" x="0px" y="0px"
	 viewBox="0 0 100 100" style="enable-background:new 0 0 100 100;" xml:space="preserve">
<style type="text/css">
	.st0{fill:#F9C647;}
	.st1{fill:#27316D;}
	.st2{fill:#58ABDF;}
	.st3{fill:#FFFFFF;}
</style>
<g>
	<g>
		<path class="st0" d="M90.7,45.4v48.1c0,3-2.4,5.5-5.5,5.5H73.9L9.3,48.3v-2.9v-6.5L50,10.6l40.7,28.3
			C90.7,38.9,90.7,45.4,90.7,45.4z"/>
		<g>
			<polygon class="st1" points="10.3,45.4 8.3,45.4 8.3,38.4 50,9.4 91.7,38.4 91.7,45.4 89.7,45.4 89.7,39.5 50,11.8 10.3,39.5 			
				"/>
		</g>
		<path class="st1" d="M73.5,100L8.3,48.8v-3.4h2v2.4L74.2,98h10.9c2.5,0,4.6-2,4.6-4.6v-48h2v48.1c0,3.6-2.9,6.5-6.5,6.5H73.5z"/>
	</g>
	<g>
		<path class="st2" d="M79.6,75.8c0,3.1-2.5,5.5-5.5,5.5H26c-3.1,0-5.6-2.5-5.6-5.5V5.5C20.5,2.5,22.9,0,26,0h33.3l20.3,20.3V75.8z"
			/>
		<path class="st1" d="M59.3,0v14.8c0,3.1,2.5,5.5,5.5,5.6h14.8L59.3,0z"/>
	</g>
	<path class="st3" d="M9.3,48.3v-2.9v48.1c0,3.1,2.5,5.5,5.6,5.5h59L9.3,48.3z"/>
	<g>
		<path class="st1" d="M14.9,100h61.9L10.3,47.8v-2.4h-2v48.1C8.3,97.1,11.3,100,14.9,100z M71,98H14.9c-2.5,0-4.6-2-4.6-4.6V50.3
			L71,98z"/>
	</g>
	<g>
		<path class="st3" d="M90.7,48.3v-2.9v48.1c0,3.1-2.5,5.5-5.6,5.5h-59L90.7,48.3z"/>
		<path class="st1" d="M85.1,100H23.3l66.4-52.2v-2.4h2v48.1C91.7,97.1,88.7,100,85.1,100z M29,98h56.2c2.5,0,4.6-2,4.6-4.6V50.3
			L29,98z"/>
	</g>
</g>
<rect x="28.4" y="30.6" class="st1" width="29.2" height="2"/>
<g>
	<rect x="28.4" y="38.9" class="st1" width="41.7" height="2"/>
	<rect x="28.4" y="47.2" class="st1" width="41.7" height="2"/>
	<rect x="28.4" y="55.6" class="st1" width="41.7" height="2"/>
</g>
</svg>
