<?xml version="1.0" encoding="utf-8"?>
<!-- Generator: Adobe Illustrator 27.7.0, SVG Export Plug-In . SVG Version: 6.00 Build 0)  -->
<svg version="1.1" id="Layer_1" xmlns="http://www.w3.org/2000/svg" xmlns:xlink="http://www.w3.org/1999/xlink" x="0px" y="0px"
	 viewBox="0 0 100 100" style="enable-background:new 0 0 100 100;" xml:space="preserve">
<style type="text/css">
	.st0{fill:#58ABDF;}
	.st1{fill:#F9C647;}
	.st2{fill:#27316D;}
</style>
<polygon class="st0" points="87.2,52.3 79.2,58.6 79.2,52.3 74.4,52.3 74.4,39.5 100,39.5 100,52.3 "/>
<polygon class="st1" points="48.9,31.4 100,31.4 100,9.1 63.3,9.1 55.2,2.8 55.2,9.1 48.9,9.1 "/>
<path class="st2" d="M49.6,99.6C22.2,99.6,0,77.3,0,50S22.2,0.4,49.6,0.4v2C23.3,2.5,2,23.8,2,50s21.3,47.5,47.5,47.5
	c6.4,0,12.6-1.2,18.4-3.7c2.2-0.9,8.2-4.5,9.8-10c1.1-3.5,0.2-7.3-2.4-11.3l1.7-1.1c3,4.5,3.9,8.9,2.7,13.1
	c-2.3,7.5-10.9,11.2-11,11.3C62.7,98.3,56.2,99.6,49.6,99.6z"/>
<path class="st2" d="M68.5,79.2c-10.7,0-22.8-6-32.7-16.4C25,52.1,19.4,39.5,20.5,28.4v-0.3l0.2-0.2c0.9-1,1.7-1.9,2.4-2.7
	c1.8-1.8,5.6-5.2,7.6-6.5l0.8-0.5L32,19c3,4.6,6.4,9.2,10.1,13.7l0.5,0.6L42.2,34c-0.1,0.2-0.3,0.3-0.4,0.4
	c-0.7,0.5-1.9,1.5-3.1,2.4c-1.3,1-2.4,1.9-3.2,2.5c-0.4,0.2-0.6,0.7-0.7,1.2c-0.2,0.8,0.1,1.7,0.6,2.4c1.3,1.9,6.7,7.9,10.1,11.5
	c3.5,3.3,9.4,8.6,11.4,10c0.7,0.5,1.6,0.7,2.4,0.6c0.5-0.1,1-0.4,1.2-0.7c0.5-0.8,1.5-2,2.5-3.2c0.9-1.2,1.9-2.4,2.4-3.1
	c0.1-0.2,0.3-0.3,0.4-0.4l0.6-0.5l0.6,0.5c4.5,3.7,9.1,7.1,13.7,10.1l0.8,0.5L81,69c-1.3,2-4.7,5.8-6.5,7.6
	c-0.8,0.8-1.6,1.5-2.7,2.4l-0.2,0.2h-0.3C70.3,79.2,69.4,79.2,68.5,79.2z"/>
<rect x="58.5" y="22.5" class="st2" width="31.9" height="2"/>
<rect x="58.5" y="16.1" class="st2" width="31.9" height="2"/>
<rect x="79.3" y="44.9" class="st2" width="3.2" height="2"/>
<rect x="85.7" y="44.9" class="st2" width="3.2" height="2"/>
<rect x="92.1" y="44.9" class="st2" width="3.2" height="2"/>
</svg>
