<?xml version="1.0" encoding="utf-8"?>
<!-- Generator: Adobe Illustrator 27.7.0, SVG Export Plug-In . SVG Version: 6.00 Build 0)  -->
<svg version="1.1" id="Layer_1" xmlns="http://www.w3.org/2000/svg" xmlns:xlink="http://www.w3.org/1999/xlink" x="0px" y="0px"
	 viewBox="0 0 1200 800" style="enable-background:new 0 0 1200 800;" xml:space="preserve">
<style type="text/css">
	.st0{fill:#343E44;}
	.st1{fill:#DEE9F7;}
	.st2{fill:#CCCFD0;}
	.st3{fill:#B8BBBE;}
	.st4{fill:#9A9EA2;}
	.st5{fill:#F7F8FC;}
	.st6{fill:#F9C647;}
	.st7{opacity:0.38;fill:none;stroke:#FADDA3;stroke-width:17.6058;stroke-linecap:round;stroke-miterlimit:10;}
	.st8{fill:#27316D;}
	.st9{fill:#58ABDF;}
	.st10{fill:#FFFFFF;}
	.st11{fill:#2D2D2D;}
</style>
<g>
	<g>
		<g>
			<path class="st0" d="M918.3,762.6H51.5V197.4c0-8,6.5-14.4,14.4-14.4h837.9c8,0,14.4,6.5,14.4,14.4L918.3,762.6L918.3,762.6z"/>
			<rect x="92.9" y="230.2" class="st1" width="783.9" height="497.2"/>
		</g>
		<g>
			<path class="st2" d="M990.5,745.5L990.5,745.5H0l0,0c0,14.8,6.4,28.2,16.7,38h957.2C984.2,773.7,990.5,760.3,990.5,745.5z"/>
			<path class="st3" d="M154.7,783.5h-138C27.4,793.7,42.3,800,58.8,800h873c16.5,0,31.4-6.3,42.1-16.5H154.7"/>
			<path class="st4" d="M574.6,765.9H416c-2.9,0-5.3-2.4-5.3-5.3v-15.1H580v15.1C579.9,763.5,577.6,765.9,574.6,765.9z"/>
		</g>
	</g>
</g>
<g>
	<path class="st5" d="M761.6,682h-601c-13.1,0-23.7-10.6-23.7-23.7V33.7h648.3v624.7C785.2,671.4,774.7,682,761.6,682z"/>
	<rect x="136.9" y="33.7" class="st6" width="648.3" height="116.5"/>
	<line class="st7" x1="350.2" y1="94.8" x2="571.9" y2="94.8"/>
	<g>
		<polygon class="st0" points="270.1,91.8 236.9,91.8 236.9,91.8 236.9,0 270.1,0 270.1,91.8 		"/>
		<polygon class="st0" points="685.2,91.8 652,91.8 652,91.8 652,0 685.2,0 685.2,91.8 		"/>
	</g>
	<g>
		<g>
			<rect x="349.3" y="245.7" class="st8" width="81.2" height="81.2"/>
			<rect x="483.9" y="245.7" class="st8" width="81.2" height="81.2"/>
			<rect x="618.4" y="245.7" class="st8" width="81.2" height="81.2"/>
		</g>
		<g>
			<rect x="214.8" y="368.6" class="st8" width="81.2" height="81.2"/>
			<rect x="349.3" y="368.6" class="st8" width="81.2" height="81.2"/>
			<rect x="483.9" y="368.6" class="st8" width="81.2" height="81.2"/>
			<rect x="618.4" y="368.6" class="st8" width="81.2" height="81.2"/>
		</g>
		<g>
			<rect x="214.8" y="491.4" class="st8" width="81.2" height="81.2"/>
			<rect x="349.3" y="491.4" class="st9" width="81.2" height="81.2"/>
			<rect x="483.9" y="491.4" class="st8" width="81.2" height="81.2"/>
		</g>
	</g>
</g>
<g>
	<g>
		<circle class="st9" cx="976.3" cy="223.7" r="223.7"/>
		<circle class="st10" cx="976.3" cy="223.7" r="201.3"/>
	</g>
	<circle class="st1" cx="976.3" cy="223.7" r="201.3"/>
	<circle class="st5" cx="976.3" cy="223.7" r="191.6"/>
	<g>
		<rect x="972.3" y="32.6" class="st11" width="7.9" height="382.1"/>
		<rect x="972.3" y="32.6" transform="matrix(0.5 -0.866 0.866 0.5 294.4169 957.3497)" class="st9" width="7.9" height="382.1"/>
		<rect x="785.2" y="219.7" class="st9" width="382.1" height="7.9"/>
		<rect x="785.2" y="219.7" transform="matrix(0.866 -0.5 0.5 0.866 18.9472 518.1168)" class="st9" width="382.1" height="7.9"/>
		<rect x="785.2" y="219.7" transform="matrix(0.5 -0.866 0.866 0.5 294.4133 957.3463)" class="st9" width="382.1" height="7.9"/>
		<rect x="972.3" y="32.6" transform="matrix(0.866 -0.5 0.5 0.866 18.948 518.1193)" class="st9" width="7.9" height="382.1"/>
	</g>
	<circle class="st5" cx="976.3" cy="223.7" r="164"/>
	<rect x="971.6" y="32" class="st9" width="9.4" height="32.3"/>
	<rect x="971.3" y="381.5" class="st9" width="10" height="33.5"/>
	
		<rect x="1007.3" y="213.6" transform="matrix(0.8699 -0.4931 0.4931 0.8699 -9.2572 535.9618)" class="st9" width="8.5" height="143.9"/>
	
		<rect x="924" y="164" transform="matrix(5.527168e-02 -0.9985 0.9985 5.527168e-02 756.4423 1137.3943)" class="st9" width="110.5" height="9.9"/>
	
		<rect x="910.9" y="182.3" transform="matrix(0.7071 -0.7071 0.7071 0.7071 167.1473 772.5406)" class="st8" width="210.5" height="4.5"/>
	<circle class="st9" cx="976.3" cy="223.7" r="10.4"/>
</g>
</svg>
