<?xml version="1.0" encoding="utf-8"?>
<!-- Generator: Adobe Illustrator 27.7.0, SVG Export Plug-In . SVG Version: 6.00 Build 0)  -->
<svg version="1.1" id="Layer_1" xmlns="http://www.w3.org/2000/svg" xmlns:xlink="http://www.w3.org/1999/xlink" x="0px" y="0px"
	 viewBox="0 0 1200 800" style="enable-background:new 0 0 1200 800;" xml:space="preserve">
<style type="text/css">
	.st0{fill:#343E44;}
	.st1{fill:#DEE9F7;}
	.st2{fill:#CCCFD0;}
	.st3{fill:#B8BBBE;}
	.st4{fill:#9A9EA2;}
	.st5{fill:#F7F8FC;}
	.st6{fill:#3D4550;}
	.st7{fill:#4D5864;}
	.st8{fill:#4688B1;}
	.st9{fill:#58ABDF;}
	.st10{fill:#E1E2E3;}
	.st11{fill:#F9C647;}
	.st12{fill:#B4C7DC;}
	.st13{fill:#D6D8DA;}
	.st14{opacity:0.5;fill:#DEE9F7;}
	.st15{fill:#FFFFFF;}
</style>
<g>
	<g>
		<g>
			<path class="st0" d="M1023,762.6H156.2V197.4c0-8,6.5-14.4,14.4-14.4h837.9c8,0,14.4,6.5,14.4,14.4V762.6z"/>
			<rect x="197.6" y="230.2" class="st1" width="783.9" height="497.2"/>
		</g>
		<g>
			<path class="st2" d="M1095.2,745.5L1095.2,745.5l-990.5,0v0c0,14.8,6.4,28.2,16.7,38h957.2
				C1088.9,773.7,1095.2,760.3,1095.2,745.5z"/>
			<path class="st3" d="M259.4,783.5h-138c10.7,10.2,25.6,16.5,42.1,16.5h873c16.5,0,31.4-6.3,42.1-16.5H259.4"/>
			<path class="st4" d="M679.3,765.9H520.7c-2.9,0-5.3-2.4-5.3-5.3v-15.1h169.3v15.1C684.6,763.5,682.3,765.9,679.3,765.9z"/>
		</g>
	</g>
</g>
<g id="SDM0v1.tif">
	<g>
		<rect x="288.9" class="st5" width="619.2" height="726.3"/>
		<path class="st6" d="M649.2,348.3c5.3-7.1,11.6-13.2,18.3-18.9c0.4-0.3,0.6-0.7,1-1c1.9-1.2,3.6-2.6,5.2-4
			c3.7-2.5,7.4-4.9,11.1-7.4c2.2-1.2,4.3-2.3,6.5-3.5c5.1-2.7,10.5-4.8,15.8-7.1c4.3-1.4,8.7-2.7,13-4.1c0.4-0.1,0.8-0.2,1.3-0.3
			c0.1,0,0.3-0.1,0.4-0.1c5.3-0.9,10.6-2,15.9-2.7c15.4-1.8,30.7-1,45.8,2.5c0.5,0.1,0.9,0.1,1.4,0.2c0.3,0.1,0.5,0.2,0.8,0.2
			c0.3,0,0.6,0.1,0.8,0.1c4.5,1.4,8.9,2.8,13.4,4.2c5,1.9,9.8,4.1,14.6,6.4c2.5,1.4,5,2.8,7.5,4.2c7.1,4.5,13.9,9.3,20.2,14.9
			c10.2,9,18.7,19.3,25.7,30.9c8.9,14.8,14.7,30.8,17.5,47.8c1.3,8,1.9,16.1,1.7,24.2c-0.8,24.6-7.4,47.5-20.6,68.4
			c-0.4,0.7-0.9,1.2,0.1,2c4.8,3.8,9.6,7.6,14.4,11.5c-4.1,2.5-7.7,5.6-10.9,9.2c-4.4-3.5-8.8-7-13.1-10.5
			c-6.3-5-12.5-10.1-18.8-15.1c-1.2-0.9-2.8-1.5-2.8-3.4c0.2-0.2,0.4-0.5,0.5-0.7c1,0.1,1.2-0.5,1.1-1.3c3.7-4.7,6.9-9.7,9.6-15
			c10.3-20.4,13.8-41.8,10.3-64.4c-1-6.4-2.4-12.7-4.9-18.8c-0.3-1.4-0.8-2.8-1.6-4.1c-0.8-2.4-1.8-4.7-3-6.9
			c-0.8-1.7-1.6-3.4-2.6-5c-0.1-0.2-0.1-0.4-0.2-0.6c-5.4-9.4-12-17.8-20-25.2c-7.3-6.8-15.3-12.5-24.2-16.9
			c-18.7-9.2-38.4-12.8-59.2-10.3c-17.3,2.1-33.1,8.1-47.5,17.9c-8.3,5.7-15.5,12.7-22,20.4C664.1,360.3,656.6,354.3,649.2,348.3z"
			/>
		<path class="st7" d="M835.2,496.9c0,1.9,1.6,2.5,2.8,3.4c6.2,5,12.5,10.1,18.8,15.1c4.4,3.5,8.8,7,13.1,10.5c0,0.1,0,0.3,0,0.4
			c-3,3.5-4.8,7.7-6.5,11.8c-4.5-3.6-9.1-7.2-13.6-10.9c-1.3-1.1-1.9-0.9-3.1,0.2c-13.9,13.6-30,23.8-48.3,30.3
			c-3.9,1.4-8,2.6-12,3.7c-22.1,5.5-44.3,5.5-66.4,0c-7.1-1.9-13.9-4.4-20.7-7.1c-2.6-1.2-5.2-2.5-7.8-3.7
			c-3.9-2.3-7.8-4.6-11.7-6.8c-2.1-1.5-4.1-3-6.2-4.4c-2.7-2.2-5.4-4.3-8.2-6.5c-1.8-1.6-3.5-3.3-5.3-4.9
			c-5.7-5.8-11.2-11.9-15.9-18.6c-11.9-17-19.6-35.6-22.8-56.1c-1.1-7.1-1.7-14.2-1.7-21.4c0-0.5-0.1-1.1-0.1-1.6
			c0.1-1.5,0.2-3,0.2-4.5c0.1-2.2,0.3-4.3,0.4-6.5c0.2-1.5,0.3-3,0.5-4.5c0.3-2.2,0.7-4.3,1-6.5c0.3-1.5,0.6-3,0.9-4.5
			c0.6-2.3,1.1-4.6,1.7-6.9c0.4-1.4,0.8-2.7,1.2-4.1c0.7-2.2,1.4-4.3,2.1-6.5c0.6-1.5,1.1-3,1.7-4.4c3.5-8,7.3-15.8,12.2-23
			c2.4-3.6,4.8-7.2,7.7-10.4c7.5,6,14.9,11.9,22.4,17.9c0,0.1,0,0.3,0,0.4c-3.9,4.5-7.1,9.4-9.8,14.6c-1,1.6-1.9,3.2-2.6,4.9
			c-0.7,1.6-1.4,3.3-2.1,4.9c-1.2,2.2-1.9,4.6-2.7,6.9c-0.6,1.9-1.4,3.7-1.7,5.7c-0.6,1.5-1,3-1.2,4.5c-0.6,2.1-1.1,4.3-1.3,6.5
			c-1.2,5.3-1.3,10.8-1.6,16.2c-0.1,1.6-0.4,3.4,0.3,5c-0.1,2.2,0.1,4.4,0.4,6.7c1.2,12.5,4.6,24.4,10.2,35.6
			c7.8,15.9,19,29,33.4,39.2c6.5,4.6,13.3,8.6,20.8,11.3c3.8,1.8,7.8,3.2,11.9,4c0.8,0.3,1.6,0.6,2.5,0.8
			c10.8,2.6,21.7,3.7,32.7,2.9c6.4-0.5,12.7-1.3,18.8-3.2c2.8-0.5,5.5-1.4,8.2-2.4c0.3,0,0.6,0,0.8-0.1c9.8-3.6,19-8.4,27.4-14.6
			c7.1-5.3,13.6-11.2,18.7-18.6C834.7,497.3,834.9,497.1,835.2,496.9z"/>
		<path class="st8" d="M869.9,526.3c0-0.1,0-0.3,0-0.4c3.2-3.6,6.8-6.7,10.9-9.2c5.8-3.1,12-4.9,18.6-4.9c2.6,0,5.2,0.2,7.8,0.6
			c0.9-0.1,1.6,0.8,2.5,0.5l0,0c0.7,0.5,1.4,1.1,2.4,0.8c9.8,3.5,16.8,10.9,24.7,17.1c6.6,5.1,13,10.4,19.5,15.6
			c9.1,7.3,18.1,14.7,27.2,22c8.4,6.8,16.7,13.5,25.1,20.3c5.2,4.2,10.4,8.3,15.5,12.5c5.7,4.7,9.8,10.4,12.3,17.4
			c1.9,5.5,1.4,11.2,1.5,16.8c0,2.6-1.1,5-1.4,7.5c-1.5,4.4-3.6,8.5-6.7,12c-0.6-1.1-1.8-1.4-2.6-2.1c-5.9-4.9-11.9-9.7-17.9-14.6
			c-6.5-5.2-13.1-10.4-19.6-15.7c-6-4.8-11.9-9.7-17.9-14.5c-5.8-4.7-11.6-9.2-17.4-13.9c-7.2-5.8-14.4-11.6-21.6-17.4
			c-6.2-5-12.4-9.9-18.6-14.9c-6.4-5.2-12.8-10.4-19.2-15.6c-5.9-4.8-11.9-9.6-17.9-14.3C874.7,529.9,872.5,527.8,869.9,526.3z"/>
		<path class="st9" d="M869.9,526.3c2.7,1.4,4.8,3.6,7.2,5.5c6,4.7,11.9,9.5,17.9,14.3c6.4,5.2,12.8,10.4,19.2,15.6
			c6.2,5,12.4,9.9,18.6,14.9c7.2,5.8,14.4,11.6,21.6,17.4c5.8,4.6,11.6,9.2,17.4,13.9c6,4.8,11.9,9.7,17.9,14.5
			c6.5,5.2,13.1,10.4,19.6,15.7c6,4.8,12,9.7,17.9,14.6c0.9,0.7,2,1.1,2.6,2.1c-5.6,7.1-13,11.3-21.7,13.2c-2,0.4-4,0.6-6,0.9
			c-2.7-0.2-5.4,0-8.1-0.6c-0.3-0.1-0.6-0.1-0.8-0.2c-3.7-0.7-7.1-2-10.6-3.3l0,0c-0.5-0.7-1.2-1.2-2-1.2l0,0
			c-1.6-1.5-3.7-2.4-5.1-4.2c-0.4-0.6-1.1-0.8-1.8-0.9c0,0,0,0,0,0c0-0.3-0.2-0.4-0.5-0.4c0,0,0,0,0,0c-2.1-2.3-4.8-4-7.1-6
			c-1.1-0.9-1.9-2.3-3.6-2.4l0,0c-2.7-2.8-5.6-5.3-9-7.3l0,0c-1.3-1.2-2.3-2.7-4.1-3.3c0,0,0,0,0,0c0-0.3-0.2-0.4-0.5-0.4
			c0,0-0.1,0-0.1,0c-1.2-1.3-2.2-2.7-4-3.2c0,0-0.1,0-0.1,0c-0.7-1.1-1.7-1.9-2.7-2.6c-4.2-3.2-8.3-6.4-12.2-9.8
			c-0.6-0.5-1-1.1-1.9-1.1c0,0,0,0,0,0c0-0.3-0.2-0.4-0.4-0.4c0,0,0,0,0,0c-0.6-0.9-1.4-1.7-2.6-1.9l0,0c-1.7-1.6-3.1-3.5-5.4-4.5
			c0,0-0.1,0-0.1,0c-1-1.2-1.9-2.4-3.5-2.8l0,0c-1.5-1.3-2.6-3.1-4.6-3.7c0,0-0.1-0.1-0.1-0.1c-1.1-1.6-3-2.1-4.3-3.4
			c-8.9-7.2-17.8-14.5-26.8-21.6c-5.4-4.4-10.8-8.7-14.1-15.1c-4.7-8.9-5.9-18.3-3.5-28c0.2-0.7,0.3-1.4,0.5-2.2
			C865.1,534,866.8,529.8,869.9,526.3z"/>
		<path class="st10" d="M592.1,212.7c86.3,0,172.6,0,258.9,0c1.5,0,2.7-0.1,2.6,2.1c0,2-0.7,2.4-2.6,2.4c-172.7,0-345.4,0-518.2,0
			c-2.2,0-3.3-1.7-2.4-3.8c0.2-0.5,0.5-0.6,0.9-0.6c0.7,0,1.4,0,2,0C419.6,212.7,505.9,212.7,592.1,212.7z"/>
		<path class="st10" d="M591.9,228.2c-86.3,0-172.6,0-258.9,0c-1.7,0-2.7-0.1-2.7-2.3c0-2.3,1.1-2.2,2.8-2.2
			c172.6,0,345.2,0,517.8,0c2.7,0,3.3,0.9,2.7,3.6c-0.2,0.7-0.5,0.9-1.1,0.9c-0.6,0-1.2,0-1.8,0
			C764.3,228.2,678.1,228.2,591.9,228.2z"/>
		<path class="st10" d="M591.8,284c-86.3,0-172.6,0-258.9,0c-1.5,0-2.7,0.1-2.6-2.1c0-2,0.7-2.4,2.6-2.4c172.7,0,345.4,0,518.2,0
			c2.3,0,3.3,1.6,2.4,3.8c-0.2,0.5-0.5,0.6-0.9,0.6c-0.7,0-1.4,0-2,0C764.3,284,678.1,284,591.8,284z"/>
		<path class="st11" d="M413.5,516.2c2.9-2.9,5.7-5.7,8.6-8.6c3.7-3.7,8.8-3.9,12.1-0.5c3.4,3.5,3.5,9.3,0,12.8
			c-4.4,4.5-8.8,8.9-13.1,13.3c-2.6,2.7-5.1,5.4-7.7,8.1c-1.2,1.2-2.4,2.4-3.7,3.7c-2.2,1.9-4,4-6,6c-7.4,7.6-14.9,15.2-22.4,22.8
			c-3.4,3.4-8.8,3.3-12.1-0.2c-1-1-1.9-2.1-2.9-3.2c-7.3-7.9-14.7-15.7-22-23.6c-2.8-3-3.3-7.7-1.2-11.1c3.2-5.2,9.7-5.3,14.2-0.3
			c5.6,6.2,11.3,12.2,16.8,18.4c1.1,1.2,1.6,1,2.7,0c5.2-5.5,10.6-10.9,15.9-16.3c5.7-5.8,11.4-11.6,17-17.4
			C411,518.7,412.3,517.5,413.5,516.2z"/>
		<path class="st10" d="M591.9,194.8c-86.3,0-172.6,0-258.9,0c-1.3,0-2.6,0.4-2.7-1.9c-0.1-2.4,1.1-2.2,2.8-2.2
			c167.7,0,335.4,0,503.1,0c5.1,0,10.2,0,15.3,0c1.5,0,2.1,0.3,2.1,2c0,1.7-0.6,2.1-2.2,2.1c-29.9,0-59.8,0-89.8,0
			C705,194.8,648.5,194.8,591.9,194.8z"/>
		<path class="st10" d="M591.9,205.8c-86.3,0-172.6,0-258.9,0c-1.3,0-2.7,0.4-2.6-1.9c0-1.9,0.6-2.2,2.4-2.2
			c172.9,0,345.7,0,518.6,0c2.1,0,3,1.4,2.2,3.4c-0.2,0.6-0.6,0.6-1.1,0.6c-0.6,0-1.2,0-1.8,0C764.3,205.8,678.1,205.8,591.9,205.8z
			"/>
		<path class="st10" d="M591.9,290.9c86.4,0,172.7,0,259.1,0c1.2,0,2.6-0.5,2.6,1.7c0,1.9-0.6,2.4-2.4,2.4c-172.8,0-345.6,0-518.4,0
			c-2.3,0-3-1-2.4-3.3c0.2-0.6,0.5-0.8,1-0.8c0.7,0,1.4,0,2,0C419.6,290.9,505.8,290.9,591.9,290.9z"/>
		<path class="st11" d="M597.7,48.9c-23.4,0-46.8,0-70.2,0c-4.5,0-7.1-2.4-7.1-6.5c0-4,2.7-6.6,7.1-6.6c46.9,0,93.9,0,140.8,0
			c3.7,0,6.1,1.6,7.1,4.6c0.9,2.7-0.1,5.5-2.4,7.2c-1.4,1-2.9,1.2-4.6,1.2C644.8,48.9,621.2,48.9,597.7,48.9z"/>
		<path class="st10" d="M598,59.1c23.5,0,46.9,0,70.4,0c5.2,0,8.1,3.8,6.7,8.7c-0.6,2.3-3.2,4-6.3,4.3c-0.4,0-0.8,0-1.2,0
			c-46.4,0-92.8,0-139.2,0c-2.8,0-5.6-0.4-7.2-3.2c-1.2-2.1-1.1-4.4-0.1-6.6c1-2.1,2.9-3.2,5.2-3.2c4.4-0.1,8.8,0,13.2,0
			C559.1,59.1,578.6,59.1,598,59.1z"/>
		<path class="st10" d="M720,302.3c-4.3,1.4-8.7,2.7-13,4.1c-0.7-0.8-1.7-0.4-2.5-0.4c-123.7,0-247.4,0-371,0c-0.3,0-0.7,0-1,0
			c-1.6,0.2-2.1-0.4-2.1-2c0-1.6,0.4-2.1,2.1-2.1c8.4,0.1,16.8,0,25.2,0c119.9,0,239.8,0,359.6,0C718.2,301.9,719.2,301.5,720,302.3
			z"/>
		<path class="st10" d="M691.2,313.5c-2.2,1.2-4.3,2.3-6.5,3.5c-1,0-2,0-3.1,0c-116.2,0-232.4,0-348.6,0c-1.1,0-2.6,0.7-2.7-1.6
			c0-2,0.5-2.5,2.5-2.5c118.6,0,237.3,0,355.9,0.1C689.6,312.9,690.6,312.5,691.2,313.5z"/>
		<path class="st10" d="M597.9,670.5c-20.5,0-41.1-0.1-61.6,0.1c-2.9,0-5.6-2.7-5.6-5.2c0.1-3.4,2-5.7,5.4-5.9c0.3,0,0.7,0,1,0
			c40.7,0,81.4,0,122.1-0.1c4.8,0,7.5,4.5,5.2,8.8c-1,1.8-2.7,2.3-4.6,2.3C639.1,670.5,618.5,670.5,597.9,670.5z"/>
		<path class="st10" d="M592.1,239.2c-51.1,0-102.3,0-153.4,0c-1.7,0-2.5-0.3-2.5-2.3c0-2.1,0.9-2.2,2.5-2.2c54.1,0,108.3,0,162.4,0
			c48,0,96.1,0,144.1,0c3,0,3.3,0.4,2.9,3.4c-0.1,0.8-0.4,1.1-1.1,1.1c-0.6,0-1.2,0-1.8,0C694.1,239.2,643.1,239.2,592.1,239.2z"/>
		<path class="st10" d="M597.9,626.9c-54.5,0-109.1,0-163.6,0c-1.4,0-2.6,0.1-2.5-2c0.1-1.8,0.6-2.1,2.3-2.1c17.4,0.1,34.9,0,52.3,0
			c91.9,0,183.7,0,275.6,0c1.2,0,2.6-0.6,2.6,1.7c0,2-0.7,2.4-2.6,2.4C707.2,626.9,652.5,626.9,597.9,626.9z"/>
		<path class="st10" d="M622.6,403.7c-0.3,1.5-0.6,3-0.9,4.5c-1.1,0-2.2,0-3.3,0c-95.1,0-190.2,0-285.3,0c-1.4,0-2.8,0.4-2.8-2
			c0-2.2,0.7-2.5,2.7-2.5c95.5,0,191,0,286.6,0C620.6,403.7,621.6,403.7,622.6,403.7z"/>
		<path class="st10" d="M620.7,414.7c-0.2,1.5-0.3,3-0.5,4.5c-95.3,0-190.6,0-286,0c-0.4,0-0.8,0-1.2,0c-2.4,0-3.5-1.8-2.5-3.9
			c0.2-0.5,0.5-0.6,1-0.6c0.7,0,1.4,0,2,0C429.2,414.7,524.9,414.7,620.7,414.7z"/>
		<path class="st10" d="M720,561.5c22.1,5.5,44.3,5.5,66.4,0c0.8,1.2,0.1,2.7,0.7,4c0.2,0.6-0.4,0.8-0.9,0.8c-0.5,0-1.1,0-1.6,0
			c-105.6,0-211.1,0-316.7,0c-2.7,0-3.3-0.8-2.7-3.6c0.1-0.7,0.5-0.9,1.1-0.9c0.6,0,1.2,0,1.8,0c83.1,0,166.2,0,249.3,0
			C718.2,561.7,719.2,562,720,561.5z"/>
		<path class="st10" d="M598,617.1c-54.6,0-109.2,0-163.8,0c-1.2,0-2.4,0.4-2.4-1.7c-0.1-2.2,1.1-2,2.5-2c63,0,125.9,0,188.9,0
			c46.3,0,92.5,0,138.8,0c1.1,0,2.5-0.6,2.5,1.6c0.1,2-0.8,2.1-2.4,2.1C707.3,617.1,652.7,617.1,598,617.1z"/>
		<path class="st10" d="M598.2,632.6c54.6,0,109.2,0,163.8,0c1.2,0,2.4-0.4,2.4,1.7c0.1,2.2-1.1,2-2.5,2c-52,0-104.1,0-156.1,0
			c-57.2,0-114.4,0-171.6,0c-1,0-2.4,0.7-2.5-1.3c-0.1-2,0.6-2.3,2.4-2.3C488.8,632.6,543.5,632.6,598.2,632.6z"/>
		<path class="st10" d="M629.3,381.7c-0.6,1.5-1.1,3-1.7,4.4c-0.8-0.7-1.8-0.4-2.7-0.4c-97.3,0-194.5,0-291.8,0
			c-1.4,0-2.8,0.4-2.7-2c0.1-1.8,0.7-2.1,2.3-2.1c98.4,0,196.8,0,295.3,0C628.3,381.7,628.8,381.7,629.3,381.7z"/>
		<path class="st10" d="M625.4,392.7c-0.4,1.4-0.8,2.7-1.2,4.1c-97.1,0-194.1,0-291.2,0c-1.2,0-2.7,0.5-2.7-1.8c0-2.3,1-2.3,2.7-2.3
			c96.3,0,192.5,0,288.8,0C623,392.7,624.2,392.7,625.4,392.7z"/>
		<path class="st10" d="M511.5,515.7c-13.2,0-26.4,0-39.7,0c-4.9,0-8.1-4.8-6.1-9.2c1.3-2.9,4.1-3.8,7.1-3.8c13.4,0,26.7,0,40.1,0
			c12.3,0,24.7,0,37,0c2.9,0,5.5,0.7,7,3.6c1.9,3.6-0.1,9.5-5.6,9.5C538.1,515.7,524.8,515.7,511.5,515.7z"/>
		<path class="st10" d="M376.8,165c13.4,0,26.7,0.1,40.1-0.1c3.1,0,5.9,2.7,5.9,5.6c0,4.2-2,6.8-5.6,7.1c-0.3,0-0.7,0-1,0
			c-26.3,0-52.6,0-79,0c-3,0-5.8-1.8-6.4-4.1c-0.9-3.4,0.2-6.4,2.9-8.1c0.8-0.5,1.7-0.4,2.5-0.4C349.8,165,363.3,165,376.8,165z"/>
		<path class="st10" d="M413.5,516.2c-1.2,1.2-2.4,2.4-3.7,3.7c0-3.3-0.1-6.5,0-9.8c0-1.3-0.4-1.7-1.7-1.7c-24,0-48,0-72,0
			c-1.5,0-2,0.6-2,2.1c0,24,0,47.9,0,71.9c0,1.6,0.6,1.9,2,1.9c23.9,0,47.9,0,71.8,0c1.3,0,1.9-0.3,1.9-1.8
			c-0.1-12.5-0.1-25-0.1-37.5c1.2-1.2,2.4-2.4,3.7-3.7c0,14.9,0,29.9,0.1,44.8c0,2-1.1,1.8-2.3,1.8c-23.9,0-47.9,0-71.8,0
			c-2.3,0-4.6-0.1-6.9,0c-1.7,0.1-2-0.5-2-2.1c0.1-16.2,0-32.4,0-48.7c0-10.1,0-20.2,0-30.3c0-1.5,0.4-2.1,2-2.1
			c26.4,0.1,52.8,0,79.1,0c1.5,0,2,0.5,1.9,2C413.4,509.9,413.5,513,413.5,516.2z"/>
		<path class="st10" d="M673.6,324.4c-1.6,1.5-3.3,2.9-5.2,4c-1.1,0-2.2,0-3.3,0c-75.4,0-150.9,0-226.3,0c-2,0-2.8-0.4-2.7-2.5
			c0.1-1.7,0.6-2,2.1-2c77.7,0,155.5,0,233.2,0C672.3,323.9,673.1,323.6,673.6,324.4z"/>
		<path class="st10" d="M691.5,550.6c2.6,1.2,5.2,2.5,7.8,3.7c-0.6,0.7-1.4,0.5-2.1,0.5c-76.6,0-153.2,0-229.8,0c-2,0-3-1.5-2.2-3.5
			c0.2-0.5,0.5-0.6,0.9-0.6c0.7,0,1.4,0,2,0c73.3,0,146.6,0,219.8,0C689.2,550.7,690.3,550.7,691.5,550.6z"/>
		<path class="st10" d="M673.6,539.3c2.1,1.5,4.1,3,6.2,4.4c-1.7,0-3.4,0-5.1,0c-69,0-138.1,0-207.1,0c-1.3,0-2.5,0.3-2.5-1.8
			c0-2.1,0.8-2.3,2.5-2.3c67.8,0,135.7,0,203.5,0C671.9,539.7,672.8,540.1,673.6,539.3z"/>
		<path class="st10" d="M626.1,577.2c-31.1,0-62.1,0-93.2,0c-2.4,0-3.5-1.8-2.5-3.9c0.2-0.4,0.4-0.5,0.8-0.6c0.5,0,0.9,0,1.4,0
			c62.4,0,124.8,0,187.2,0c1.7,0,2.4,0.3,2.4,2.2c0,1.9-0.6,2.4-2.4,2.4C688.5,577.2,657.3,577.2,626.1,577.2z"/>
		<path class="st10" d="M619.8,425.7c-0.1,1.5-0.2,3-0.2,4.5c-4,0-8,0-12,0c-56.3,0-112.6,0-168.9,0c-1.7,0-2.5-0.3-2.5-2.3
			c0-2.1,0.8-2.3,2.5-2.3c59.8,0,119.6,0,179.5,0C618.7,425.7,619.2,425.7,619.8,425.7z"/>
		<path class="st10" d="M660.2,527.9c1.8,1.6,3.5,3.3,5.3,4.9c-65.9,0-131.9,0-197.8,0c-1.4,0-2.5,0.2-2.6-2c0-2.3,1.1-2.1,2.6-2.1
			c63.3,0,126.6,0,189.9,0C658.4,528.7,659.7,529.4,660.2,527.9z"/>
		<path class="st10" d="M597.6,106c-31.2,0-62.4,0-93.6,0c-1.8,0-2.4-0.4-2.3-2.3c0-1.6,0.6-1.9,2.1-1.9c62.7,0,125.5,0,188.2,0
			c1.8,0,1.9,0.7,2,2.2c0.1,1.7-0.7,2-2.1,2C660.4,106,629,106,597.6,106z"/>
		<path class="st10" d="M597.6,93.3c-31.1,0-62.3,0-93.4,0c-2.4,0-3-0.9-2.4-3.2c0.1-0.6,0.4-0.8,1-0.8c0.5,0,1.1,0,1.6,0
			c62.3,0,124.7,0,187,0c1.3,0,2.7-0.4,2.6,1.9c0,1.9-0.7,2.2-2.4,2.2C660.3,93.3,629,93.3,597.6,93.3z"/>
		<path class="st10" d="M597.8,131.6c-31.2,0-62.4,0-93.6,0c-1.4,0-2.5,0.1-2.4-1.9c0-1.9,0.6-2.2,2.3-2.2c23.3,0.1,46.5,0,69.8,0
			c39.3,0,78.5,0,117.8,0c1.7,0,2.3,0.4,2.3,2.2c0,2.1-1.1,1.9-2.4,1.9C660.3,131.6,629,131.6,597.8,131.6z"/>
		<path class="st10" d="M598,114.9c31.2,0,62.4,0,93.6,0c1.3,0,2.5-0.2,2.5,1.9c0,1.9-0.6,2.2-2.3,2.2c-20.5-0.1-41,0-61.5,0
			c-42,0-84,0-126,0c-1.2,0-2.5,0.4-2.6-1.8c0-1.9,0.6-2.3,2.4-2.3C535.4,114.9,566.7,114.9,598,114.9z"/>
		<path class="st10" d="M799.8,306.5c-4.5-1.4-8.9-2.8-13.4-4.2c1.7-1.1,3.5-0.4,5.3-0.4c8.7,0,17.4,0,26,0c10.7,0,21.4,0,32.1,0
			c0.4,0,0.8-0.1,1.2,0c0.8,0.3,2-0.9,2.4,0.2c0.4,1,0.1,2.3,0.1,3.4c0,0.6-0.6,0.8-1.2,0.9c-0.5,0-1.1,0-1.6,0
			c-15.9,0-31.9,0-47.8,0C801.8,306.4,800.8,306.4,799.8,306.5z"/>
		<path class="st10" d="M821.8,317.1c-2.5-1.4-5-2.8-7.5-4.2c12.5,0,24.9,0,37.4-0.1c1.7,0,1.8,0.8,1.8,2.1c0,1.4-0.2,2.1-1.9,2
			c-9-0.1-18,0-27,0C823.7,317,822.8,317,821.8,317.1z"/>
		<path class="st12" d="M912.1,513.7c-1,0.3-1.7-0.3-2.4-0.8C910.5,513.1,911.7,512.3,912.1,513.7z"/>
		<path class="st10" d="M785.5,302.1c-0.3-0.1-0.5-0.2-0.8-0.2C785,302,785.3,302,785.5,302.1z"/>
		<path class="st10" d="M721.7,301.9c-0.1,0-0.3,0.1-0.4,0.1C721.4,302,721.5,301.9,721.7,301.9z"/>
		<path class="st1" d="M835.2,496.9c-0.2,0.2-0.5,0.3-0.7,0.5c-6.5-5.2-13-10.5-19.6-15.7c-6-4.8-12-9.5-18-14.4
			c-6.9-5.5-13.7-11.2-20.5-16.7c-6.6-5.4-13.3-10.8-20-16.1c-2.7-2.2-5.3-4.6-8.3-6.5c-1.2-0.7-1.8-2.1-3.3-2.4
			c-0.3-0.6-0.8-0.9-1.3-1.3c-1.9-1.8-4.3-3-5.7-5.2c37.6,0,75.1,0,112.7,0c0.6,0,1.2,0,1.8,0c0.4,0,0.8-0.1,1-0.5
			c1-1.8-0.2-4-2.2-4c-39.8,0-79.6,0-119.4,0c-0.3,0-0.5,0-0.8,0c-0.2-1.4-1.7-1.6-2.5-2.5c-1.3-1.4-3.4-2-4.1-4
			c42,0,84.1,0,126.1,0c0.6,0,1.2,0,1.8,0c0.6,0,1-0.2,1.1-0.9c0.6-2.8,0-3.6-2.7-3.6c-44.1,0-88.3,0-132.4,0c-0.3,0-0.5,0-0.8,0
			c-0.3-0.6-0.8-0.8-1.2-1.3c-2-2.1-4.7-3.3-6.5-5.6c47.3,0,94.7,0,142,0c2.5,6,3.9,12.4,4.9,18.8c3.5,22.5,0,44-10.3,64.4
			c-2.7,5.3-5.9,10.3-9.6,15c-0.5,0.3-0.9,0.8-1.1,1.3C835.5,496.4,835.4,496.7,835.2,496.9z"/>
		<path class="st1" d="M671.5,366.6c0-0.1,0-0.3,0-0.4c6.5-7.7,13.6-14.7,22-20.4c14.4-9.9,30.2-15.9,47.5-17.9
			c20.8-2.5,40.5,1.1,59.2,10.3c8.9,4.4,16.9,10.1,24.2,16.9c8,7.4,14.6,15.8,20,25.2c0.1,0.2,0.1,0.4,0.2,0.6
			c-0.7,1.3-1.9,0.8-2.9,0.8c-49,0-97.9,0-146.9,0c1.7-5.2-2.9-11.7-8.5-11.9c-3.1-0.1-5.6,1-8.2,2.1
			C676.2,369.8,674,368.1,671.5,366.6z"/>
		<path class="st1" d="M847.2,385.8c1.2,2.2,2.3,4.5,3,6.9c-48.4,0-96.7,0-145.3,0c0.9,2,3.2,2.2,3.6,4.1c-7,0-13.9,0-20.9,0
			c-0.7,0-1.4,0.2-1.9-0.4c1-3,2.7-4.5,6.1-4.1c3.2,0.4,6.5,0.1,9.7,0.1c0.4,0,0.9,0.1,1-0.4c0.1-0.5-0.3-0.6-0.6-0.9
			c-1.9-1.6-3.8-3.2-5.6-4.9c0.5-0.6,1.1-0.4,1.7-0.4C747.8,385.8,797.5,385.8,847.2,385.8z"/>
		<path class="st13" d="M847.2,385.8c-49.7,0-99.4,0-149.2,0c-0.6,0-1.2-0.2-1.7,0.4c-0.3,0-0.5,0-0.8,0c-0.2-0.9-0.9-1.1-1.6-1.2
			c0.1-1.1,1-2,0.8-3.2c49,0,97.9,0,146.9,0c1,0,2.2,0.5,2.9-0.8C845.7,382.4,846.5,384.1,847.2,385.8z"/>
		<path class="st13" d="M708.6,396.8c-0.4-1.9-2.7-2.1-3.6-4.1c48.6,0,96.9,0,145.3,0c0.7,1.3,1.2,2.7,1.6,4.1c-47.3,0-94.7,0-142,0
			C709.4,396.8,709,396.8,708.6,396.8z"/>
		<path class="st7" d="M835.7,496.2c0.2-0.5,0.6-1,1.1-1.3C836.9,495.7,836.7,496.3,835.7,496.2z"/>
		<path class="st14" d="M748.1,428.2c3,1.9,5.5,4.3,8.3,6.5c6.7,5.3,13.4,10.7,20,16.1c6.9,5.6,13.7,11.2,20.5,16.7
			c6,4.8,12,9.6,18,14.4c6.5,5.2,13,10.4,19.6,15.7c-5.1,7.4-11.6,13.3-18.7,18.6c-8.4,6.3-17.6,11.1-27.4,14.6
			c-0.2,0.1-0.5,0.1-0.8,0.1c-1.1-2.6-1.1-2.6-4.2-2.1c-0.6,0.1-1.2,0.1-1.8,0.1c-21.7,0-43.3,0-65,0c-1,0-2.1-0.6-3.1,0
			c-7.5-2.7-14.3-6.7-20.8-11.3c-14.5-10.2-25.6-23.3-33.4-39.2c-5.5-11.3-9-23.1-10.2-35.6c-0.2-2.2-0.4-4.4-0.4-6.7
			c0-1.4,0.1-2.8,0-4.3c0-1.1,0.4-1.5,1.4-1.4c2.1,0,4.2,0,6.3,0c0.9,3,0.2,6.2,0.8,9.3c1.5,7.8,3.1,15.4,6.6,22.6
			c2.9,5.9,9.7,7,14.3,4.4c4.6-2.6,6-8.5,3.7-13.5c-3.3-7.2-5.1-14.8-5-22.7c23,0,46,0,69,0C747.5,430.2,748.4,430,748.1,428.2z"/>
		<path class="st15" d="M676.8,430.2c-0.1,8,1.7,15.5,5,22.7c2.3,5,0.9,11-3.7,13.5c-4.6,2.6-11.4,1.5-14.3-4.4
			c-3.5-7.2-5.1-14.9-6.6-22.6c-0.6-3.1,0.1-6.2-0.8-9.3c0-0.9,0-1.9,0.1-2.8c0-0.6,0.6-1.1-0.2-1.6c-1.3-0.9-1-2.6-0.5-3.2
			c1.5-2,1.2-4.3,1.5-6.5c0.2-1.1-0.1-1.3-1.1-1.3c-2.1,0-4.2,0-6.3,0c0.2-2.2,0.7-4.4,1.3-6.5c1.6,0,3.2,0,4.8,0c3,0,2.9,0,3.7-2.9
			c0.4-1.5-0.2-1.6-1.3-1.6c-2,0-4,0-6.1,0c0.3-2,1.1-3.8,1.7-5.7c1.7-0.9,3.6-0.9,5.4-0.9c3.2,0,3.7-0.4,4.6-3.5
			c0.3-1.1,0.1-1.4-1-1.4c-2.2,0-4.4,0.3-6.3-1.2c0.7-1.6,1.4-3.3,2.1-4.9c2.6,0,5.1,0,7.7,0c0.7,0,1.5,0.1,1.8-0.6
			c0.6-1.4,1.8-2.4,2.2-3.9c1.6-1.6,2.6-3.8,4.1-5.5c1.2-1.3,2.5-2.6,3.2-4.3c2.6-1.2,5.2-2.2,8.2-2.1c5.6,0.2,10.2,6.7,8.5,11.9
			c0.2,1.2-0.7,2.1-0.8,3.2c-0.7,0.4-1.2,0.9,0,1.2c0.5,0.1,1.1,0,1.6,0c0.3,0,0.5,0,0.8,0c1.9,1.6,3.7,3.2,5.6,4.9
			c0.3,0.3,0.8,0.4,0.6,0.9c-0.1,0.5-0.7,0.4-1,0.4c-3.2,0-6.5,0.3-9.7-0.1c-3.5-0.4-5.1,1.2-6.1,4.1c-1.8,2.2-2.9,4.6-3.7,7.3
			c-1.1,1.3-1.5,2.9-2,4.5c-0.8,2.1-1.6,4.2-1.6,6.5c-1.3,1.3-0.7,3-1.2,4.5c0.1,2.2-0.7,4.3-0.4,6.5
			C676.8,427.2,676.8,428.7,676.8,430.2z"/>
		<path class="st13" d="M713.5,528.8c1-0.5,2.1,0,3.1,0c21.7,0,43.3,0,65,0c0.6,0,1.2,0,1.8-0.1c3.1-0.5,3.1-0.5,4.2,2.1
			c-2.6,1.1-5.3,2-8.2,2.4c-0.6-0.7-1.4-0.4-2.1-0.4c-4.4-0.2-8.7,0.1-13.1,0.1c-12.9-0.2-25.9-0.1-38.8-0.1
			C721.3,532,717.3,530.6,713.5,528.8z"/>
		<path class="st14" d="M725.4,532.8c12.9,0,25.9-0.1,38.8,0.1c4.4,0.1,8.7-0.2,13.1-0.1c0.7,0,1.5-0.3,2.1,0.4
			c-6.1,1.9-12.5,2.7-18.8,3.2c-11.1,0.9-22-0.2-32.7-2.9C727,533.4,726.2,533.1,725.4,532.8z"/>
		<path class="st14" d="M678.1,371.9c-0.7,1.7-2,2.9-3.2,4.3c-1.5,1.7-2.4,3.9-4.1,5.5c-3-0.1-6.1,0.3-9.1-0.4
			c2.8-5.2,6-10.2,9.8-14.6C674,368.1,676.2,369.8,678.1,371.9z"/>
		<path class="st13" d="M650,414.7c2.1,0,4.2,0,6.3,0c1,0,1.3,0.2,1.1,1.3c-0.4,2.2,0,4.5-1.5,6.5c-0.5,0.7-0.8,2.4,0.5,3.2
			c0.8,0.5,0.2,1,0.2,1.6c-0.1,0.9-0.1,1.9-0.1,2.8c-2.1,0-4.2,0-6.3,0c-1.1,0-1.5,0.4-1.4,1.4c0.1,1.4,0,2.8,0,4.3
			c-0.7-1.6-0.4-3.3-0.3-5C648.7,425.5,648.8,420,650,414.7z"/>
		<path class="st13" d="M656.9,391.1c1.9,1.5,4.1,1.2,6.3,1.2c1.1,0,1.4,0.3,1,1.4c-0.9,3.1-1.5,3.5-4.6,3.5c-1.9,0-3.7,0-5.4,0.9
			C655,395.7,655.7,393.3,656.9,391.1z"/>
		<path class="st13" d="M661.7,381.3c3,0.7,6.1,0.3,9.1,0.4c-0.4,1.5-1.6,2.5-2.2,3.9c-0.3,0.7-1.1,0.6-1.8,0.6c-2.6,0-5.1,0-7.7,0
			C659.8,384.5,660.6,382.8,661.7,381.3z"/>
		<path class="st13" d="M652.5,403.7c2,0,4,0,6.1,0c1.1,0,1.7,0.1,1.3,1.6c-0.8,2.9-0.7,2.9-3.7,2.9c-1.6,0-3.2,0-4.8,0
			C651.5,406.7,651.9,405.2,652.5,403.7z"/>
		<path class="st15" d="M409.8,544.9c0,12.5,0,25,0.1,37.5c0,1.5-0.6,1.8-1.9,1.8c-23.9,0-47.9,0-71.8,0c-1.4,0-2-0.3-2-1.9
			c0-24,0-47.9,0-71.9c0-1.5,0.5-2.1,2-2.1c24,0,48,0,72,0c1.3,0,1.8,0.4,1.7,1.7c-0.1,3.3,0,6.5,0,9.8c-5.7,5.8-11.4,11.6-17,17.4
			c-5.3,5.4-10.6,10.8-15.9,16.3c-1,1.1-1.6,1.2-2.7,0c-5.6-6.2-11.3-12.2-16.8-18.4c-4.5-5-11-4.9-14.2,0.3
			c-2.1,3.4-1.6,8.1,1.2,11.1c7.3,7.9,14.6,15.7,22,23.6c1,1,1.9,2.1,2.9,3.2c3.3,3.6,8.7,3.7,12.1,0.2c7.5-7.6,14.9-15.2,22.4-22.8
			C405.7,548.9,407.6,546.8,409.8,544.9z"/>
		<path class="st13" d="M718.4,403.7c44.1,0,88.3,0,132.4,0c2.7,0,3.3,0.8,2.7,3.6c-0.1,0.7-0.5,0.9-1.1,0.9c-0.6,0-1.2,0-1.8,0
			c-42,0-84.1,0-126.1,0c-0.5,0-1.1,0-1.6,0C721.8,406.2,719.4,405.6,718.4,403.7z"/>
		<path class="st13" d="M731.8,414.7c39.8,0,79.6,0,119.4,0c2,0,3.2,2.1,2.2,4c-0.2,0.4-0.6,0.5-1,0.5c-0.6,0-1.2,0-1.8,0
			c-37.6,0-75.1,0-112.7,0c-0.5,0-1.1,0-1.6,0C735.3,417.2,733.2,416.3,731.8,414.7z"/>
		<path class="st14" d="M736.3,419.2c0.5,0,1.1,0,1.6,0c1.4,2.3,3.8,3.5,5.7,5.2c0.4,0.4,1,0.7,1.3,1.3c-22.7,0-45.3,0-68,0
			c-0.3-2.2,0.6-4.3,0.4-6.5C696.9,419.2,716.6,419.2,736.3,419.2z"/>
		<path class="st14" d="M722.9,408.2c0.5,0,1.1,0,1.6,0c0.7,2,2.8,2.6,4.1,4c0.8,0.9,2.2,1.1,2.5,2.5c-17.5,0-35,0-52.5,0
			c0-2.3,0.8-4.4,1.6-6.5C694.4,408.2,708.6,408.2,722.9,408.2z"/>
		<path class="st13" d="M676.8,425.7c22.7,0,45.3,0,68,0c1.5,0.3,2.1,1.8,3.3,2.4c0.3,1.8-0.6,2.1-2.2,2.1c-23,0-46,0-69,0
			C676.8,428.7,676.8,427.2,676.8,425.7z"/>
		<path class="st13" d="M678.5,414.7c17.5,0,35,0,52.5,0c0.3,0,0.5,0,0.8,0c1.4,1.6,3.5,2.4,4.5,4.5c-19.7,0-39.4,0-59,0
			C677.8,417.7,677.2,416,678.5,414.7z"/>
		<path class="st14" d="M682.1,403.7c0.7-2.7,1.9-5.2,3.7-7.3c0.5,0.6,1.3,0.4,1.9,0.4c7,0,13.9,0,20.9,0c0.4,0,0.8,0,1.2,0
			c1.8,2.3,4.5,3.6,6.5,5.6c0.4,0.4,1,0.7,1.2,1.3C705.7,403.7,693.9,403.7,682.1,403.7z"/>
		<path class="st13" d="M682.1,403.7c11.8,0,23.6,0,35.4,0c0.3,0,0.5,0,0.8,0c1.1,1.9,3.5,2.5,4.5,4.5c-14.3,0-28.5,0-42.8,0
			C680.7,406.6,681,405,682.1,403.7z"/>
		<path class="st13" d="M695.6,386.2c-0.5,0-1.1,0.1-1.6,0c-1.2-0.3-0.7-0.8,0-1.2C694.7,385.1,695.4,385.2,695.6,386.2z"/>
	</g>
</g>
</svg>
